<mxfile host="app.diagrams.net" modified="2024-06-04T22:46:30.602Z" agent="Mozilla/5.0 (Macintosh; Intel Mac OS X 10_15_7) AppleWebKit/537.36 (KHTML, like Gecko) Chrome/125.0.0.0 Safari/537.36" etag="dhivvmjAVOVxGk7MfKWy" version="24.4.13" type="device">
  <diagram name="PÃ¡gina-1" id="xxsHkwUaVFt41s8DaHUG">
    <mxGraphModel dx="1434" dy="712" grid="1" gridSize="10" guides="1" tooltips="1" connect="1" arrows="1" fold="1" page="1" pageScale="1" pageWidth="827" pageHeight="1169" math="0" shadow="0">
      <root>
        <mxCell id="0" />
        <mxCell id="1" parent="0" />
        <mxCell id="PZrZSrdKlhRtxC-y3ePN-1" value="" style="shape=image;verticalLabelPosition=bottom;labelBackgroundColor=default;verticalAlign=top;aspect=fixed;imageAspect=0;image=data:image/png,iVBORw0KGgoAAAANSUhEUgAAAKAAAAEwCAYAAAAw3nraAAABU2lDQ1BJQ0MgUHJvZmlsZQAAGJVtkL9Kw1AUxr/UaEEdOqiTQoYiVarU2Bdoi4jgEKrin0XSNKaFNF6SiPgGPoEuzg5ObhVdHLSDCA6Kgr6AeyEOWq7nNmpa9VwO58fH4fDdD4hBZ8yWAdQc3y3O55W19Q0l/oo+yEiQnNINj+U0bZEY37O7gkdIYt5PiVtonpwNv91N3khj1/ylKv3d76r+sukZND+oxw3m+oCUJNZ2fSaYGkMumSLeF2yFfCS4FPJpe2e5WCC+Ik4YFb1M/ECcLnXoVgfX7B3jy4PwOGg6K0vCD/Uo5qDSy2KGcvl/L9veK2AbDHtwUYWFCnwoyJHCYMMkXoADA9NIE6vIiJsi39+5RdrmLZ3OALFkpDkecHFO1vKRljqkL4wAjQbTXf0nTSmQva1ZNeSBOtB7wHlzFYhPAK0nzt/rnLeOgZ5n4DL4BJb7YUElmhniAAAAVmVYSWZNTQAqAAAACAABh2kABAAAAAEAAAAaAAAAAAADkoYABwAAABIAAABEoAIABAAAAAEAAACgoAMABAAAAAEAAAEwAAAAAEFTQ0lJAAAAU2NyZWVuc2hvdHaG3RgAAAHWaVRYdFhNTDpjb20uYWRvYmUueG1wAAAAAAA8eDp4bXBtZXRhIHhtbG5zOng9ImFkb2JlOm5zOm1ldGEvIiB4OnhtcHRrPSJYTVAgQ29yZSA2LjAuMCI+CiAgIDxyZGY6UkRGIHhtbG5zOnJkZj0iaHR0cDovL3d3dy53My5vcmcvMTk5OS8wMi8yMi1yZGYtc3ludGF4LW5zIyI+CiAgICAgIDxyZGY6RGVzY3JpcHRpb24gcmRmOmFib3V0PSIiCiAgICAgICAgICAgIHhtbG5zOmV4aWY9Imh0dHA6Ly9ucy5hZG9iZS5jb20vZXhpZi8xLjAvIj4KICAgICAgICAgPGV4aWY6UGl4ZWxZRGltZW5zaW9uPjMwNDwvZXhpZjpQaXhlbFlEaW1lbnNpb24+CiAgICAgICAgIDxleGlmOlBpeGVsWERpbWVuc2lvbj4xNjA8L2V4aWY6UGl4ZWxYRGltZW5zaW9uPgogICAgICAgICA8ZXhpZjpVc2VyQ29tbWVudD5TY3JlZW5zaG90PC9leGlmOlVzZXJDb21tZW50PgogICAgICA8L3JkZjpEZXNjcmlwdGlvbj4KICAgPC9yZGY6UkRGPgo8L3g6eG1wbWV0YT4KY4NG0AAAOf1JREFUeAHt3QncL1VZB/AhaSNCi0yiDdNQrgqmKCRBN0W2UotSisSE0hZQApe8kHJVCrcWFXBB7eJSuWRoirkBIYiAluGSQRZmpVRmq+3Z+z3xvJ2ZO//5L/Pf3/N8Pv935p05c5ZnnnnO9ju/s8c3f/M3f7EqUjSwIA18yYLSLckWDSQNFAMshrBQDdQM8J73vGf11V/91QvNUEl8PTVwhzvcoTrkkEOqPfbYo1bAmgGee+651ZFHHlkLUP4pGpiGBvbdd99qx44d1Vd+5VfWoqsZYO1O+adoYA4a2OPkk0/+4vbt21NS27Ztq/7mb/4m/b7whS9Ur3/966tHPvKRrdl41ateVT32sY+tvuRLdrfhK664orrHPe5RfeM3fuNuz95yyy3V5z73uerwww/f7d6//Mu/VB/5yEcG3rv88svnnp9lS/Md73hHdfzxx++mOxdm9U766OA+97lPdde73rX68i//8urud7979cd//MfVf/3Xf1U333xzsq89ucQ73vGOmwUS0P977rlntffee1d3u9vdNu/lJ55zr80AGdEBBxxQfcu3fEv+SDr/t3/7t5SZtnj/+Z//ORnnoHuLyM+ypfm1X/u1c38nfXSgTxH2xAD8/z//8z+bfY098nHA17zmNdVv/MZvVCy+SNHANDXw9V//9dWLXvSi6rTTTqvUriG7159xpxyLBuaggTtsuMedkc7f/u3fVjfddFPNQuNeORYN9NHAf/zHf1T/+I//mNqAX/zi/0++1argPgmUZ4sGJtFAqYIn0Vp5ZmoaKAY4NVWWiCbRQDHASbRWnpmaBooBTk2VJaJJNFAMcBKtlWempoFigFNTZYloEg0UA5xEa+WZqWmgZoDf933fV5k83orykIc8JE0TmSramJ6ciQq+6Zu+qfqhH/qhmcS9CpH++I//eGUuO5c9838e9rCHVb//+7+fECn59WU6N59oXjGXv/7rv66e+MQn5pfGPmd0QBB+n/3sZ6tPf/rTY8cx7IH73ve+1Q/+4A9Wb3rTm4YFXcv7D33oQ6sbbrih+ru/+7vN8tUMcPPqkp98/vOfr57//Odv5hKKpq/s2rUrRQGMUWR+GlhJA/z3f//36k//9E9309Kv/dqvpWtf8RVfke5/27d9WzpCeh988MHVU57ylOov/uIvElQMJu3iiy+urrvuut3iaV7Ya6+9qnPOOWcTBiXtnTt3Vv/5n/9Zfcd3fEfyvuBp5jh5z2c+85nV3//936dofuqnfqr67u/+7gRBgrXMRZ7OPPPM6qu+6qtSXG984xurt771rSkIWJw0QNrA2WElH/e4x6V48jhW/bzWBlyVwtz5zneufuVXfmXz9wM/8AMp6wzv4x//eALUwiMySFWq6pWBfOmXfmn1dV/3ddUrXvGK6p/+6Z+qxz/+8SMV+WlPe1oCVTKQ3/zN30wGrColDOX6669PRvfyl7+8krcnP/nJ6Z5zYF8AD8/6P8TaCB8Eo73kkkuqz3zmM9UGOLjaf//9UxBgX2XQ5HjGM55R/cEf/MFu6ykirlU+rqQBAjRC7sQvvI0Xcc0111R/8id/UqmW3/Wud6UXfJe73GXzHUF5v/e9703G2QTjbgZqnHz7t397arcID5z5D//wD8mwBPvABz5QMTxASwhw6Yahfc/3fE9K/4ILLqguu+yyhASJqCHGfRBveMMbUn7OP//8dOvoo49Ox3zxjvJceOGF1X//93/H42tz3HMVSwLS/wu/8AutWYe4VjXmL4uXUuWSj370o+kItU0e8IAHVO95z3vSedsfHpMx8K6HHnpoCqIJEO3OI444ojrjjDNS/PLFSCMtSxwinAdV3QcddFCK4xu+4RvSkXckoEqeC+NlmPe6172qs846Kxmx/P7iL/5iCrtOf1bSAPu8gOjlOpJPfOITu0XH2EKix6ZqV+035ZRTTklVfvTCX/ziF1fajOTP/uzPKt4zxDBMCO9N3NdulKZlEOHNpfuEJzwhwdlVzdqR1tHwuOskK1kFe1nWMMevbe3JoJd04oknJi/zIz/yI8lT6pTkoqNw1FFHpaEe3kx1b5jHEApvSaxvPeGEE9K5tqSqVNhjjjkmtTHTjY0/V155ZepAaC9akBPez32LcrT/tF95PZ0VEgZmXPLAAw9M1X1c01lZN1lJD3inO90p9RDjZeghGuQMyRG3rjGiEM/yUuTNb35zXN48/vqv/3r1Ez/xE6nxf+utt1Y6IM95znOq8847r3rSk560Ge7aa69N59qUerI6PNI1RKTKJ3/+53+evKCVhX7/+q//mq77oxq3BocHjfzozHzsYx9LYfSu9XqjLKpvbdd1kxoi+mUve1kaiHZcNznssMNSe8oL11m47bbbagYxSnkZr0FwhqWtmYseq+u5scf9aEc2h2HcN8Ri2eJf/uVf7pYfHRu9YsanXbvqYgRB2z3a38qzkh6w74vg2SYR7bNoozWf74oz2nvNZ/yvs6SX2yaqd+to11lqbUDKNcSwjsLDmGaMHuo6lnHZy6TZkTdD5LdWBS97AUr+1k8DNQ+4fsUrJVp2DRQDXPY3tOb5Kwa45i942YtXDHDZ39Ca568Y4Jq/4GUvXjHAZX9Da56/mgEWjug1f9sLLF7hiF6g8kvSVVU4oosVLKUGCkf0EM7qPvzIk/Jkd6VZOKJv/47g34A6C0f09HXQxclcOKKX0pGXTC27BgpH9LK/oS2av8IRvUVf/LyLXTii563xkt5IGqgNRI/0RAlUNDBFDRQDnKIyS1Tja6AY4Pg6K09MUQPFAKeozBLV+BooBji+zsoTU9RAMcApKrNENb4GigGOr7PyxBQ1UDPAZeOIxmaAvgKWbBqCveC1r33tbjzF04i7xDFcA1PniEbojZAnl+BTwUoahOdoJdAxYJcah2Lix37sx6o/+qM/qlGt5RzRWAUwUCGclO4rX/nKRHGB0JE8+tGPrnxU+F4wjwqDLg0xJb6XIvPVQBtHdM0DjpsdrJ+oa4Mrxfkv/dIvbUbD2NDMvv3tb09Uts5HFeQ8kB9Bu5s/h7oMuyhiILwqyISagnWK8b3tbW/bpL0VBlEkdiu8K0UWr4FeBoi7BHEOoh7eyHlOwIOoB/8eUhokkOBbCH5GEcSPqBxQ1zbFvCIWe14N4WRw/UW44447rjrppJOqK664IlW5cd3x937v9xLh5P3ud7/8cjlfkAZ6GeA4ecbLQvDkjSLIHLGGdglePu26nKkKHzR+ZYaPOrcpuEl8LDlxZDNM+X9+GthzXknhzSNBQTssXZ4S5W2b4Hx+6UtfmthD3dcUCAGUZWCqZjx9vGhTeNCcN7p5v/w/Hw3YtGduHvBrvuZrUqnQ0Y4imLrueMc7tgZlVFjjL7300uTtcqJJTYAdO3ZUX/ZlX7bJVt+MxL1R89F8tvw/PQ1wAnMzwAc+8IEp59qJo4g23qCOAuNEovm7v/u7u3k4nlanSFtPLzxodSNNHtKwziBOvghXjrPXwEUXXdTPAHkoa4lxFyPYdr7ffvtt5tx6EUagTWa/jFs2FgCNyj+IF1kVGmzym5GOeKL9h7oXg722Ygiyb7S30SaN6+W4GA308oDItw2toLxlLM5tKxDixRsPRLjthT/rWc+KW0OPH/rQhxIbqbHASUQP/Fd/9VdTvnJu54c//OGp56wHX2TxGujVCXnVq15V+bXJoH082sIOumbfNuzxqkwdCxLbIbQ9kxOVu2/w+4d/+Ic3g9q6S1vUh1JkOTTQywBnXQTtOL9pifan7RmKLI8GalXwOnNEL4/Kt25OCkf01n33S1vymgdc2lyWjK2tBooBru2rXY2CFQNcjfe0trksBri2r3Y1Claj5oCfM6Bsd8hFioFrmz3DBNrmKkfF2EP3YQ97WLpnTtcOSE0xA2OQ3L02MILw0DbAtLZhLTIfDRin/dSnPlXbLanmAb3YBz3oQWPnBigA5g+AdBoCUgXjx0ACVR3x2vjPPUbaRGNHGNu5QloYeB4ktl9lpEXmpwGIaLNmudQMML8x6jl8H69pfhUQdBqya9euNIUXW5XmcRqYNr0X8K78XpzD/JntKN4tNLK8x94zIccee+wmchnixfoLcvDBByfYvA2hgUZtEnjxxRdX1113Xbrv2lOf+tQ0NWbe1ubO1nb0Fdvax1d2wQUX1HZEN60HjCC9HLktTfm17y9ghaUEMIYQ1yTmuW2MbVoQyMFevuIp0k8DvT2gF/fJT36yuvHGGxPIM5AnYE/OVZkMy+S/xUBEG42Hch+w9Oqrr66OPvro1C7rV5wqzU2Lk9HIQwggLETOTTfdlIwrB8buscce6WPhcS+55JK0DODkk09Oe/V6HprHB2NBlAVPsIieKdJfA70MEBzLj1ezm7eXwsPkYuGQexYXMQjh73//+1faaeZmdQasVOMh7SreV+D8/vAP/3C3aHRqGBivaGFSvg8vLmcfwxve8IaU1/PPPz8976MgubGJ/8ILL9wER6QA5c/EGuhVBat+iZ7pgQcemF7wUUcdlRYgRY4sGiKxSzaAKCMkaFv9iCqRIc5Ktm3bVouf8R900EEpucAc8o5Er9sHEV6SYSojqBkjVhZVfZH+GuhlgIcffnjyBLEqzVqLZs/TPfD3CGOxkPUaZNdGZ6PNW+XF4inbhIGoZkcV64fzhUg8b0jsaO6+vEoTwBY4g1gG+oQnPCF9OKpmXl7ZgWaL9NPAxFWwxjjP8b73vS+9HC9IJ8OLy4dOTjzxxORJwKA07nVKPvjBDybD1baKhr0etPW6ufCKPCovmbfnhLFg/Vu/9Vsr1ecg6H4el06OPBt60XMP7yfMzTffnDybtcS8ns4KCQMz5MPDQ3PHNZ2VIv01MLEH/K7v+q7UNrrqqqs2c3HDDTekF+mFRW/X6rYXv/jFKUwsHjJMwlh/+qd/unre856X7qnadB5y0aO26Fzj/9Zbb62e9rSnbd7+7d/+7WREz3zmM5Nhn3LKKakna3F8yM/93M+lU2OU2n28oHamX751vMFqFCDiiLxef/311cc+9rH0vAFxvV55JKpv7doi/TWwx8ag7/9pdSMuC31A5x37Cl4XbSYv1bDIbbfdVnvpEb+qkNe0kGgewxp65ToVzWEY+eEhNQ/MoOQG6h4vu//++yfjG4dexLNF/k8DHAGkfPQHXJ3YA46jVN5rkKiS5ynR3mtLE+x/0Go5w0h5z7nt+XJtfA3U2oDTRETzIrypzkKRogEaKIjoYgdLp4GaB1y63JUMrb0GigGu/Ste7gIWA1zu97P2uSsGuPaveLkLWDPAZeGIftSjHrWJRFlu9ZXcjaOBNo7omgGOg4g29WZgMZ95MFuATqOvmBJrTsv1jbM8v3gNTBURbdaAmPfdZ5990rlrOXQpXSx/igY6NNBrJsTcKAQM14oBvykm/r//+78/Ye1ArRCYAxFgrzdfDHVigp/hOs8R09Z7CAe8ar45nx4EhQLJB2QwtWaw+/TTT08wqp/8yZ+sjjzyyE00C2xfzLaIU57Awcx6IE8PBHcz7+X/+WigVgVPkiSSSFD8JmyKcZj0NyMCEc0zBpiAAVjRZjETsILJfVNkqt4QCBg4PHhCYNJ8wZNngFoZv60ZgCDEz9iFvfbaayvkhwwbP2DIj/7ojya0s2YDVq+AW8X9cpy/BnobICMBIgA6yEV9T3ACYsiHXoHfO2AD2k7MrTJeXvSaa65JkKgc4sRTvuUtb0mT18IwrFx4Pbx/4oZg4Ul5OEABgFIfAJZVkC0fB0/K6In70CyXX355HmU5X4AGehugqsyaDiDNaBcqx7777puM4Qtf+EIqViCjA30cfH9umiNkUPnz1pmEiAMiOZeoVvNrYcCHHnpo5YcLEMBUG9VH8lu/9VsJCwhSz3PyokUWq4FebcDIOiydBT/53hs8knUWfrxSIKKhi0lg6yKO5jFHLPNguUEK2wbft12DeHOW1jzeN73pTZWfZQE/8zM/kzB+mFiLLE4DvT2grPNQXmR4INcCOWwlnPacIR5eT3tvFLn3ve+d4P3GBHnGUYgqoW+0D41negZ+T0eGQFSLywdh7Yf2nzZkkcVqYGIP2PRgGvWqtBiGsdaDUeqR+gm/a2MNCG/YBJ6614xPmFj4A6PXVuU2Vaezg1WB0YXhoRmxQaH2n06OJQJEtR/o52Y85f/5aWBmiOgowl577bWJJG4aXoQZdLQ+g2F2gUjbnlVl63xo/2kKhPg4VO3am21bgEW4cpyNBhaCiFY9D0IZDytmG2x+2DPuawu2oZcZs55xkeXRQK0NOE1E9PIUseRkWTRQENHL8iZKPjY1UPOAm1fLSdHAnDRQDHBOii7JtGugGGC7XsrVOWmgGOCcFF2SaddAzQCXBRGNXjefimvP+nJdBXaQ72D+Gid3wLdHHHHEOI+sZNipIqJpAAzL4GLzF5Rrk2oJZg+H87Qk8ol8MgS4Qb6n9eINfg/jpY60m8dHPOIRtU0Vm/fH/d+0o1keiKBlkjZE9MRTcQoW024veclLagO8485czFpJvBPB7wK1Y145kDdxr28egpcaAdK4Qn/jUM0Nix/XjlmkSbzxsLinfb+XAUZmzC60gQy87FNPPTXh8QxC2kQaWJR48daVQKZQmNmL5z//+ZuMVMiNTjrppGTk7373uxN41XO2X/3e7/3eBCoAbjDn7LnmXLKwTYGgQRPXBmx4+tOfnjbcZpjmq0G3MGqFnHDCCSk/DEW6mL6EIYN4qaGxETPxjnTkXB6kZY5a1Xv22WenOPDnnHfeeencH1OYgLOBIqLfnTt3pryJV3mBLYQz6wN3aaoTkxgYGgEAdg0nY2yfOwilnh5YwJ9aG3DS9J/ylKekzaFtEB2bQ2vDoV8z5+q6Y/DuSYdhfud3fmcyoGc/+9nV+9///oRkiTwgukTvi7sPd2B4W4YLqIqr2REELAAG8eyg49ve9raUBrq1ppgyBKjwkr0whh7YReteHvOYxySGL8sKLLzKOQk918ZLzQOJF9Wb6hB4l8EEWNcO8nRjyjFHfMsb48HUhSxdUwGQl/EQ8SLT9DED+tqpPhZxiQ/ekdDfc57znESP7P8ulLr7i5CpGKAqF/2aHwAACaOAbPYVMyRQKMyiBL8gxYfXy72j+4jAGYwXy/jAs4g1HNZyeCEQLrxRk5U1BWz5wwv91V/9VdW2CzvDAtNCXKkcBCklAfXncRgFMnb5guwJMdc9iOnVvfD6PhjTnWFsjFM58414Ik4GBjupPbf33nsnUMX27dvjdvqf4TNqHls7l/CUsT2F5gCOQ2UmYfiDUOop0Jz/TKUKRkDerIJ1RLy03NvwgsF0qlqC3xskvBCJXZvg/AivijXVy/PieMRx2k8MR9UWNMEp0o0/iDJBuaBnghtQHgl0N2MYF83jWcYBdxhNBB9MLA1wv02Cw1D6kN1EEyYH4eZoHs2X3CO3xelaF0q9i0JvUHzTuD4VA2zLSCz4USW3vTgvhRcbR7TPGN9Vt6+SY3yve93rxokieTnG9PCHP3zzOR5U9RTkiaqzHTt2bFb7DD3aYpsPjXgShjdi8BQsUOM8WdtqQ4HadNpMQ9s6l2Eo9TzsvM6nUgW3ZTa2bdDR8HVCSz92gxM6vlRVs0Y0Q2BI2oM5t3RbnJTOg4iDJwWrj7ZhW/hB17ThcvR2hFM18tzNKjp6zVEW7dvYISCeneZROXl+Q1E6acRHoSM0iljwxfNqO2tzho76otRHSXvcMPVPZMynu75ubZt3vvOdaaUa4yKAoBrNRG9Nbw7rvJ+4XvjCF6Z7/jS/cP8Lo0dMsap9Slb9DJNmPhGrMzJtK6L5oK2meidR7cdzPiZtUGOGMW7ICxMb9eTsEDkvdQqw8Sfiif+jbHSQj5nqbCiPD1XnQa84OnWejbZkxJMfm2kgZdfm005Ef2xXqi6Ueh7XPM9njojm3VRx2i/RQckLyBPxKHZRHMWYPKszo4dKsSGq52aVE/e8cMY6TPQuxT1oHNM9bUedlBxpPSzePve1fRmpso6qn2Hp8YrBdx0fw7BnpnHfBxbNnIivlweMSLqOCtiFiLbvWht6uStOxpQbn7DY8m2/0CaqJLw1w2SYUUlXb36eoi0d7elppasD1/VOppXOKPHUDFBBh72EUSJdRJgXvOAFm+3LZvp6kEUWr4GCiF78Oyg5aGhgZr3gRjrl36KBVg0UA2xVS7k4Lw0UA5yXpks6rRooBtiqlnJxXhqoGeAsEdHG+gA2xxXje3j9Yi543OdL+OXRQBsiujYMg0AIQCDfTK4r+9hIm7x9RuRh7ppiWgmcCDvVOGJCXr7Qu017PGycfJSw/TVgZgaZaMx1i7FmgJMkweDOPffczUfnObK+mWg5WVkN9DZAJW9CsUIbAKhQ0YyyyfPShUD2jH2CTa01Zzwi7nJcDw30NkBIixwyhBParIQ1Cdu3b08T4JAv+KJzMR1kolx4VTMEMuQwnNtpp52WqluQeECFIuurgd4GSDX55H2caxuqni+44IKkPagRaOMQCGRGChltch8UCwLZMwCmENLaos7B4YuspwZ6GyCDiQUvuYq2bdtWQ/CqpnMDHIRADvwbKDkJeHkedzlfHw3UhmGmWSzrEcB+QgzDhAQC2Woy7cRdt6+vUJ2H4QVaugmdjzjKcT00MBUDtCor/1ENQKQxPO07MKnc+4Xq2hDIPCXgqmoXDi6Hzsdz5bg+GuhdBfNaljLmAm2s98oL6nz4xUIf4YYhkO0fYlAcYhhesMj6amDmiOhY4dUchqHSLgSy6tuzZRhmfYxvIYjo6BW3qbEL/GqYphhfm9bW61qtDbjKiOj1ei3rWZqCiF7P97rSpap5wJUuScn8SmqgGOBKvrb1yXQxwPV5lytZkmKAK/na1ifTNQPsg4jGVJDTTOQqeshDHrJJdZZfH+W8DyLa5omgXcsgk+qAXtdlNqgNEV0zQMjjBz3oQWO9Ly8YQxVIlpmLl73sZbs9b+fK4Kbb7eaQC4GItvnguIJJdZRlAMiK/IK3TzrKNGjf4XHzIfykOkBv14YwnyQP8Qxyz+OPPz7+nduRDWCJzaXXVNx+++2XCH1w+YFXYaxC5tgUtBnLDKcP9iggWCgdgtOG952WTKoDzFzTptEABgkSzmmVb9J4ehngKaeckvB74Fh4U3CwwPGFPHaD5SnWjJjf5WVCXvnKV1avfvWrN/maL7300kRXi1WrCxHdxRENO+hF85YADWZTRt2UGnkSb4MsqTn/3JWm8gBi/OzP/uwmKbj1KwFRG6QDHlG1zMObEWLszi+++OLquuuuS2rCAOZDoFsfR4hpykH80RZwYSPzDAfB0ACE7bfMo6M0RrIELAyLSUfW9hCYzTPPPDPpwPPogd/61rdGsjM51qrgcVPAsER5Mtsml19+eTIqSsyrN2EpMbgC/c94gi4tENE2oDYfnIu4BnFE489jfCh8cU6bax5V0PMyWgbTlK40Gc3P//zPp+UDPiIUczgMQwbpQN4wpXrGij8ADdOWNtUOwffMGJtchl380fvss0/SmfcCcQ70axsIolmB9s378pE4R5FM1AK4vuE7bWcBmQ6N7h3PUnoZICPqogzDs8ejebGjiq82ENF4+YKJPp7v4ogGZgV6sEO6rQ9yBE48P+ho3coVV1yR2sA8RC5dafLw1q7Yl4OXRwLpxYZ06UCN4Rkv/ZprrknMW7mx4fNrmw8fxh8tbR4Yl+Ktt95a3eMe90jZkRd4Sx8IY3ce1bswyo1zmt5xN5Kjjz46HWf1p1cVzH0H5/O0MjgMEd3FEe1rzaneGOM4+WNoFN5ch9KVpkY1AxpEUt6ll9xTmif1oQ5rdwa6iOcdxB/tw4taiSds1iJteYodAdQEBC2x/PCgs5ReBoh9XZuCxxqXAo3Hia895/XLEdGqpRwR7eV0cUT7qnNl2y+jy0M3FasMFkblX/2wNBm56ksZwps04x30P8MdV2JNbRd/9LA4pdsk8wzUEu+KSJSBCzPrzmOvKvg1r3lNUr4lltpzxgGD5naYEihSY1nbMF901IWIZrRdHNEf/vCHU8NbZ0LVmLcxh+Un7mv4U3z0jIelie7XC1VuLPuaJTbYmZXIj6p0Uv5o+YpFYLyb9i1BvKkc2qCux54uwSudAs3gTy8P6EvRYNVpiH3YuPwQvd54kUceeWTlp6DGofBH67Hp9VEooVwyCBFNQV0c0fbvYHjB0zyuV5a2dpnVeHqEZFiaPqRdG2tafETRoKcXm8SQQTrIt1kQTjp+IU3WCWBOgph9XP7oiDOOeLr1qrVbVbN65HTFoRjZcJ2oDaJGimenfZwaItrXT4G6+6OKRq8qs/kyPM+TuNfWCPdckyM6T9OWC6rG6IT4CLr25hjFUIelKf0DNradMOwTG8PkeZrF+Sz4ozU5NHus1w79TSvvM0VE24VoXNFQbjM+8XQhoj3XZpiRfvOeauVRj3pU3N7taJxvmAxL0/N6nPMU7bNpt9E0ccZty/Ypc60KVpi8Cu0T8TI9+453vCNtsbVMedqKeVHTNL1qrQreikopZV6sBnr1gheb9ZL6OmigGOA6vMUVLkMxwBV+eeuQ9WKA6/AWV7gMNQOcFBFtjMwYmGORooFBGmhDRNeGYcbliDZYvHPnzjQFFTMeZjhMZxUpGmhqYOoc0UiIoEFMDcGXHX744RPNvzYzWv7fOhqoVcHjFtsmyqa8QJGMoNvP1jxuCGTzro15UlMwgJex1+697nWvNO942GGHpaAmv3nNmK0wDwsx7Tnzk+uyKCf0Uo7/r4FeBghsCkCKaJKxRTUseoSUECKm2iB7HQNhYYIbbi92ILcxszlUWziIYxHI3P9XSTmbpwZ6GSCvBq5j8pqxgYAHSPLEE09M5UBQfre73S2hYHRSVNPkuc99bkJgQMPsu+++1bOf/eyEhlkUMjdlqvyZuwZ6GSCwJ+9m2WBAeECzCGwgdAxsHqNEQs4LBkLZ5D5YEKPUfgwUzaKQuXPXfEkwaaDWC+6jE+0/q8Ni/W+gNJ70pCdt4vzy+KGhATetQLv3ve+dnrW8c1HI3Dxv5Xx+GujlAU8//fTKSjReDSRd9RqGZ2GL9ly08xicFWeBUjZ8A4AKYAnKtWPHjgQDXxQyd34qLynlGuhlgAwPElgP1ioqBhXIaB0UY4KM0jW9WmstQMDh7wBYLQIH0dH+A4S0vDGQuapi1brn54HMzZVSzuengRocC62GzQrb6DUGZcmCJMZknQE4e1MYnJX4Fn6Dqo8qs0TmjpqHEm66GpgJIprH6kLQ8opd9wcVcd7I3EH5KNdnq4FaFbyuiOjZqrDEPqoGCiJ6VE2VcHPTQM0Dzi3VklDRwO0aKAZYTGGhGigGuFD1l8SLARYbWKgG7rDBU7czcgARbVwvqDLi+jIfUc3icokpvL55DXS39atNWjmD4w9+8INrDFyjpoeMUtyf+9znNh9xDZWI+XL5x0i1zgIR/alPfaq2Nrg2FzwuIrrJX0J5AAijchqbRcFghdRxUoEhvOGGGyrzyH0EG9SznvWsCq1HCHTPu971rvg3GYqyTcIain/lgx/8YEIFRYQG8CGF/AzST8IuEXGtwnHqiGiFZnDnnnvuZvmDYGjzQseJGZImc2pH8JnewjoK3Y3r2mwQz9Sk6u3D19zGEQ2sS3Lq4nRhC/2pecBJy41SrU2OOeaYtGE1OlozG6hzkUCqegATgqMO6plgtULsg+4NssZ0HNgWltTLLrsshQF0BWAFajBwHnG4adqPIUFcO+dVgB6G0Y3wftJDtXbjjTemdN7znvekY/wx3y1O+cn5mk1bXnXVVZtGJG15AKqVvnIyZgItvpWNLXSZH3sbIMSLLRpCsCohxSbo12xaDXwKtKp9SVSZXs6pp56aDMn2DgS8nyAmUv2Jy47rwAsACfCEqn1MV7zH9u3bE79yemjjjy0ZwPkZkrlppETgYOjgusSKPsLzDRK4R3yGkN+5yLN8hGFZPqDtqHwER7QlC2efffbSePs8/4s+722ACpB3AOKctwhKNI1r8KwQoAWwfAAFYZocdKpB60SwuAeZ4oEHHpgMkLHgU+ZNYBADfSNuBqLavOiii1JScIYYP4eJtMjnP//5gUEZUXOPC4F5dczyALg6b9u2bUsfWETkml+zQxP3t/qxtwFqA8aWBLkytQVVnfYNufDCC5NhgN9/6EMfyoO1noNpaaCrOoNNSTWJAV5PMsANDDl/sVj28x68cKrWYRLP6BCNK1jszzjjjMREr5Mhf5DeRUbTwEzHAS0y0vvj0XjExz3ucbvlKl/I5KaOiZ6ohU4WMalqiXA8qbYk4ySq9LwNyFjzTo1wwg8TQwM+pAc+8IHDgrbet+7Fs3Zm8lHE8oLWwAMu+sC2okzFAHmZ/EeRwKqGSHgEzOs6DM1NYwydMBhoagaai+uqNWuPc9EuVNVixG8aNEPgJTX6Iz/RrszjaJ5b22KVHvCrnzwfe+yxm8tIm+Gb///O7/xOasvqgGirjivyiHxdeWPNzLhxrGr43lUwz6SnmQuj0bbTCYjVcaA4sXApwhpjszcdRLR4nvrUp6YNW1SdQXYe1SMPRTT2hfvlX/7l5N1yD8dbavfFzj/SjA5OpDnoqKMkH3Y8CgmGh+Z4J2AlsZwAR7T2obR45OitRxzyG16+yZMdYYwM6FnL660bLKt60VtFeiOiuxRF8YZNtNP0YMcRQzc8UXRq8mcNz9gRyctqG3fELc2TxMCufESHKI8nzhlPiOc0ATyrN15kehqYCSK6K3u8VhhBV7i2e11jd7zeoLFHcTWNdhyOaO3IfLObtryVa9PTQK0KXldEdOGInp7B9IlJTROjGhFPrQqOi+VYNDAvDdS7nvNKtaRTNHC7BooBFlNYqAaKAS5U/SXxYoDFBhaqgZoBTsoRvYgSGNs7YAOYYOajyGpoYOoc0fhekA4Z7zOdZbjDjtvmRcGPzIvGdJlpKjg/syFQLLaPN6Ccy5Of/OSR5lHNEeeEmAAOdqpszliIW95GRWjneSnn09fATBDRNgZkTNZKmHYzMxGT8UCjDAWSOIwt5nyxYSGmBEK1zer73//+kXaZtGxg+/btacoL2gZM66CDDtrUFoObFKG9GUk5mZsGalXwJKnyfOZCgVJNt0GEhMD7DfI+DDdmM0zGO2+bVou44qiZILxpHehkWEKom1zEFT/TdUWWVwO1mZC+2QQiACIN4dmgma36ykEDcX+SI8wf3N0g0TYchNAe9Ey5vjgN9PaAedbN3zIAIAJiHtgajyakKn9m3HNVubZll5gLzn9dYcu9xWpgqh4QgkUbTNUYAiJ1zjnnpDUhca3PkScNltW2eKTfhtBuC1uuLV4DU/WAGO6bECZgVJi5ae31oV05yjqPxau25GAUDfQ2QPg5wy5AlBC92n1NAco0XJMLFDSDJRgHIJijp5yHa56LH1oa1F9Vj31fOzOXQEPHMb9XzpdLA72rYOsuzjrrrDQOqDdqQU7sgBRFtUxSO1AHIsRC7TC44447rvIbZRwQ/B1gVG9bj5jkyym1QdsQ2jnoNPJQjovXQA2ONQlH9LSLEGuH2+K1pkQbjxhPtIBJ9e5XZPk1MHdE9LgqUbVaujlIXvKSl6RBbfeNGcbyzEHhy/Xl10CtCl40ItrCcJQWgyQWKA26X64vtwYKInq538+WzF3vXvCW1Fop9NQ0UAxwaqosEU2igWKAk2itPDM1DRQDnJoqS0STaKBmgKuEiJ6ksH2fMWMzaErRrAw+RPPhRdo10IaIrhkgsCeullHENqwGFgENQqCfg6gxrq3CEVJXWe50pzttZhdrKw6aXMDKBuEbTUnSHyqSIu0aoOcmx2JtHLD9sfarMY1mLta6DNRprpkKWzUZNc9dHNEgYj7GSalIVk1n08rvxAYoA6bFTI9xrTkI1D1AAy/E+g10DAALNrg2JwxIgCcaJx4MIcN1bhYE4eMBG4uNeB+EkWY8rrzyyuoVr3iFaJPgDjRobU4YERHyI3FDykzCER3xdh0HcUR7xtqYID8yx53P0KAYRtKpipY/XIlo5IipRGxcwdB6yy23DKUTTg+u0Z9aFTxJuVDlMq4mwaL/zevGGhBomJjn1U7ywi699NJU7YHPA5AiERIemMALe+lLX1pdffXVaaPrvGpTVd7//vdPxu/l45zmxYIj2voS60Wgc3BEjyro2XxIfjnxpedxRPs4mqge9zC6YoGV5yij6z6QRz7ykYnr2gckjzn1mg9XeNtDiIMetpr0NkCr4HipU045ZSzdqbIYLy+K8/nmm29OL5dhMV4vg9HxGjycF5mLa4wLm72VdjxpzhENmcOj2INjVLGJTCCpm89Y92IdS5tg0wqvlt/X5iEMTD4hhRgcD08Aa31wALx2mN+1Ad7datKrCqYsCGVeyuo3HmJUydeImCNkUKpiXoPwXn7EIiSGmEusvMuvTcoRHXHwcubDSWwdEfcmOVr1x7gCpPvRj340RaM3fevGYinVuqbD+eefn8pvAxwf9FaS3gZIWV7W9u3bq/vd736burNajqhuMdfHVx8BAlYV/8cxAAe8Aa8zSJoGKdykHNGD0uh7nVdWLfsxxPDGAR/j9TCj0g22VU2Qt7zlLYlttW/aq/J87ypYQX3hFofn7SNVKiOjVFXpqMM7Vrzxjo/d2OCFN+QVgVUPOeSQoTqdlCN6aMQTBvjABz6Qnnz84x+fvLlhGmWLtp4OCggakvRPfvKTqSkzytLUCbOzlI9N7AGbHszGMtpvMaThPqRy8CLnm/Q1lSxsxMeL6Q3jiNYwJ+7pkAwTXnMSjuhIe1D8TcYFY4YkOKKdR7mdh/DgPszQgXTkMRZtaSNq27pOJ+985zs370Uc636cOSLaF07hw5ZStima59Qb1fhvGm1b+LjWhyM64hj3aJAay0NulBHHXnvtlVj9eb5mOQzB6IyEV4xn1vG4EER0tHcmUWhbR2OUePRkcxmHIzp/bpRzXoyHsxWZNl9beTVR8rHBPF4dLL+tKrUqeNGI6Fm9hFlyRBuI1yGyZVfZIan7DRZEdLd+yt0FaGAqveAF5LskuSYaKAa4Ji9yVYtRDHBV39ya5LsY4Jq8yFUtRs0AZ4WIBr3CZLrq0oWIjrIZjG/uqh73uo5mfCCqc1BsV/hVvDdVRDQFgEIZXISCNrFue9Y2gf8LZEjb/VW51oWIjjLgrAELG1cggEzV2YRxXYUNTA0RHUpq44huUuYCaQbKJJ5bxWMXInoVy7MMea4NRE+SoeCIDp5oHiAMEKDA5tEE9i9fL9KFBoaRs+bkAQ94QJqKkwYWfHzQqNikAWFiYl+67plPlZ4Np83LQuGYmTjvvPOqz372s2n7VnsMq+LcN3gMeCpO0pWm+4MQ0fB9PjCeC6TMrEdszG2dSFeaqmpomJhulM5Wk1obsG/hTTflyOjLL788IYm9XHPCuXShgU899dQELmVcUMoQztE2EhfI0jOe8Yx0BAGLTbEZnXCm4qCtzcHGNhGes9s6SLzNqRlJvuioK035HoSIPuGEE5LxmQmRT3kIGZbmaaedlmoGaGnz11tRenvAXGk8Du/CCHkt2D4/nqEpORoYjAo2LgTRuflRno2El3Jud3GexfwrWD8vyJvmwmilj0lVu43AJAJ+IsbkWRlp/lF0pel5H0Oz/eK6uOT1ta99rX/T8oR0svGnK8399tsvoaNf/vKXVx/5yEfS+WMe85h4dMscp2qAvn5VoZc/TLrQwAw4J53M4wLTOuqoo1JVZyUeL5Ovw4C8ifR5ZDhE1bVwXrbqDmAgFhEFWLQrzTz95vn+++9f2+CaMfpAiHwNSpPhkvi4Pv7xj6f/t9qfqVbBbRzRgxQaaGCLdDDpQ6yEIakeD7h93UT+vKEKxnfVVVellXhtC44YlHAEnItB+umZMj7tRO3LD3/4wykMwySD0kw3O/7wpHn1aSVfSFeaYXhRTmiarSi9DdDXPowjuk2xXWhgVTLPgoWAgVhsZP0xLJ0qV/UtXdi7NiCohj3jk69YSMQoxaWNaNswnZVcBqWZh2k7Z8iqU1W9Dpe8hXSlCf+naaLatfZlEONCxLWux95VcBtHdChLrzcMJFDBoPo6EF1o4Be96EWpvXbyySdXfqr1F77when47ne/O0H0VeF5dRtpMlBekjE4f/3rX59uWabpuhV0RM+Y4QRAdFCawnYhopGmSwsYleRc1MPSNDJg8F/a2otbUWaOiO5S6jA0sDUmPJk1E9GuE59q1qxEeLdI48wzz6wOPvjgyhoMwyJWnoWBRRie1ZhkrFSL63EclGbcH3S0fkX7z5KCpnSlqaeuCm+WpRnHOvy/EER0l+K8ML9BwitYc9sUnq/rhfF8gyDu2ptdMijNrmfc68pPV5o+hK5nh6W76vdrVfCqI6KtqDMUVGQ5NVAQ0cv5XrZ0rnr3gre09krhe2ugGGBvFZYI+migGGAf7ZVne2ugGGBvFZYI+migZoBbBRFdENrDTcYszrQR2m2I6NowDEQuEAB0xjBhrJDObeL5fNNo4QyRmAWZpUBoG0gOQIQF6W10Z/PKzyzLKu5AaKN1GySwkwb8gWnHEeAM9oBSblpgYrNfyERz9oiaAY6TwSuuuKIKBAca3rvc5S4JmCmOZobniYg2qPu6172uevCDH5xwgmZCAiAb5ZtnfiLNWRzXAaE9sQEawY/ZBudedPwfyoY8GYSI3rXBEmU+1pSZZxk0D0ZMp5lW483MerzxjW+sur7ySM/RlB3snh/E8zQQ2uIFPD3ppJMSYsdMy5vf/OZEA8wLPfGJT0zgCJ5XmcLAlcPmizhuoF6AD4IHW5xPf/rTNzfqVk5zx5dddplbSQal6ea6ILRrbcD/K/b0/nYhorl4QAaABUgU7hmSBHjBS/MyL7nkkuozn/lMAiSYTx1XpoXQhsSBWrntttsSolqeA/UCQnb99dcno4P9U93ZeJtA7Ji3NtcL9YwhzDx1iA8Xrd3OnTurT3ziE2m5gTlu0pWm++uC0J7YA1LCMOlCRHsWJo5nsws6pLM1EozGS8O6+t73vre68cYbE6jz6KOPrl796lcPS7J2f1oIbSz3PgjYxSa4AQmlds2hhx6aENPWmjDCXCBylAWAFoYx1qtYHiAsNDbjZnSWr/routIU97ogtGdqgPlLaDtnbCQ6DaqsgCXddNNN6Z6XpupqvtR0c8ifaSG0cT1rODeNT/JHHHFEdcYZZ6Q8IuHk9ZpLEIIbOjp30NBIyxFwqgV8KIGiUTOQrjRTgAF/1BQ5gGPZEdozrYIH6GjzMuWHULw2ZHD7Wc9BXIdkbnZs4rmu47QQ2j6CWBTVTM/uAF6yoz0/hG1KcEPHUXVrHQsIlz1PdOK0iUngJ7vSTAEH/Fk1hPZCDVCV40VYaknxoPY5tzSv5+WQ4FseoPfNy7NAaOttGhcD5df2g1E89thjU5radZoM0j3mmGNq8PzIlFV7ymKbL52NnHjTwiiIaBv45NKVZh6ueb5qCO2ZVsFdiGiKU/XyAMSeHnqQRPuPRwn0skZ+rKFIATr+zAKhrf2Ge1p160d8LET7To9dr1R57OAUa1tSgI0/vGeURe+Z8PaaIBZZkdgdQBykK811QmgvDBENHasH6IvVZsoHJ70AHsdCHWt5o33E08QiImFy4Vna2mh5mGHnvBQP1xxOiuekL086DE3coWEWY5B5Hg477LDqrLPOSh+TJZ2ei7JEnNqp4o2mR1yPY1eaEabtuIwI7aVDRFNcfPlNJRpri05K3DOU0fQucc8MTrDqx7Vxj8MQ2ox80GwO+H+XDLrfNORmHF1pNsPm/3ehrJcJoV2rgueJiDa8MsjT5IrMzy384RHaZNiLbHtm1td4bx9Gs1c863SXNf6CiF7WN7OF87XQXvAW1nsp+u0aKAZYTGGhGigGuFD1l8SLARYbWKgGagY4KSLa2Fns7RulMcKPVmPQuF2EW6XjKBzRq1Seeee1DRFdM0AI2FG3VZV5QyIveMELEmwKvwk8XxiiAVuEO0GDNu/CziK9QCDPIu6tEGcbR3TNAMdVgrlN86KIJIEyGdvZZ589bjQrE978LMrfItPTQG0getxoTTWBINkTlxh0RYmWC7Bl8CcDbL7vfe9Lt7s4ok1roc/FtWdq68orr0yAzojX/LE5V9NNwJ4Gek8//fT0IZijNQdN0LDB8AG4Gqju4mvWVBjESy2uQQhkz0lDWs7NZyuz9O55z3tW5557blpjw3sGAPXaa68VZdVVTjM+4lFG05JgauiG86m+FMmK/+nlAUHm8znMT3/60wnVEpg2ugk0MHgR3r6QQRzRXiLFq95tUn311VdXwKg8bYjJfftxIJVU7QOEQtOYStu+fXsES00AxskoxDsLjmgklHCM+KFB6jVBgjiTESkHGJaPz7Qa5A8ZVk7LGRiopg06O4SeAdXaLOAanOzZpwyUm/PhBYVajp2zngOyA9jAVJoJf4ai4+IleCk5RzTDYsBAlYwOwpgR2VncGo8Q1+JFA3cSROGQKYzAHPO2bduScbrHg8yCIxp5prgvuugiySTUTGAZ04WNP/ijeX4gU8ScZFg5c2MzJz5oDjpFtsJ/enlAxpN7uzhXPYYEjCpQwcGNrEqjZEbhBcUmN6ocwojA3P0YLEPMJcfUxfXrrrsukVI+4hGPSEsWfSCxhy9vhDnfgiEdLav4iDBE3id5yXvvvXcNUMFYVJm5BB2w5koY1rByWk6qdoGmscrvnHPOyaNcm/NeHtCXr4oN0daDZ8u9ot4wYwkm+zDE4IhWzaDaxRFt+4VAx+zaQAhb9zBImgYZ4XhT7VAGBiwahprzNftw4PCsQeGFyaQc0eBVOds+PCIkTy5t7bZh5VRjaJOCaxnOkle0wqMCc/P0l/m8lwfkcShfZwTd7X3ve9/q1gYsiWHxZlbZe/EBExrEEW0BuxeoDRQN8OOOO6465JBDRtKjBU6qd50CQNYQXomxaR5MkyOawe+zzz5p+alOhx+PPUyGlTPYG3Rmwui0uddNenlAaGAbxagmCG8Q7bT46n3BGtKEhwsZxBHNSK2d5aEC38er6pCMIrwmD6zKzdfYDuNrlkfNgSYvtTS7EMg8NbS0METaUd50YeNPoJzjf0e66iqnXrNebzwLuqYtvW4yFUQ0r4LreBDQUTXbhgYehkDWCYltrMKg+76ALr5mcfMy0m3yUg9LV1PEuhAjAePKoHLy5PLL+HyYqy4zQ0QDsnatWmtWy6FIVVVXdRXttwg/jeOgjyTi1q7NlzXG9WHHfDhqWNjm/UHl1IadJC/N+Jf5/1obcJ6I6GVWSsnbbDSgedJcE1OrgmeTbIm1aGCwBmoecHCwcqdoYDYaKAY4G72WWEfUQDHAERVVgs1GA8UAZ6PXEuuIGigGOKKiSrDZaKAY4Gz0WmIdUQM1AzSPafS9SNHAtDVgLt58fqCBIv6aAULv2te3SNHAtDUAC7ljx440XZnHXTPA/EY5LxqYhwb22EB/fHH79u0pLQjimJ+1fgHaBRK5TVCrgUwFni4Pg/EeOylKsqbgAQTMhG1rinlYNLaD7iE9n3d+li1Ne58cf/zxTdWl/2f1TvroAAkpTCh00t3vfvc0tw3NDvzLvvaE4ACZChHQ/1Ao0L5BKxv34+g599oMkBFBwATqN55xBNuXRlu8QKaMc9C9ReRn2dKEv2zTD93O6p300YE+RdiTPPofsin6GrW5YMykVpSx+CJFA9PUAFAynORpp52WVgdG3KUNGJoox4Vo4A4b7nFnpAzTZnsE7b8iRQPT1IA1N5bmwjcGylv8tSp4mgmWuIoGRtFAqYJH0VIJMzMNFAOcmWpLxKNooBjgKFoqYWamgWKAM1NtiXgUDfwv87fL4Txp2y0AAAAASUVORK5CYII=;" vertex="1" parent="1">
          <mxGeometry x="310" y="250" width="160" height="304" as="geometry" />
        </mxCell>
        <mxCell id="PZrZSrdKlhRtxC-y3ePN-2" value="" style="shape=image;verticalLabelPosition=bottom;labelBackgroundColor=default;verticalAlign=top;aspect=fixed;imageAspect=0;image=data:image/png,iVBORw0KGgoAAAANSUhEUgAAAMwAAAD5CAYAAABrldrsAAABU2lDQ1BJQ0MgUHJvZmlsZQAAGJVtkL9Kw1AUxr/UaEEdOqiTQoYiVarU2Bdoi4jgEKrin0XSNKaFNF6SiPgGPoEuzg5ObhVdHLSDCA6Kgr6AeyEOWq7nNmpa9VwO58fH4fDdD4hBZ8yWAdQc3y3O55W19Q0l/oo+yEiQnNINj+U0bZEY37O7gkdIYt5PiVtonpwNv91N3khj1/ylKv3d76r+sukZND+oxw3m+oCUJNZ2fSaYGkMumSLeF2yFfCS4FPJpe2e5WCC+Ik4YFb1M/ECcLnXoVgfX7B3jy4PwOGg6K0vCD/Uo5qDSy2KGcvl/L9veK2AbDHtwUYWFCnwoyJHCYMMkXoADA9NIE6vIiJsi39+5RdrmLZ3OALFkpDkecHFO1vKRljqkL4wAjQbTXf0nTSmQva1ZNeSBOtB7wHlzFYhPAK0nzt/rnLeOgZ5n4DL4BJb7YUElmhniAAAAVmVYSWZNTQAqAAAACAABh2kABAAAAAEAAAAaAAAAAAADkoYABwAAABIAAABEoAIABAAAAAEAAADMoAMABAAAAAEAAAD5AAAAAEFTQ0lJAAAAU2NyZWVuc2hvdFuEV8EAAAHWaVRYdFhNTDpjb20uYWRvYmUueG1wAAAAAAA8eDp4bXBtZXRhIHhtbG5zOng9ImFkb2JlOm5zOm1ldGEvIiB4OnhtcHRrPSJYTVAgQ29yZSA2LjAuMCI+CiAgIDxyZGY6UkRGIHhtbG5zOnJkZj0iaHR0cDovL3d3dy53My5vcmcvMTk5OS8wMi8yMi1yZGYtc3ludGF4LW5zIyI+CiAgICAgIDxyZGY6RGVzY3JpcHRpb24gcmRmOmFib3V0PSIiCiAgICAgICAgICAgIHhtbG5zOmV4aWY9Imh0dHA6Ly9ucy5hZG9iZS5jb20vZXhpZi8xLjAvIj4KICAgICAgICAgPGV4aWY6UGl4ZWxZRGltZW5zaW9uPjI0OTwvZXhpZjpQaXhlbFlEaW1lbnNpb24+CiAgICAgICAgIDxleGlmOlBpeGVsWERpbWVuc2lvbj4yMDQ8L2V4aWY6UGl4ZWxYRGltZW5zaW9uPgogICAgICAgICA8ZXhpZjpVc2VyQ29tbWVudD5TY3JlZW5zaG90PC9leGlmOlVzZXJDb21tZW50PgogICAgICA8L3JkZjpEZXNjcmlwdGlvbj4KICAgPC9yZGY6UkRGPgo8L3g6eG1wbWV0YT4K31yXSAAAMapJREFUeAHtnQvYVUXVx8ckKhMLzahMgcgIUEGELkJIDwhBhSIBglxFRREUTSQQUSDMFEQkxFJTU0FEQQRBwzsieCvloiGhgGIZmaV20ay+9zd+6zjvfvees885e5/bu9bznHP22Xuua8+aWTOz/rP2Ovjgg/9nlJQDyoFYHPhIrFAaSDmgHLAcUIHRhqAcyIEDXoH51Kc+Zb7yla/kkJwGVQ7U5sBXv/pV06hRo9o3K/ifV2B69uxpJk2aVMHV06KXmgMXXHCB+da3vlXqYiSWv1dgEstFE1IOVAkH9gpbJfvRj35kPvrRj5rPfe5zZv/99zfPP/+8re6aNWvMIYccYg466KA61d+2bZt54403zDe+8Y06z/7+97+bVatWmf79+9d5xo1f/vKXZsSIEeYjH6krvw8++KBp2bJlZJ777LNP5LNSlKfc8ty0aVPR38nf/vY307VrV/uuW7dubfbs2WM///jHP8zs2bPt/Ur9ahBWcHTOj33sY6Zhw4b2MXMZ6BOf+IRp1qyZFRp7w/n617/+ZeO0aNHCufvB5TvvvGP23XdfE/aMEKTLszCB4YX78qSsCHGQSlUe+BZWzzR54MsTAS52ed577z0jbYb3Qvn436BBaHMLvrqy/h86wkiJBwwYYHr16mVGjhwpt/RXOZATB26++WazaNEiq2HkFLFMA9fVgcq0oFos5UA5cGDvmqHy4qiC/OUvfzHbt283r776alQQva8c8HLgz3/+s9m4caNh/lIN5FXJqqGCWgflQJIcUJUsSW5qWlXPARWYqn/FWsEkOaACkyQ3Na2q54AKTNW/Yq1gkhxQgUmSm5pW1XNABabqX7FWMEkOqMAkyU1Nq+o54BWYz3/+82b48OEVw4Ru3bqVFX6nbdu2plOnThXDvzQK+r3vfc8cfvjhaSRdkjS91nBf/vKXzXe+8x1z0003laRwkimYCmH6v//9b4NB5pw5cwzXLg0ZMsQ8/fTT5sUXX3Rvl+z6uOOOMwceeKBZt25dycpQ6oy///3vm9/85jf2nZW6LEnk7xWYJDJIKg2EY+bMmaZdu3aGhnjxxRcbBMmladOmmb/+9a/urZJeL1iwwFrqlrQQmnmiHKgYgfnvf/9rfve739nPJz/5SXPssceaT3/601ZAwNJ8+9vftoy59957rXWsy6UbbrjBPPbYY+boo482xP3jH/9oxo8fb8DSTJ48OWP+/tJLL1lBlJELeC3hxFR98+bNVmhJm3vEBVqw11572XKMGzfOjnqoYueee64two4dO8xFF12UKQ74oqlTp5omTZoY6vTcc8+Zyy+/3Pzvf/8zJ510kvnmN79p0wCL9Prrr5tZs2ZlbPmOOeYYazn+8Y9/3Lz77rvmF7/4RWb0+tKXvmTLyogGgU8iH6VkOeCdwySbVXKpMcRDqIwQ4LQrr7zS4mlokEGigXXv3t0gEPT6NCYIoFzz5s3NkiVLzG233WZxN/369bPPiDNlyhSL4UAlnTt3rvnPf/5jn/HFCPfFL37R3HfffWbGjBlWCPfee2/7nPQpD8CpYHkmTJhg1TTyfOKJJ0z79u3tiEnE/fbbz3zmM58xALAA1dH4GU0h8jrjjDPMH/7wB5s2v6effrp9xteoUaPsaDZ9+nRz2WWX2bpmHupFYhyomBHGrfGbb75p/0pv+qc//cnwef/9991gta5feeWVzOjwyCOP2GeHHnqowZoWABskSEGEhxELwNO8efPsKMDzDRs28GNHJhZESOfGG2+097Zs2WJ/+cIy97e//a1Bf5cyykNGJBCsS5cutbeOPPJIuzBw1113SRBbTkY5UIugTaETTjjB/r7wwgt2RGSeBrAOhCvlAkgHAI94hCF/peQ5UJEC07hxY8sJVKu49Mwzz9QKSk+OKsVI0qFDB/sMNQdkJAQMGzUJlSlIgvB86qmngo+8/8mPUUhGOAIzCjGyCP3zn//MLGYgwJQT+uxnP2vLg4AJMcqIsKN2nnnmmebHP/6x7Tjuvvtuc/vtt0tQ/U2IAxUpMF/72tds9VGx4hKNzyWwPhC9PStuQaIh08BR+37/+9/XekxDhQ477DC7KlfroecPAshHBI6gqGxvv/22J9YHj2Qx44c//KGd+wQjMKKccsopplnNqDNmzBjTt29fs3z5cjvXCYbV//lzoGLmMKgbLC0zwUdVoZcOCkEubGDCjRrHqlvHjh1tVCbrvXv3ttdr1661jZt5Q81BIVYNGzhwoH1GvjRyJuHEpWwnnniiPTgkWxlQAakH572xcMFZB646FxX/gQcesALMwgLqF4sX8IJriLkXwrdz504L+qN+fJSS5UDFjDCcYsMyMjo6k34m1UJgxhkNIM7A4oOO764S0bMH6dJLL7UrWPTaQrJnwgjE/GTYsGF2FYvnqICLFy+2QX/605/a8khcFgSWLVtmn1111VVWhbJ/ar6YE3EoBw2cOdGFF15omJxDCC2492zECMICQ48ePexKGuGZs0meCB+n8lBPBIWwstqXLW19Hp8DXsQlDY/hfdCgQfFTrMCQLE8zR9i1a5dt2MEqoOZwEsprr70WfGQn9fTyLB/n0qOjljFfEtWwTsIRNxjNWEImbnAOxwIDZclFVY3IJrHbP//5z20Hx281UMWMMGkym/mBzBHC8kEYokjO3Ip6HnUf4cyHEMrgnErSybcsEl9/s3PAO4dheZRD+JSUA/lygI6okLlmvvmmFc+rkqWVqaarHKhUDnhHmEqtlJZbOZAWB1Rg0uKspluVHFCBqcrXqpVKiwMqMGlxVtOtSg6owFTla9VKpcUBFZi0OKvpViUHvAIDSEp9XFbley9apdTHZdFYrRlVAwfUx2U1vEWtg3IgTw6E7vSrj8v8fW6qj8sPYBdAMCD1cVljuesCoCxXar5K5VMS69xyKo/P32Rafj59eaqPS2mhyfyGjjCStPq4FE7ob74cUB+X+XJO4ykHqoAD6uOyCl5iOVdBfVyW89vRsikHUuaAd+My5bw1eeVAxXFABabiXpkWuJQcUIEpJfc174rjgApMxb0yLXApOaACU0rua94VxwEVmIp7ZVrgUnJABaaU3Ne8K44D3o1LXDpwZm/YCfbFrungwYPtOcacXk95wo5+LbRMvXr1si4u2GwrNXHcLPxPym0Fx95yPpjvUMI06oyPS2zdOBK3Gsh78mU+Pi7dc46FQQ899JAp9KhQjkfF9QOeucgDtxBJE7ZzTz75pPVy5ksbUJ2cjSzhOMd46NCh9oBxnBtBnLfMSf84OMqlweCdgGNfxYeM5BHGW8LgL4c8cbDEwXkA/zh7mvxxgYEbDzoZOh3eRTFJfVzG4Da+WO68885MSI4wLZTwe8LoMnHixEKTKjj+yy+/bN314XSJQ8DxRiYnhMqh6BxWjoDTSHHJN3LkyNhnL3MA+vbt2+scX0va69evNytWrMjUAbd+rqdmTvWfPXu2PZydg9IRFggvaldffbU9qB3PBEr5ccA7wuSX5AeevIIHYgNVFSeuvHh6XnF5h7rAyfZ40+IZPSTqA74hgwduh5XJ5/uRk/LJG0dGjAIIsnj7In/yACJAz4zHMSEO/QYX1KZNG+vOgnIgGJSLdKifeHamcQdPykeoUKfwfEY8vFHjWjAOHXDAAZEjAeUM8lbSxDkUHglQgfCx6R7RyqHnCDU8VoERjuX+m8qkH8emOCmST6tWraynLFxWiLsIGimOWvE9CSEknKLP/IHeEIetp556atYaZfP9yPnQ+Iuk0eJUFj8uzA2g0aNHm4YNGxoEloZI+YR+8IMfmCOOOMI8/vjjVsg43V9cW0iYOL/kyXyrRYsWcYLbToROI0ooAGahbvG54ooraqWJr034yCgcNqojQHhWU8qfAw3OOeecWrFpXG7PVOthzD+oAe7EmfkGvR+0cuVK67SIBoHAdO7cuVaqvHTAaPifdN3T1Qrk/Mnm+xH1hPkA+aC+iDMjRrhmNWA4yoDnZfzCXHvttZmUEXp65Pnz59t7eBujTPkQcwk6gzjUtGlTG2z37t2hwekAqAcU9OkJQA1hQ6gWLlxYJz5zHeqslD8HGgR7PnwmFiowODzCJbZL+KWUlS0aECoMPld4wULcQ1ggXDrgJpxeP6juSHh+s/l+ZMKNBzHqJAsFCC9+JUlbXEfgUcxtgDQ+d6JOOFS7fAh1MK4fGDyIQYwEbv6SL4sSjMBhRF1x1cdEm8m9uBaUsLyDt956S/7qbx4caDB27Ng8oqUThQZM40KgULUQFFdYEDAIoZbGjyoFoS4FHRqxsgZ8eebMmWbTpk0Gl3yTJk2yQkrDIR+ECULvd+cwpO+6DCcc4XMl1Do6BeY5cejVV1/NqHC5Likzb2KB4ZprrrGLErj3cwmBwaenUv4cSGUOQ0OjN5ZP0PW2r7g4NkVYWFoNOh3iZTNKsXyLioOAZfP9SF6Uh5Fo+PDhtbJG7UH1+sIXvlBnvoTrbkYhVsKkHjIvIF/uscQNcY1wusTSM3sQslKFC724BA4f35v5ECPlrbfeatVQ5mtC8ICOhhFKKX8ONMg/anRMXrb7wjdv3lxrKZRGLx83FXrwLl262EbKtSwQSBji3HPPPXbFiYbOahf+I6N8PzJPQpXCsSskKg7pQOxrnH/++XbyTH7uCHJjzUIA8xYWBiDmZWwmQs2bN7eLCPZPzRerf6hzQ4YMyaidrFKRHm7+6PUlT4nj+6XBn3XWWVZgXRUqKo3gfVbjWO4+7rjjbIeCoNPJMCd75JFHfFnrsywc8B6CUUwfl2effbZdlTrttNMME98dOfqM9Pl+ZOWIUcFdiBC+oAL68mMvhZ6Z5eFiUtK+IW+55Ra7EBB3aTupuiZdj6TKlW86qYww+RaGePTKUUuqvnR9vh99ixjZ8gsTMl85knomI1tS6TH6KRXOAa/AFNPH5dNPP13w6lzh7NAUkuYAizK+Divp/NJOz6uSpZ25pq8cqDQOpLJKVmlM0PIqB+JyQAUmLqc0nHKghgMqMNoMlAM5cEAFJgdmaVDlgFdgsOoN7o6XmmUAotgITIrA2Zx33nlJJafpBDiAtYPAIAKPKvKvd1k5H8Qlu9RsBrpEg8TClpPcIXamWWrEOhiwWVwCHIXV8fXXX5+JAl4FzIsQy5jgPSgHu93ZkIhYDrCrjqmN2KVJWvpbOAeqDXHpHWHyYRfGjaANIUz5J0+ebM1DJK01a9ZYE5N33nnHTJgwIdS3i4QN/o4YMcJaON9///2ZR+zwQ+woY2SJGQgvCfsw1xI6CokIgpH9pjjYm0ymelFvOZC4wGAwKTv1NF6uXStiDAtppICc2GVHCOIS3qyiTFSwE8MiGaGBsKMSwpwfXAwWyQhpcCMNK19GUyXlQDYOJC4w2TKU5wgLGJEmTZrIray/WA8HMR7BSF//+tftrY0bN2YeZUMiYrVM2krKgWwc8M5hskUu9DmYk1xM/zGgFLRhMG+sg1HPMJTExB0EZY8ePWywbEhE8Pqob6Tv4m+Ceeh/5UBJBQbcvpy2EudV0JijRiRUP0zpMV8XlVDSzIZEBNfCiKfCIhzT3ygOlEwlozcHARjnVBgpPHMPOcBC7skv2JgbbrihjrDwXJCIzKVYhAgSgDUWIZSUA9k4kLjAMHlu2bKlzZfGDRrRXWZGBeNYJCbh3L+xBqgVl0BBCqQ4bhwJF4VE5HmzZs1iQ4glPf2tnxxIXGCmTZtmz8SCnZzFxfFG7qjQrVs3e0Ijxxux/AyGPS796le/ssciARsWkhU4+ZX7/IYhEVk0YAVN5k5AoVENr7vuOjeqXisHQjmQ+BzmpJNOCs2Imy7GPDKQ5wGjBCfScDKKHHm6ZcuWyHTZ8+HjUvBYKc4f46yAuKe6uGnpdf3jQOICkzYLkzSLoaxg+pWUA3E54FXJiom4jFtgDVdZHFDEZWW9Ly2tciBRDnhHmERz0sSUA1XAARWYKniJWoXicUAFpni81pyqgAMqMFXwErUKxeOAV2DSQlySbp8+fYpXyyw5ZSsPqFMO+MawUyk3DlQb4tIrMIK4jMsiEI6cdcwHxOOsWbPsIeDB+Ph9GTRoUPB2yf77ysMzLBYWLFiQ8RhQsoJWYMaA+XBbUi2U6MalIByz+XfEolj8spQDI33lwX/Oz372s7LwJF0OvKrvZUhUYISZPv+OWBSDW8GUHtcWLqH60KNznjFYfYjGCrbF58eSw8axQsYXDELLZhm+UciDvLju2LGj9f+CwyasBTCpgaLKQzzXxyUmNNjFYTGNQSkn9oPwpLxs8OK5jXIqVTcHvCpZoVUP8++Ib0YgymDsg0TDB5uC9fCSJUvMsmXLLLw5mx9LGjJhcHsBuhLIgFhI470Y1xi43eYZPitd93lR5fH5uATqDDyB0QdPawhmoXZyQV7o//LkQCojjFtVgFluA6XhZnNMOn369FrOlDjVBcK8n0b64osvWqHCIzBQZCbtqFUCFZDRgzicMsPZAmKD5j7jeVR54vi4xIUEJ9Tg9bhfv34kp1TlHEhdYOjpc7EEprcOeh7z+bFEDYOeeuqp0FfFARhYOOdKcXxcPvvsszZZDvaQ+Vuu+Wj4yuJAqgKTq39HWCd+LF02ynlhYX4sUeMgvIXhMiNIpIeKlyvF8XEZhsHJNR8NX1kcSGUOU4h/xzD2+fxYMgkHJ8OiABN7JuvMJ5hjQKhxnFHGvg/PULXinMTo83EZVka9Vz84kOgIIwjHKP+OeNVy0ZLs10Bjxozxqm14E47yY0l8lrFZtWIEgpg3sWAA4ZeS42AHDx5sP5Rx7ty59pmvPMyHonxc2sg1X1Jf+a+/1c8Br0OlYvq4jMNqRgi8FXNgRdjhGcCOGzVqFOofk1U5VtJ27txpWFqOS6XycRm3fOUeTn1clvANMWfwbXiyGsYnjDjOaevWrWGPvPdK5ePSWyh9WDIOeOcwirgs2XupmowVcVk1r1IrohzInQPeESb35DSGcqC6OaACU93vV2uXMAdUYBJmqCZX3RxQganu96u1S5gDXoGpJsRl27ZtTadOnRJmnyaXjQOKuPRwKG3E5dSpU02vXr08JYh+xHnKYSb4nK0slszRsfVJvhxQxKWHc2Kxmxbikl3+KIdKnmLZR0CMwbEECX8zWAAoKQficCBRWzLJMF/E5dixY60BJQ0bM3/OBACvwgHi7du3twaVXbt2tRgXNlWxBYMwpuSM5NWrV9sRqEGDBubRRx+1OHxUMWzboB07dpiLLrrIXmMqw8EWmNsg6OLh+Y477jDLly+3913EJaY4gri0CehXveRAKgIjnIxCXGIxjHWxS0ABAHstXbrUmuljefz+++/bIByo8etf/9pChkkT50nvvvtuJjqYF6yTUdcee+wx6+sFUBe0bds2A6oSrwL7779/Jg4Cd+mll9o8EUKuIXG/IYhLAGKMangMwLgTtVCp/nIgVYGBrfkgLvHhsnjx4sxbwUMyH9LCtiuImpSAWDSDgnQJwcDaGV1afMLwHEtj0kHNg4JpxkFc2oj6Va844F0lS4ITcRGXQI03b95sTjjhBHswxZw5c0KPaPKV6f777/c9zulZGOJSzgnIKSENXFUcSFVgckVcglsZOnSoHSU4DAMMi0uMCsxPoujNN9+MehR5PwrTEgdxGZmoPqhaDqQiMPkgLlu1amXA3zDZZx6C+hU8aZK5BBN8VCsm60kQuHwm/RzW544girhMgrvVl0Z0d51HXaW3zgdxyUkynFN25pln2pyBHgM+cgkUJWHmzZtnFwSGDBniPrZHMtW6UfMHxCWHaAiB8gRANmLECHuLST6rZ/zns3LlSjvCxUFcSpr6W384UFaIS1a6mjZtalelwOmXAynisrC3oIjLwvjnjY065kNUeiOn9FARlykxtkKT9U4EFHFZoW+1jIqtiMsyehlaFOVAsTngHWGKXRjNTzlQ7hxQgSn3N6TlKysOqMCU1evQwpQ7B1Rgyv0NafnKigNegUkLcZkWB7p162awMkiSsCjAclkOPU8y7fqQVrUhLr07/eLj8qabbor9bhctWpRx/YA91vPPP2/N69ljSZvY+ecEf/zHJEVABxCY7du3W6vnpNKtL+lgJY67Eby1VQN5BSbfCuKrBTMWDh4Htgw8GGBW2jRt2jTrri/JfBB6gGOA4pSUA6kIDGYtL730kv0IWEwE5pJLLjFYFeMICbMTQGLYj3HAeBTCccqUKaZhw4YZ8BZq0vXXX2/uvPNOa/uFDZh4Bbj33nsNo5wQ4SgLfikxslyzZo1xR8zevXubgQMHWvgyBp8A2EgXoqziLe0nP/mJAbwGYRR6xRVXWM9qpEnZgSMEMTU2sH5VFQe8c5hCa4qrPqDAGDcKce+oo46yjpNozE8++aRtyIJwxAclDRaDSXFfgVp36KGHZqyXEQ4aLWGhVatWWbUPQXJRlTzbZ599TOvWrS0gDVUNq2QaOYTl87Bhw6zt2uzZs62gcfq/EI5egTEDmXYtp8ln9+7dhjicX4DTJiDSStXPgVRGGMz0gRjT+Oi1XfQkLGVUEWEQ0JcP4YhA9O/f3zZ2VD3UPNzkiStAQWQKpDn42kBcYoWMcGK9jN8XdOrjjz/eIi8Z2cK8iWHX9tprrwWTM3gCALvDHI96Ym8WFNQ6kfRGVXAgFYGhMYMnYbIX5ntScPMuB8MQjqhREOb4xOEcABo+Fs0cVBGXRJVCsCBxUgvuH6ELExZf2ow4eE8GzEZ81EUIa+tiLG74yqbP0uVAKioZKhRm3WHCQnXQ+YOUDeHISAQK87vf/a5VqVasWBFMIuf/b731VkZ4comM+oiwMHcaN26cEeewqGpK1c2BsnnD2RCOCAwANVQzjjxCLSqUcFUOypJGj/rI+WQ9e/bMmixxEA5GqjZt2hjcnyvVDw6kopIJ8jIXFmZDODIXYi+EeQNOYl1y936YP/Fhgi9HIgVVLvlPOsxnOEJWjpF9+OGHbdKcRzB58uRMNhMnTrTXIDZZlOjSpYtFfnITAWb0k3QzkfSi6jhQVohLuFsKhCNzj+bNm9vVMqDRcQnvzOA9wA0phXNAEZfhfEnsbikQjkzU87EOCFtBS4wRmlBZcsA7h1HEZVm+s4oqlCIuK+p1aWGVA8lywDvCJJuVpqYcqHwOqMBU/jvUGhSRAyowRWS2ZlX5HFCBqfx3qDUoIge8AlNpiMsi8k2zismBakNcegVGEJcxeWOtiNkJ54MTJDyIuecax00n6XCY8J999tlJJ5t3evXJr2a1+bj0CkyuLUJwJmBEMHXBGhiHq6U2SsRpUosWLXKtTmrh1a9maqxNPeFUbMmifFwC5sI+SxovSEjgv+y0Y/mLESNCx4ETmKjgjxI7rWwIxygfl+zek674lBE/ltiFsUuPV2WsnzGNwVYNf5oIOLZwN9xwg2U+mH7KidDxe8EFF9j7QA1GjhxpeI77QMz9161bZ59FoTzVr2bq7Tn1DBIdYYKlDfq4BKiFzdaSJUus2tasWTPTr18/Gw0hwfoX0xggxAjXqaeeap9lQzgGfVzSYMGpABjDdyXoSEz5ueazZ8+eTLrgajDS5BfHs3hAg0gTmAJhKScChKAffPDB1qr5jDPOMLgWxH8mv6effrqNx1cUyhPLCfLHYS1CKeURg08f6jSTuF6UlAOpjDBujei5BbAFzBiBELgvo0jXrl2t8EicGTNmWMAYYY888kh7Oy7CMczHJTh78DeAvIKY+4ULF9qyYN3Mc8oqPi/JGMdOICoBjOGUlhEFderoo4+25QKSgBAxkiFUjJAbNmywz6JQnpRB8giWx4c6tYnqV8k5kLrAgB2ht8cKGXWLnrtDhw624qgyLpgM1Qx0JQQ8mIaJusQIEwfhKHBnm0CML0YJzPTp+RmByAfhEKIslAlBEuI5CxmMECLQPGOUkY6A/1EoT55FkQ91GhVH7xeXA6kKjOvjEqGBUHM4YSWMEA4EjAYKmIvGygeX4YJw5D8NnTlEcDHB5+NSFiQkX/JBWFCHMEEnLVb24hAGhRDnEuSDgYnCC2VDncYpm4ZJlwOpzGHCfFzSsMDUt2vXzqo5VKtt27aGY45cwiUfwsLS665du+yjQhGO9PYcUsEyuQgZ5UEwQVoyMowZMyZzmoxbnrBrgGcIoCA1mcyPqFlccE+cCYsn99SvpnCi8n4THWGk54zycckkl5UvOTEGdsnKEtc0YHp9jlHiWk6biYtwjOrtmX+g3jE/oqFzJBLCyBllHLvEhJ6RS9RByiIkdZL/5MH8hPlSjx49DPMOiBNrONFGKFgW97/61RQuVd5vSRCXLAIwD6DRSiNlYxEV7rTTTrOnwuyoOcvMbWSwNg2EI2ogFg0ymuXyChmtmMAzD2P5OykqBeo0qbIH01HEZZAjefxnDiDzgGB0Rhb2O8IoDYQjI0s+wkL5EOg0fHKWAnUaxm+9V5cDXpWsmIhLDhHPBU9ftyp6pxw5oIjLcnwrWiblQJE4kMoqWZHKrtkoB4rOARWYorNcM6xkDqjAVPLb07IXnQMqMEVnuWZYyRzwCkwxEZfszZx88sn206dPn0iesu/BRiNGkUFixx2EH6Y0WAeUmtjjobzYz9VXqjbEpXdZWRCXrscu34unIbsGiG7YoUOH2t109557TTwsfzmjmA3Bu+++231srzF8vPDCC+1Oe9AzAKYv8+fPt4aUWDdjHcCeTikIAZk+fbr1sib545wJi4P6Rurj0vPGacyYyWN1C1AM93lgPyA2CH2EtS/gLNz3iTVzMHzLli0NJ+7fWIPmDBJmKgjIqFGjgo+K/h/cD67+8FCGjxxMfZLwNlD0imiGdTjgHWHqhM5yQxwliREixpburr0PcZklaWudLAhHGqAgHHG6hKBhzYydmKAqR48ebUcbzG0wu0FdQ2gBr8nohRcxbMUwuaFsW7dutSMDO/iMclE+N31lZXShTGvXrs34x3FhBz6UJ+mOHTs2g8GhvJyLABKUEVj9avo4X5xn3jlM0kXwIS59eWG9HIVwBA6NUefmzZstVFhQjJjKI0ATJkywQnHttddazMrgwYOtgJAfKE+AahiAYjhJQ8eCGsoX/disBkgGMbKEEYIYhfJEuDt37mzuueceO0LjbU3cEBJP/WqGcbS494oqMDROcDH0lqhtgrjMVmWBDbsIRybUIBwBoYFcJF1GBq75MHKgwhHu9ttvtz5lGFGg7t27Z7KkDMwvCEOPDqwActGPeIDetm1b5iyCTOSQiwMPPNDejcLmgPJEIBCsMJSnJImKirW2oDIFdYqpCYKNvZkLdpN4+psuBxJVyXxFjYO4jIofB+EYFpdVPmjjxo32F1QlPbY0am7SMIWwnBZ1Ml/0o/jRbNy4sSRb69eH8qScjJR0EHwoG+7OSRPhiIM6rZWZ/kmcA0UTmDiIS2pHL4/64ZJYNueKcBSrX0Y2zO+ZXzDXkfTIIwghkHzzRT/u3LnTjm6MVOvXr5fk7G8clCejIKMirgNZHkeF5KAN168mPIpCndbKUP8kzoHaLTPx5D9MkIYZB3FJI6M35WAK5hhQvghHDqdANevbt68dVeRkFzmo4sPS1b3K5nOzbowP7jBKsXiAushHGj8uAeEBK3lRKM9WrVrZeiMQHMBBWFmmLxR1GlVevZ8bB1IdYYJoxWyIS4q+adMmq7cLZBj0ZhyEY1i1md+wasYe0Lx582yQJ554IjMvCIsjZWbpGv+XrLZBpHXVVVeFRalzj4MMQXeOHz8+84w9KtL2oTxZigaizdI6xPwKABYUF3VqA+tXahwoG8RlnBqiquWDcKR35jw0VplQtXKhIPqRlTcm61GEYAkxOhxyyCHmlVdeqeUHk1EnCuXJs6ZNm1p/m2+//bYklflNA3WaSTyFC0VcJsBU5hDuPCJukqg0+SAcUW3yiUe5ZB4kZUS9GzBggPyt88s+ixDCiXoWJFSuKJQnz3xlTQN1Giyf/o/mgFclKybiMrqI5fVk9erVmQ3J8ipZeZaGjrGakLRelaw8X4GWSjlQOg4UbZWsdFXUnJUDyXFABSY5XmpK9YADKjD14CVrFZPjgApMcrzUlOoBB7yrZOwVgDOJCyBz+cV+Ar5UWAaV0y3d58FrEJdiZMlSrpjgB8OF/cd8RFCNbDhGmbuExdV76XIAxCXmQmxIVwN5BSZXxCUMyRdtyCZfNsRlFMPZzGSDEbTmokWLct6cjEpX7xfOgWpDXCaukrloQ4wHr7vuOhO2Yx18FYK4jMKRBMO7/zFYzGcUdNPQa+VAHA54R5g4CbhhsqEN80VcgmsB8ozxJLvnWAJjbzV8+HA3+9BrYNPgRzCPYRcdm6y77rorE/aSSy4xYFcwYWGUwvyftIECKCkHghxIdITJhjbMF3GJIGLBLGb/wI3jgqewVgAghvNZ/MRguiI4GZjB3Omoo44y7733nsE3Jn4xsRdTUg6EcSBRgRFgVhTaMF/EZVjB497jIAqAWZjOv/766zYaDp9cYlQBawP2HqvmajLlcOup14VzIFGVzIc2LARxWUg1L7vsMrtahxCIpbKsqEm6cniH/Ndf5UAUBxIVGB/asBDEpSxLAygD2y6qn1spVCqI1TYRDFbPmJvMnDnTLmtywMWkSZPqqFyuY1o3Tb1WDgQ5kKhKlg1tmC/i0kVOcoKMuP12K4OzWQBagMWYl7APJMQhf5wLEGeRQOLor3IgjAOJjjBkEIU25Fm+iEs2P1luBrbM54033iC5WoSwcBoLPis58YWVsNtuu81iS8C/Q6IyCqqyVgL6RzkQgwNe834aJ1DhQYMGxUiqdpAotCGhGAGCPi5rxw7/x0jB0nCcfR03BVQ5RpwgGMwNo9fpcEARlzH5GoU2JHq+iEuZB8UsQiaYrnplWKEXBXLAO4dRxGWB3NXotnOspg7Lq5Lp+1YOKAdqc8A7wtQOqv+UA8oBFRhtA8qBHDigApMDszSockAFRtuAciAHDuxds0dxcVR4rHr79etnHfpEhSmn+926dbP7Le7GJvdwwHTkkUfafRg12y/uGwNxiWW5bBoXN/fkc/Pu9OeDuATxGDSPf+ihhzJnBCdfhQ9THDJkiHn66acNpjRCwKRBcvLhBH+ObVUqHgeqDXHpFZh82frMM89YoJbE37Nnj1ym+jtt2rQ6R9CC8YcQZCXlQKEcSEVg2KhyfVvGKSSn20OY3hMXS2N+8V+JmY3Pv+OIESOs2kV8HNGqcMAJpTQ4kMqkH+PHOXPmZD6At7IRgoLFMaMR5vsIEGoUKlU2/46rVq2yTocIh72ZknIgLQ6kIjC4fMDQUT6CT8lWCZwIcXI9+BR82mNV3KRJE4uB4aALbNDC/DsyocSHjDhQzZaPPlcO5MuBVFQyTPHxx5grgafBGhn3FEKssPBR/47CEf0tJQdSGWGSrpDr33HcuHHm2WeftVnIoRhx8wtCk+PG03DKAeFAKiMM8whUJyH2RQpZKXP9O4KjwXdkrkT+Xbp0sb4jwdPEVRNzzUfDVzcHUhGYdu3aGT5CuNJmDhKHgmhIjn3N5t/R3fsRVCZ7MVOnTs1kuXDhQus/Ej+VO3bsMBz5pKQcyJUDXvP+QhCXwYKAeIxSoZi3xDkPudL8OwZ5UB//K+Iyz7fOkbFRh++xSMBxSNlI/Ttm45A+T5sDXpUsScTlxIkTa53k4lasmhB5br30+gM4ejW9X69Kpi9cOaAcqM2BilhWrl1k/accKB0HVGBKx3vNuQI5oAJTgS9Ni1w6DqjAlI73mnMFcsArMCAu8z2PmH0XTPTVHKUCW0WORQbVGnQhkmMSocHZZD755JNDn+Vzk83z8847LzJqhw4dTM+ePSOf88C7rJwP4hIBmT59uj01X3LGoRHWx4USO/dPPfWUWb16daFJZeLjzax///5mwoQJmXuFXriWB5JWsVCnkl8xf8OQroXmz3vB39DSpUtrJRXGW8Lgk2jUqFHWSx1W7RwPfOWVV1pDXjzKYUHP2dtnnXWWPaqYMEHq2rWrbbf33Xdf8FHmv1dgMqFyuHB9XLIhCZ4eFxVJECOWOEVKIj3SAD6AR4CkqVSo06TrESe9MKRrnHi+MMOGDTPbt2+vg6AF/r5+/XqzYsWKTHTaRKdOnTL/8VCHIy3C4igLYYGId8opp5hTTz3VXH755ZnwuVwkKjCMLhhdrl271o4EFASvXkIYZTJK0EgxhXnuuedswbEfw4EswDPMZPCGDBNmzZplcHZ0zjnnmPbt29uNT3qBzp07GzZVR48enRWNiTkOFs4dO3Y0DRo0sC7QYRb2ZNdcc40114GxN998sy3mHXfcYZYvX27vI/xt2rSx15wHgNu/uJtwYahTeAOCFCJPHOEirPRoAqWmTpgkUVZ6QdQIcfh0+OGHm/PPP9+OsL169bJhHn30UbNgwQJzzDHH2MZAPJCqpItfHGzqmtUA8ojXuHFjy3dGOywvINKH/5gd4YN069atVkMQUyXKPH78eNtjEx67QNKFfEjXbL5FbQKerwMOOMBQzjCCL1GIXtogXiKwKjn33HPrvK+XX37ZoDnlS945TK6J8mIgRpYwQu1hmF2yZIl54oknrBAcd9xxNuh+++1nnbLS0FDhCCfPbr31VssEhIkXBkOkh0Agdu/ebXsUXG3gWInGITRy5EgriAjnjBkzzOOPP26HZASOdGhwNBiu+Tz88MM2KpCCI444wobH+BMraXqruBSGOgVqzdxu8eLFNplGjRpZ6+nu3bvb/8cff7wdkdetW2fmz59vHdmOHTs2kyWNgfgIC2A7fHLKAe3o+pyIgyBQVhoM+cEfBJ14dBDUl/xkVEV1wZUieS5btsx2eDiegshvypQpVjDxUj137txaWCUf0hX++nyLZioVckHZ6FCihIJOE3WLD9B1l3jH1AnLkjALedoKbS1fapBvxLB42Xxc4g0MGLLopRx9xFDqejWm90IwYArekyEQlXwAloHi3LJlSyZ71D16SXoNRhGeuzBlRiMYJwLmxuUaNQ9y7/OfBk/aNFzosMMOsw3L/onxJahTCQqcgAYIrVy50vTu3ds2CBo+ZYR69Ohh607Dh1eccAO8m3jihY1wjEi33HILl5ZYnEFAxJ8nwkHvD+HwlviMHDRE0KwgU5m3ASOHpJPimlNemD+AYEWdZsTC7ycdDrRhwwb7y5e8lzCkK2WhPVA3tAVGRxYGGFWzUdOmTW0QGncYIYyimgfz3nfffa2w0X6wUA8SmgLCCI9oZ7lSogIDAyGG/iBRSHAt27ZtyzyiIbvSTqOSSvAS8YuZjWgoPjQmjSVqxPOlDeOlPoQDOu1ifHxxeUaeQdQpfBH4AsJPXRkR4Q2E7g2xWiPEC4ZHrsC4aq4bXoQeb9FCCB7EqMMHgu+um0K3EZMPIx900EEH2fKKsNibMb/i+BaNSgrXjxD5u+9AwuPpmhEvjMi3b9++VvBR6dy6ER51X3gfFj/bvUQFxufjkobCR14gBWMkyMU5EvHp8Vxy0Zg0QLyNoc8LlIAG2ez/VUU3nlxLA5b/8ovwuiMVh3G40GkJl+QvjZXyMGfzUdBLNQhU5oAINELj6ujS4G6sOW4qquHLfCWYJ4KFMJMeHUZcYtTmPWfzLRqVHnM2+MAhKIx0uRBzFLQJ1M/Jkyfb+asbX0ZZ914u1x/JJXC2sLxwhn4QkXwY9ljXlhUM1CUZmo899lhDLy69Yra0eS5DO0O9CISLxmSCHkRjvvDCC3ZC26dPHxsHVYsyCNHYaBS4+iMtIeLRs6OW0BD50IDiEsIm8fgVddUXn1EJ72ycFklZmIizZJuNUN3oLFgBYv7BaaVCHGyIoI+oUdFoxKRLXWWeIuHCflm8oeHSCdFhsCgwcODAsKCh9+ABo1o+e3mgdF0QYmgGETfphJn3wvMTTzyxVig6T1bf8qXa3XW+qTjxfD4u0YVZPWGfBqL3k9UpJ4nISyalNArSQXelMWVDY7L5xRxn8ODB9kMDYPIqRG+2o2bFjAbFh/kF8wN6ZOYtrFpBzElIKy6FoU7dpVDKIR9Jkwk7DZN6iaDAI3e+QtiwEYEwLMXiJVrUEMrMSHn11VfbRi+YI/KlB44inkMsKMAH0pU5ICqiLFq4eyJBpCsjUiG+RWnw7JnQabnH+0rZgmUP3mdBgk6ZhaMHHnjAdnbMzRB6WSEMphHnv9e8vxDEpc/HJT0dOrSs8MQpaLYw2dCYzA8YjlEb3flAtnSZR1EXOWKW0ahhw4aR0WTNPzJAjAfMu5j40jiZy+VCjOo0FFQ0Pi5Rf1TaXbt2hQqdGzZ4Tc+MepsLiI/VKsqDZpEPJY3WpMNg9GElLYywAqBtIqhRlPgIIxnRs6GehREvLGnK9iJZ8Yoqj68swZfNhHLAgAGRUYIqQGRAzwNRbT1B6jxif4vek3qiAobVVfZz6kSOcYNROFfKVdiD6cvoHryf7393uyHfNLwCw/IdL0DpQw5gloN5TrkRS83Mt5ij0JNGTfDLrdzlVB4WU2SFMKpcXpUsKpLeVw7UVw4kukpWX5mo9a4/HFCBqT/vWmuaAAdUYBJgoiZRfzigAlN/3rXWNAEOqMAkwERNov5wQAWm/rxrrWkCHPAKDDu1aWC1Eyi3JlEhHGATNdveRoVUxRbTKzAYTmKbpKQcyJcDIEwxsaoW8gpMtVRS66EcSIoDoTv9YNkxmgNsg4k2KElozZo11jgNYE+QAIZhkh00rycc5jVYj4LyCyOgrFgKi8m+G+bBBx+0yMuoPLGfinpWivKUW56bNm0q+jvBhgzEI9S6dWtrKQw0AlMrkJiVTKG2ZOicIBnFKpe5DITVLlarWHQGCYNB4gD6CRKWyWBfwp4RlnR5FiYwvHBfnpS1nMpTCh748kSAw/ie5jvBqlnaDO+X8vE/CP7jWaVR6AgjlcAqlwMXOEhCSTmQDwfAO4GbQcOoBtI5TDW8Ra1D0Tiwd81QeXFUbgC8gHMWgqOISlvv1w8OgCfauHGjnb9UQ429Klk1VFDroBxIkgOqkiXJTU2r6jmgAlP1r1grmCQHVGCS5KamVfUc+D/IbOEMRxzYHAAAAABJRU5ErkJggg==;" vertex="1" parent="1">
          <mxGeometry x="530" y="70" width="155.66" height="190" as="geometry" />
        </mxCell>
        <mxCell id="PZrZSrdKlhRtxC-y3ePN-3" style="edgeStyle=orthogonalEdgeStyle;rounded=0;orthogonalLoop=1;jettySize=auto;html=1;entryX=1.006;entryY=0.283;entryDx=0;entryDy=0;entryPerimeter=0;" edge="1" parent="1" source="PZrZSrdKlhRtxC-y3ePN-2" target="PZrZSrdKlhRtxC-y3ePN-1">
          <mxGeometry relative="1" as="geometry" />
        </mxCell>
        <mxCell id="PZrZSrdKlhRtxC-y3ePN-5" style="edgeStyle=orthogonalEdgeStyle;rounded=0;orthogonalLoop=1;jettySize=auto;html=1;" edge="1" parent="1" source="PZrZSrdKlhRtxC-y3ePN-4" target="PZrZSrdKlhRtxC-y3ePN-1">
          <mxGeometry relative="1" as="geometry" />
        </mxCell>
        <mxCell id="PZrZSrdKlhRtxC-y3ePN-4" value="" style="shape=image;verticalLabelPosition=bottom;labelBackgroundColor=default;verticalAlign=top;aspect=fixed;imageAspect=0;image=data:image/png,iVBORw0KGgoAAAANSUhEUgAAALwAAADtCAYAAAAFmx/5AAABU2lDQ1BJQ0MgUHJvZmlsZQAAGJVtkL9Kw1AUxr/UaEEdOqiTQoYiVarU2Bdoi4jgEKrin0XSNKaFNF6SiPgGPoEuzg5ObhVdHLSDCA6Kgr6AeyEOWq7nNmpa9VwO58fH4fDdD4hBZ8yWAdQc3y3O55W19Q0l/oo+yEiQnNINj+U0bZEY37O7gkdIYt5PiVtonpwNv91N3khj1/ylKv3d76r+sukZND+oxw3m+oCUJNZ2fSaYGkMumSLeF2yFfCS4FPJpe2e5WCC+Ik4YFb1M/ECcLnXoVgfX7B3jy4PwOGg6K0vCD/Uo5qDSy2KGcvl/L9veK2AbDHtwUYWFCnwoyJHCYMMkXoADA9NIE6vIiJsi39+5RdrmLZ3OALFkpDkecHFO1vKRljqkL4wAjQbTXf0nTSmQva1ZNeSBOtB7wHlzFYhPAK0nzt/rnLeOgZ5n4DL4BJb7YUElmhniAAAAVmVYSWZNTQAqAAAACAABh2kABAAAAAEAAAAaAAAAAAADkoYABwAAABIAAABEoAIABAAAAAEAAAC8oAMABAAAAAEAAADtAAAAAEFTQ0lJAAAAU2NyZWVuc2hvdG48q64AAAHWaVRYdFhNTDpjb20uYWRvYmUueG1wAAAAAAA8eDp4bXBtZXRhIHhtbG5zOng9ImFkb2JlOm5zOm1ldGEvIiB4OnhtcHRrPSJYTVAgQ29yZSA2LjAuMCI+CiAgIDxyZGY6UkRGIHhtbG5zOnJkZj0iaHR0cDovL3d3dy53My5vcmcvMTk5OS8wMi8yMi1yZGYtc3ludGF4LW5zIyI+CiAgICAgIDxyZGY6RGVzY3JpcHRpb24gcmRmOmFib3V0PSIiCiAgICAgICAgICAgIHhtbG5zOmV4aWY9Imh0dHA6Ly9ucy5hZG9iZS5jb20vZXhpZi8xLjAvIj4KICAgICAgICAgPGV4aWY6UGl4ZWxZRGltZW5zaW9uPjIzNzwvZXhpZjpQaXhlbFlEaW1lbnNpb24+CiAgICAgICAgIDxleGlmOlBpeGVsWERpbWVuc2lvbj4xODg8L2V4aWY6UGl4ZWxYRGltZW5zaW9uPgogICAgICAgICA8ZXhpZjpVc2VyQ29tbWVudD5TY3JlZW5zaG90PC9leGlmOlVzZXJDb21tZW50PgogICAgICA8L3JkZjpEZXNjcmlwdGlvbj4KICAgPC9yZGY6UkRGPgo8L3g6eG1wbWV0YT4KaWvmMwAAMaNJREFUeAHt3Qm8ddX4B/DtL0mIFDJVpqIQSgPJmxKVBqoXTSoNmjRQGpTeQiohqddQvMkrGYvmeSJNqBSVFBKiTJnD//2uj+da99xz9jnn3nPuOffe9Xw+5+59917TfvaznvWstX/Peh72jGc84z9VocKBGcKB/5shz1kes3AgcaAIfBGEGcWBIvAz6nWXhy0CX2RgRnGgCPyMet3lYYvAFxmYURyoFfjnPe951WMf+9gZxZDysL3jwOMe97hqueWW612BPSipVuAPPvjg6pWvfGUPqilFzEQOvPa1r60OPPDAoXr0WoEfqpaWxhQO9IADD2v80kqjz5o1KxW9wgorVL/5zW/S7y9/+Ut1+umnV1tssUXTaj/zmc9U2223XfV//ze2D11yySXV8ssvXz3taU8bk/eOO+6o7r///mr11Vcfc+/Pf/5zdfPNN7e8d84550x6e4atznPPPbdaf/31x/DOhX69k3Y82HXXXatHPOIR1VJLLVU94QlPqG699dbUvgsvvLD6zne+07Stk3VxocaKHvWoR1Vsr6BHPvKR6f+FFlqoesxjHlM9+9nPjlujjvK510zgCe2yyy5bLb300qPy+Odvf/tbpY5m5T744IOpM7S6N4j2DFudBKoZf/C2X++kHQ/M+7zThRdeWDNG5El7Bk1jNHzeoFNPPbU67bTTKj26UOFAtxyYPXt2Gn223377brP2Lf1Y+6NvVZWCCwcGz4GHLzBfDmvVjN/+9rfVTTfdVLHfCxUOdMuBBx54oLrzzjure+65p9usfUtfa9L0rdZScOHAgDhQTJoBMb5UOxgOFIEfDN9LrQPiQBH4ATG+VDsYDhSBHwzfS60D4kAR+AExvlQ7GA4UgR8M30utA+JAEfgBMb5UOxgO1Ar861//+uqFL3zhYFo2ibWus846Y3Dbru2www7ptwBg17Q1T3nKU6qNN9646b1ysarw561vfetQsWIMeCxv3UYbbVR997vfTYjF/Ppkn5944okJdZfX6wsevH4vaOutt66uv/766vbbbx8pjpADZfn96le/qn7+85+P3IuTl7zkJdVb3vKW6hvf+EZcKseMA895znOq173uddUpp5ySXR3saa3AD7Zp/6v9YQ97WIIof+QjHxm5+Mc//nHkfKInc+bMqX7/+9+PKmbevHnpf+C5VnT55ZdXP/7xj1vdLteHkANTQuDx7e9//3v1k5/8ZAwL3/zmN1cbbrhhwl//61//qm688cbqmGOOqf7zn/9Un/3sZ1P6RRZZJOV91rOelY4xMsDvr7322inNeeedl5ChYypocUHZoND//Oc/qx133HEkFa3/jne8I0FztcHokHcoJuL+++9fBY4d7PqKK66o5s6dmyDU7i2++OLVv//97+rSSy+tTjrppFQ2uO1hhx2WINYPf/jDK74CO+20U0o3Unk5acuBWhu+be5JTMAe/OhHPzryC19JQnfmmWdWhx56aDq+9KUvrd74xjemlhF0zgecWODxCSkTJWxysGdlKgOuvBuS7+qrr64e/ehHj8pGMK+55pok5J/61KeqJz7xidW73vWukTTaxDmC08ZVV11VnXzyyRWQlTYQaPc+8YlPpE6w7rrrVk9/+tNTXp3TM3zsYx9Lz/q9732vMvIV6o4DU0bDP/TQQ9Wvf/3rkaf761//ms6/8IUvJG3KU4vDAS1PkwcRqpe97GXJIeGCCy6oYLOf/OQnJ5v8vvvuq/yU3S0ZSZp5cPHoufbaa6tVVlkl3efEQugb6fzzz68+//nPj1zWRp3htttuS0Iun3bxMGPK5cLNjMrnGyOFlJO2HJgyAk9LH3nkkWMeiDvZWmutlSDM7HqakpYN4lHF7NARgvL7ca1Xx1e84hXVHnvskYSV6yIvn2Yd6qKLLhpVZXiDPelJT6r8kGcm+OhLX/pSteKKK1b77LNPMtd4kX3gAx9I98qfzjkwZQS+2SOxZQn7ZZddVn3yk59Mwj5//vxmSSd0jebtlLbZZpskqOx4dPzxx1eLLrromOy/+93vRl0z0iCTZaNHIzF79txzz+Qut+WWW1avetWrkq/voH1EG9s57P9PGRu+GSNN7GhuPpQ06W677TZq6G+Wp9trtKxORet24pP5pz/9Kdnh0q633nrVkksu2VGVlkU9C1udtteZLemttNJKKX98K/jDH/4w4gjdOH/oqKIZnmhKaHirHc3IdZ7wBMOElOnChGmkxvw6CrLkGLaxOYAf29gEOMgcwSqMyeLdd99dHXDAAdUuu+wysroj3Re/+MWUXIezs8Nee+2V2qNemryZCRVtiHrMSXxvYKIdffTR6bL8JrDI6o9VmXgWK1YXX3xxulf+dM6BWo8nZoIPT47DTFY2rOL87Gc/G5pmWlHRnkbB7qSBVmYsVzbmN5I99alPTUurOvewEwVCCfg4Nyw0JTR8O2Z5+cMk7NprNBgvtfIBZS5ZxSk0fg7U2vC+PrIZCxUOjIcDnP99IBsmqjVphqmhpS2FA73gQK2G70UFpYzCgWHiQBH4YXobpS1950AR+L6zuFQwTBwoAj9Mb6O0pe8cKALfdxaXCoaJA0Xgh+ltlLb0nQO1Al9iPPWd/9O6ghLjaVq/3vJwjRwoMZ4aOVL+LxyYZA6M+dIK8DNr1qzUjBLjafTb8Jm8XXwj8F5OKI00kThXdXWGb2xjff4vMZ7GcmUMeAyOu8R4ah1zql18Iz6zzQR+InGu6uosMZ7GCnXdlTEaPk9cYjzl3Cjn3XKgxHjqlmMlfeFAjzlQYjz1mKGluP9xoMR4+h8vylnhwEA4MHY5YSDNKJUWDkwOB4rATw6fSy1DwoEi8EPyIkozJocDReAnh8+lliHhQBH4IXkRpRmTw4Ei8JPD51LLkHCgCPyQvIjSjMnhQK3AD1uMp9VWW60Cd7DvYi/I7mC2rO52b/he1D0Typj2MZ4EAbOBaE6xH6OoGxEgzU5hwFT2Pe9myzgBsn74wx+O2vrano+xvbTNSO+6664UNUO9gg384he/GNkrUiwnndh+keIySWM76p133rn64Ac/mDe7nPeAA8MY46lWw3f7zF/+8pergw46KG17Z1NT58cee+xIMYRblIuzzz47bQ7qvFOymShNHGFs8nw+Ye+3335pI9NnPvOZo0LQRLo3vOENSdjPOuusUUHIzjjjjLRDr30bC01/DvRU4O19aFdbwk7bOrfddJCNRX/0ox+l3XYFBAClffzjHx+3a48CDYjz9Mtf/nJMun/84x8poget/YMf/CCVmyeyu/Cb3vSmCiY9j7ohjcBkdhAWKqfQ5HNgjTXWSLsl52GB+tmKngp8Nw21KzEy7HVCdtRtF7nPLsLs8nzLbPGcOGXoaGIuNZJtqnXO5z73uY23yv994sBiiy2Wtv4WztLW4kIVCeA2GTTGAWQyKlVHRMBoFv+oWRuMBELINCMxm+yjHo4rTKsgDi0Emqljn3ajRCMZIZRRqP8cYOaay+G5oHBC+TBJEW2/+uqrj2nERD3NePCFU87ABF5oRiSsYydkJ+MQ6Mb0hFhUu5/+9KdJU+RCzaQSxvKoo45K0fTe//73N2ZPGqbTdozJXC50xYGllloqmZAC1Fm4CGFXiL3vmbmNZGGhzuuLUqvzNMvvDUzgV1111fRczWKvNj6w/0XCjjyN93WGVkEbjCT2jmer6+mi5V133XUjRWCWZc4SYHiEJX09Eftq5ZVXTtEJBX97+9vfnoJuiKLy1a9+Nf1aNUD6VhQxtZrdzwPI9dSGp4HtZSP2kAgWzvXoIMOK4YxNTfjuuOOOjvefF7yLSWJtdzzEfjc0YhpbP0hwMGFkYk4R18uxfxy44YYbUuggy8GCMr/4xS9uurLWjxb0VOA322yztOwofinhtOwozGIQQbMeL0AXATv88MPjVtsjJtHk1uLHQ1aIBBPWrne+850jRWy88cZpZccKU6HJ5QCef/rTn07v9LjjjpuUyntq0tgWwq8ZNbOdm6WruyYImSGQCWIiiuqGsre97W2jimMzClUfJICxuYSOWWiwHGi3Ater1vVU4HvVqFblsMP9ekXmD8MUcKtXz1XKac2BWpOmxHhqzbhypz0HSoyn9jwqKQoH+sqBWg3f15pL4YUDA+BAEfgBML1UOTgOFIEfHO9LzQPgQBH4ATC9VDk4DtQK/LB4PPlQxbnED/qxHwSNufnmm/ej6K7L7LVnF2j03Llzu27HRDNMe4+nXXbZpVp77bVH8cln+4mudRNyACA/IC+4ml6Tz9u+FH/lK19pW/SHP/zhBHTKE8Li86TiZQVa4bnBlO3fDhHYDTXz7AKjhSbMiUMNJcDtERaFMwvivbXMMstUhxxySMIIcXrZdNNN07uZLBiudgyjx1PPPzx50eADQT7pT5TmzZuXivCldRiIQEHvzZkzJ3W+k046qYL+CwJWmz9/fvXqV7+6euMb31jhQScdSf7w7DriiCOiuJGjr8uEOAjEtpF8NSbs2hiAOBiiW265JX1lnkyBb2zbMPzfc4H3UM0QkO973/sqGJtFFlkkCYlzsE8v8L777qsINe3tZREQ3km0ZTtadNFFkysh7Y/U7aXTfoQH9AAiUkdUPiH1QQ2BKQCPqS/3zHLvRS96UXJOoK2VBWNPiyPt9ZPPx5XG56XZb7zxxvTjt7vhhht2LPB1nl3qbqwrB8IdcMAB1fLLL1/Bpag/p+uvv756wQteMAqWkd+fKee1Nvx4mMBdzkuOX7huQVISjmuuuaZaeuml0zBPWF/zmtekanQEpgstzlHb9U78TL1kzh0E0rDO44lpggDF1EfIoSU5m0R7nENs3nTTTSlv7ojiGfjI6iTATdwKt9xyyzFmTKqkzR9a1rN1SnWeXTBEAHDx22STTUaK1amYZcwqyNJGCm0/0z27ei7wGP3b3/521C+Yj+nf+ta30r9nnnlm0rT5FhmGXVoU0Iyw0b7tyAvkRECLMzP+8Ic/JEGWz4sn6DpOjCgh2OYa6jjyyCOT7XvbbbeNVEVL0pxs74svvrgyOqF11113JE2nJ9qjA3Uq9Dy7WgGptJfpFL/cecIzur/mmms2bdo999yTrlM2M5kW6vXDY3orZCTTgN0pDWKT8mcMCi3kPrOAWWHC1YqWXHLJEWFaZZVVUjLeTkwlxDyAf3/ooYeSe6BO4RwJ2Bbp/M9UeP7zn+90BHNP+yMCKF90lnSxwz9GtnieTrIwt1p5djGhdNCcwqS58sorK0JtgUC4yPPPPz9PVhk5kPnFTKaeC3wdM0PQW6XJlxxpxEZ7Vb5cU4aGu/XWW5MJ1VjuNttsk2zzgBAff/zxFTMK2b8mH95DINwzQiH32f3q5NAStn+62eEfowVTrlOq8+yqK8P+O0ZNS7jbbrtt8hfNR4p4Vk43M5n6YtLwdMp/nTKYNxSMOsw6M+Cyyy4bldXEcq211kobL9HWNJ7JI9uV6x5aaaWVqg022CCdczCgAaW1QZQRIchqBZuYvW/5LLS7+7fffnvSyvayodVNblHYxtaXPR8PLmaU83y+oT7uiOYXNomqG6VSwdmfiXp2WZ3RLs7SOXGrw4/wI8jvzaTznmt4gmqVJKfcS6lRyxPaIPc+8IEPpH9pIto1JxOyHXfcsbLb2N0Ldg0jUF7we9/73lFeTDFPOP3009NKi82blM2/1UQWGdpp+S222CL9bNcRxCyytm2EMCogk19zDGRCy+EYLbtgkux5Yx3eNSMVTy9mmeXIr3/96y53RLlnl2frlu69996KD6dJP21vDqIDrrjiik03seq2/KmevjZsJcdornitHKR7+fBWWHhLff/730/2cpgrndZhskebEmSClhOhdD3vXHE/5gGNy5LuGwGsADEX8g4Reft1NFk3qtgasBcaWTmEf/vtt+9Xk5uWK8j1brvtNuEPj00LH+fFnmv4cbZjJBsTZTzEvm5lYxsNWlHY683uE7aYSDe7369rvfbsstta445r/Wr7sJdba8MTIMtqk0G2zmg2SZ2Muksd/eFA8XjqD19LqYUDHXOgVsN3XEpJWDgwRThQBH6KvKjSzN5woAh8b/hYSpkiHCgCP0VeVGlmbzhQK/DD4vHUm0ctpUw2B4bR46lW4DfaaKPq5S9/ecd84vHkA5IfmC8Yq48PgyRfGX0tnekowUG8g/B4GkTdreqsFfhWmequ+4QPc/7xj388fdIGBRgkAX3Bw7RCIA6ybaXuyedAX760gqn6QRnutNNOyfNIyBm+oCAA8DaguZxEAp/i0WFerrrqqjSq8DSCpdl7770TXmX//fdPG5+CBwB+catDsOo6GWwLJCRcu12JpYO5icALcDeuaUfAl33C97ldO+FnYOcDhwPEpu6ABMP2HHrooalOfwDUOEfD5vgi+7WvfS3tbQ64pS7YFeeeAdZmsj7gjTSwnDTlQF8EPmqKQGGwKF6+I7c9AqIjEOIcWEbwOFkITEbwuaTJR2Bg6YW1gUyU5rzzzkudiuYmlBdccEHqRHxIISZFBGFSuQfIBUh25513joTaAQfeddddE4AMrJaTM/xKCLydhwmzzqNdygyC6gTBhc/haSVcTiAx7XwAxw+fzlED4tL23HlniXLKcfI50HOBp70JJg0NmkuDBz6GNmbXgfLCsOTeTvHo8OChgWFKpCVwNDchNTJwxoByNEIg2jO26TbvAM0l8KAKAQqDjMxHEx0DcSfkDwsSvOwCkJkYQyC64L46m44mjfKCdA6jSowacd3RzgKcpk844YR0WacNLHqerpwPhgM9F3iCQDhAccFUA/VIWzIZ2NSuhaeTTkGogsBjc4rJJiRkBCAmxLm3Uh7KElIyx6bnZeXnytJWjt5ByjHJRcyr3XffPZlMOhj4b2y3scQSS6RnaIa+hI+PDq4c4DOjUqHh4EDPBd5jNYMTG+oJ+3bbbZcEnDnBhqZFc2q0dUN45i3Y1aDREz/yNRO8uBdHdecUyErmRrP8Oq0JN60P4so0Yfqw9XkSxS4JeZnOwYjzkQs2vhcQ38Z6yv/j48BoaRtfGR3lgi0n3CatJnTNwhM2K8j2EgRGR6HtlSPQcG5TN8sX13j5GEHkMallciGOEc733HPPNCIwwdQRowNPKIIrMiDbX6eIjsHU0o7Iy9TiR4qYP+KQchKn2f3CrEoJyp+BcmC02utjU0Ro454XHkRWLwQ8CyGKqpkZOdGYJ554YppgHn300emWNOYJraixDKs6PIDY+SaaJss0OEdnrn+xoxfTJbyTpDdPUJY2Shuml87CNuck7ofCHdFI5J5vEsiIYLWo0HBwYNI9niwfMie6cWwOVtGkTJNW3kuRrpujUccSpDlBo0uhFR4avxVO3/yDR5TVmEZTzKqN+UA/tgXs5vkGmbZ4PC3gPp/L8VLsrTLe/M3y0d6tvJqYInXmCI1vdacZ1XlSNUtfrk0OB2pt+Mn0eJqcxy21TCYHisfTZHK71FU40IQDtRq+SfpyqXBgSnOgCPyUfn2l8d1yoAh8txwr6ac0B4rAT+nXVxrfLQcevgBteFirTDyeYGDi836rdP2+Pnv27ITN8dV0qpN95gHiYHhAJfKPZHYH84XWPcua+Wao8dy8iEQWybf3jntxXH/99dP3ikEvjWqrL9atICHR3sk81mr4bjyefGbn6ZRv4gkC3IswNXAsnUIJesk8+B/PdNhhh/WsWB+5wId94aVMcoK7gdFxDwS5GekM7WJmURA6zqBpGD2eegYtgC1BXhQsCe3kWmBXBs388dQPckADe3G9IhBpQvvud797TJFgCahOScDxtPpQljKXP7Uc6JnAq4VwCHjAeSKw6nnthjdYcp/kfco/9thjE9gqNvuEe/eJXkdxDkNz9dVXpyJoPelAAeBWckSmHYfBkYHLfNKHiQHt1elgWnziBknwIY3AdfLFVj1gEOqiLW2nDRiG7OrrGUCMlQt6YBQIrM1460yF1/wBWdYu9eSukyAXdlAGg/CMOTJU+joPLHz1XjjSAOmdffbZKWxOTTOm9K1ak2Y8T8YTiQMGgc2JMAJj8XrinkfzexEIs+HjTznllISmJEDsT6ZMEOGCR+cNRQBzCC4Epv3PdTYeVddee20qP0I18mLikKEjiQjSCQGFaSOTBgAs0JDyaq8QOryyPC8zJcLhTKTOdu3iwUUBQHbmpIPhnxGCwOuMQeGB9e1vfzu5IOIjSHTQVlttlWJYMUWB6+SfztRzgSeU8Cn2Vs8J+hBxmeMYApXIhl12Ad4cmZASHqMEQYJRyV8s7QqPHvGfGm1UWt2LVDZEppGC9qINaXodDpBLlMDGzpga0PBn1qxZyXNJObylICBzMkIZZXRSo0sEZJhInXn5zc5N/gDnGgkPCTT+hbdYpMk9sOxVzzc3sPy0fzji4BEU6DnnnBNZp+Wx5wJvWLziiiuSc0fY9TjHS4jwBUqSpkZm8ih3kqBRCXCeHyY9SBkw9Tk1M1Oiw4j/5MehGyLSHKMdLbfccqnjMo2YCjyZwqFb3hxUxlNKh0ITqTMV0OUfz0Kjh11PceBdUDMPrOArxQS2bY5ilwmjo5FyOlNPbfhglOgZNGQ4cbtOU3oxfgQ/tEy4AObLc1FOfmSnBtHQeQdwPXf5i3Tc/ZTLibsbIuzayTc1d89j1sQ+67EbgnJ15lgC7KTOCCgMPtwq0EIno5C6aWbKIuJjGTVzG76dBxat72eE4tllZa3RzVI904V6ruExhgbGtNB2rkV8pJ133jlN9ix5elGtsOby5MSkYCtbcqOhrFa0I9FL2Pe+J8hjEmri244Ito7CDdFyqx+zxdwkiB1vMmzksGsBzyzUSZ2CsCmf2ad9OldORo88llV+r9m5eRHTxfMR2JzqPLB0OPxUv4iF7PfojHkZ0+m8Zxq+UUObABkeY1mS/akTEBI/6efNm5e0vaE1J/cay5Mm4j8ZvpuZMHkZzk2OaT5CHoLuI1po6cb08b/OxfTJ20AgCGEIJ8Fg7iCjS4SJ7KRO5VoN4XZIUM8444w0OY76m8WyMjHN5y0m04hWtozJi8u+P5RIbh7icSsPLPa7hYHYwYEpGR5p0Zbpdpx0jyd+pTQRzd4o6O2Yy4YmLGE+tEsf95kHJquEmGmlE8ZkLdLkRy++jubOnZs6nFUT5kyziWRjnXXl9eKeEcwz3n333U352soDCy+Yi+z+fPeHXrSJYpvxMZ6YOzHB6pap+USxm7zs6vxTPK1mKG9FwmZ2Qmx8v2bUWGezNL281s48bKUkKJCZ5IZYa9Kw6WjE6UbnnntuJabUeMkq1KDxReNt+2Tmo9xaKYTJbEdeV61Jkycs54UD04EDfVmlmQ6MKc8wPTlQBH56vtfyVC04UAS+BWPK5enJgSLw0/O9lqdqwYFagR+WGE8Qfzm0oMWzDNVlwCzt9kW2W+LsElv4dZt3mNJP+xhPPr37Atj4A0mdCMFrv/jFL55IEaPyRjs//elPj1wHRtPuXgmaD08EHhyiW9pkk02qTr8FdFI2CMEg4lxNa48njA8YgS+R+ceMVh89OnlZ/UhD+yIoSFt2x27ArsU95xMhoC1OIaDF3RL+Nbr/dVtGnh6YzFfq8Yw2eTnT4bz2w9N4H5CwNwOF1cVUImhAWlB7XpAvlcccc8xI1I7VVlstxVTSqS688MKEQ9c+mnDDDTdMGBdfG2F25MtxMK2eAwaGf2gzINohhxySkJI+2UN3gtHCvAS1ivHkPswPBxF05JFHprhSznlbuU7745FzbVCXD1lMmX333VfSBBHgxRQEksFJI1Cm+KtDaZtyPS/IRrdxrlp5oUW90+1Ya8OP92H322+/FF8J1iS8a9jg0IfwGq47iqkUJLgYIBWBPeKII5JDAyRhENNAnCaOIUBXMZroKBxDxFByBEkOMFTkbXU866yzElqRj2kj+UoIAEeoBELTsQK7HzGe7BrMTRF4y2gRJJ/tvGlp5kQQDavca665JuHnOcsQ0HCO4ZyBNyAUuUeX/LzD7FQsphTTa9kFTh+EFSlXWB2eXRxrQJrD6V15sO4I/7gnchVEdV5oKcE0/NMXgWfCEAa/2II6hBBclZYiuJCHERhhzTXXTC86tHoeUQ/f7edOQAkSYQ8PJMhCyEMCABBGy3dqN9OydjPOA6vFOybIEJJ8WT0HgpNHeYwnEAXtgkoMghXScZuRexE4TQcF3wjh1hk8J4x7IxFovgM6EKcOkI9Zs2aNJPO/jqYT0foBZTYSgCOjiHMVOzhHR2vlhTZS+DQ66YtJQ4M0mjQmrobdXJvS8qEBDfOw5K2IlkWBYQntb9QA2yUsBIXG78b+JahMBdozJ8EXQIsJUjhpaCOqi/GUl9HsnDCCFofJpYPWITeVAemok6sf/h5BdOZOLznSkTmYjzgpQ5M/dV5oUJfTkfoi8M0YFc7BrWIqEQJauhtiXxP2y/67iwFhnz9/fjdFJC1Oc2688cYj+YwQhnv+oTfffHMyDw488MARM0rHClt6JFOHJyHoHSZPycIrjKZuthuERJ1ArXNPKHl0ZqOsn44YzxT1STPdqC8mTTMmtYupxNQx6SJ4BJc932ozoijfS6YhaTMjBex12PaRppMjGzz3zoo8TA0jU6PJE6s6JtnqNj/JdzWI/L06ek4jm6XZcBZno5s4d0Kt4lxN1Autk7qHLU1PNXyd9moXU0kcJKsNtqLzU9Zxxx03wq9GDeZ/aazYmMQyo2gpw3k7amynIMKEmm2MmGNsbeYSCjMq8tXFeLKrWL77Wmy4ZKIZFOXE//FseJB/s5DH82y3INiayaZVm1gEkDfmAlFOfmyso1mcqzovtLys6XReCw+2DQW7Ot/0aKIPT3szGdifMaHNy6RpaUzR8zoRXnkNyVZQcs8j5k7jEB71EDCdox1Z/VB2q+8I7rWK8dSu7PHeN3fRKTxrp/xpV9dEvNDqyi4eTwu4Q9jqPJ44DOTeSXUMjXuENxd21+fMmdNyizxDfKOzc5SVH9m4daTeVjGe6vJN5J65UMyHJlJOnteEv+6d5Gmn+nmtSYOx7V76sDLgQx/6UMuVinY+q8P6TFOtXTpS8Xiaam+ttHdacWDSVmmmFdfKw0xZDhSBn7KvrjR8PBwoAj8erpU8U5YDReCn7KsrDR8PB2oFvp8eT9baOUh0S9bX7WkeWJpu85f0k8eBYfR4ql2WtOGpD0/wJJ1Q4/6H8vji1ywmkc/k4K12ru2GAKi0y3bbvV6P7qYdJW17DoTHkz30h4VqBX48jSTgBx988EjW+Gw+cqGcFA4MkAM9F3jP0ggNjufj8MHrSSdo3CeyzsNIHjGNQAUav6hG2eVYONAJB3ou8NCKOYTV3uW+evKpnDVrVnKMgIwU7yknX+U4MEjP1OFhxDMIznuHHXZI5gsXO8CyQoUD4+VAzwVeQ3KwVZzb25y5w8cTQRXyJgriYaRT8HziYQQazMNIHg4dPKDMJZxvu+22ka0cCwe64kDPBZ6ANgbW0qIVVlhhlIcOsycX+FYeRoH/vuWWW9KDhbtaV09ZEhcO/JcDtcuSveQSf0ow1CDLkkHhYcTbn50/77/+ocyjEPTwhmp0xYsyyrFwoBMO9EXgec3nPw3hgGANnX1uuSrX7tHQZh5GRgLRKZgxcOC5K17kK8fCgU450HOThla2tUVOvImsrtDyJqt+4RgtXTsPI/FHfQTjETRscNP8Ocv58HNg0j2ewgO/cVkSq+o8jJhD8pZlyeEXqmhh8XhawIlYtQmm5Mc6ZxPLlkXYc26V8/FwoNaGn8oeT+NhRsnTWw4Uj6fe8rOUVjjQNQdqNXzXpZUMhQNDzoEi8EP+gkrzesuBIvC95Wcpbcg5UAR+yF9QaV5vOVAr8OP1eLIjFyiAY6GZy4Fp7/Hk45CvrLaZjk1Nzz///JEN+Gfuq5+ZTz7tPZ5ACIRxsfEnFzzBDjrZp3xmikN56kFwoNak6bZBtnAGGbArrW2s7W4LBxPEcwkS0q64/BwjYp4IeqeeemoljhOCi7cb8OzZs9P/sPMnn3xyyiddAZAltpQ/4+BATwXelthLLbVUCupFuMOs0S5w4FYxnkCAbaAa+63bFlqABA7eyhAzCs5emEkeULye7CVfqHCgWw70VOBpbZvsw6wTbi57EaKlXYyno446KoVxOfHEE1NIGYHN+L4uv/zyafIrdpF92e0hj9Zdd91un7WkLxyoeirw9isXNc62HALhIv6oCJadlhbjSSfgwpfHeLL1tAh0VnbY//fcc0/KF5HzBBhDws3AxzN7ChUOdMuBhbrN0Gl69jsnkIgUF3vItIrxJBDCm970poR3F6FPXoHMAl0pip0ACvalsXtBlNdpe0q6wgEc6KmG33333VPcIfGWLElZpQnBbBfjyXImE0acJuEkBREj3AIOGBne8IY3JK0esV0jPlF5jYUD3XCgpwJP0LniWWFhaxNgE00UMZ50AtesurDDhcCxJYe1e47cghWw37kDvuc970n/W5lh2jCT5Ld9R/i6dvOwJW3hQM89nmyjQXhttSG0TCO1i/HUmD7+1wFMhu1bk7sHxv1yHD4OzAiPJxq6Ll4QrV93v9Vrs64/nnytyivXZyYHak2a4vE0M4WiV09dPJ56xclSTuHAODlQq+HHWWbJVjgwtBwoAj+0r6Y0rB8cKALfD66WMoeWA0Xgh/bVlIb1gwO1Aj9ejycYeNiZqULrrLNO2pq7WXs9yyc/+clxxaNqVt5MujaMHk+1Ai+W0stf/vKO3xHgl+AHvqTaB9LX1Kkg+FtvvfUI5qfxYQ8//PDKjmjdxqJqLGcm/h8eT8P07LUC321DoSTh3o855pjqHe94R7XwwgtX++67b7fFTHr6OXPmVPPnzx9TL2y/jV7zmFVjEpULU4oDPUVL8li6//77qxtuuCExQQTAVVdddYQhNks96KCDqqWXXjo5dviwxekDNNho8LnPfa66/PLLU3rYelBjGBxeUpCSyyyzTMLnXHLJJSm9hHA4G264YYIV+xrL20qHAzhDUJd777132qjV/6DHEbBhu+22q0QmQTyzTjvttHTuDy+rvfbaq4Li9Axf/vKXq2984xvpPpyQ8jmh8OPlvGIk8BW50HBzoKcannAEnNdjQz3yWIJ6RBCRRgCO3QBihBhGBhGc3P8VJucxj3lMuic/fA6BFB8K5DjSwuaceeaZ1aGHHpqOL33pS6twNpEPAA2cWAc67rjjkuthKnTBn3POOSd1KmXYmz6onZeVjguuDAINw69TcW8sNPwc6KmGZ8PD0gRxCEGCCHPcMImhwWls1A3iUVoa9pvf/Gb1hS98IUUDPOuss9I5lCagEhOKlhdRBNHehB3KkuZHOaz4vvvuq/w4lOQUXlZQmmDN1113XYoxBd1pFELseh5dyFzHKGA0KjTcHOipwDNNQpt77Dj/3e9+l5COrhGe8VAAx5gSOhKTg8BzJVxrrbUquA2dirY2OiA7KEgfwt5pvZ14WfHWCtKeGHHiWjkOJwd6atKIziFoQRCbm8DR+iEgvJmaEfuXSYTM7huJSROkI5lMMocI+2WXXVa97W1vq3hT5WQHBeZJs/LydI3nYZYxW5D6Gr2sir3eyLWp8X9PBf7qq69OtrDJqxUO4eXvvvvuxAkmAHy83QxE5qOJTThjd7IHHnigWmONNVL+ZmEp+cAyVeQhxISc0DFhaFdmDW8p94KuvPLK1OGMAjqMeQI3wnZUvKzacWjq3u+pSXP66adXJo377LNP4ghHjTxIsZ0JLPGFJiasJn3IRHarrbaq7FrArka5FjVSiPKH7rjjjjThdX7hhRdWr3vd65KXFZMq5g3u6UTmCzqQlRtkoqydyCQ4Oog5gB9hNwFmv2+zzTYjzujtvKy0r9Dwc6DnHk8e2SSVNr333nubcsCOA7Qy7Z8LNW3PJArzJzLbuMkE8fvf/36aYBLknORjd9eFxFl2wV6X9rpp1aa8vDgvXlbBifEdZ4THE9ZYXw/n7WasYls3C2pGQzcKe54/NH9+zbl8dcIuTZhWzjslI1BMljvNU9INNwdqbfhh8XiysmOSWmhqcaB4PE2t91VaOw05UKvhp+Hzlkea4RwoAj/DBWCmPX4R+Jn2xmf48xaBn+ECMNMev1bgx+vxNKxMXHnlldOX3mFtXz/b5cv25ptvPgKT7mddgyy7nZdV7ZdWKECY9ptvvrmjZ4Bph4fx1dEXz3PPPbeyr/uwENy8j16BuR9vu3hzNXpy+UbA6WVYCR6IwN95551Dj+r0ZXzxxRdPcO5u+RleVuDgzahW4JtlaHfNByDeQ69+9asTLt2X1OnoHgcBGnAFPHnwwQfbsWag98E8+CPcddddA21HJ5XDTOX+CZ3k6TRNzwWeZgfH9YOjoVVD4AHHtt9++4Q+hKD81Kc+lZwoNBbmpZVXE1jA/vvvn3q9DnTppZdWJ510UnrGOu8jMGHue1CbMO8+hIAXBNW1J9K0Omp/q49hdV5Wm222WbXpppsm0JxOcuyxxyanFvUYIZUpP4wPnFBoKgIA4/PkJz85wTHwV4eD3Q8XRHl8qQ4nGzxFMEig0ujII49M++6nfxb8qfNCO+SQQ1JbQCx8zf7qV79anXHGGelauzp32WWXhE0KlKn3JMiFZ5OX1SA4hncCNsKZhjP9dgu80ORB8Ezo3e9+d4KEgKvwmHv2s5+druOVTqxtnVKtDd9pIa3S+SwfmPi6GE/yS9fMq4nt6aHgZT7xiU9UV1xxRdpmW3mozvtogw02SMJ+9tlnV9/+9rdH2a/t2pMKr/nDNNKh42f/euQ5WnlZcW3cYost0g7IOiwBPeCAA0Zq8UJXWGGFBG4DYgOKC3CbOFfq5GoIyAakt8kmmySUKN4EIA5G6aqrrhoVEohA4R0FAFWaE95GB2n0QgthlEZwCkhVNrIy6urUoTnfEOITTjghwbj32GOPVK02yEtoKTzCqlx07bXXpgiQdojm2yAapF/AUPDKDtJ4AF+17AJFSIF0Q30VeJBgL4wQhNsdFz0P64V6cPu9B4VXE59T8wAa2ERTfr3Zi6EVaWuCExTeR+YLGBh+tGDImPX5z3++mjt37qhttjtpT5Tf7GikgZuPX2CHci8rfrI8rLw0FNFQ+L9edNFFCSlKALy4IF5THFsIKN6F/4DOcuutt1Zf+9rX0o4QTJSIgiivPISEkiHw4TrpnmvNnGB0MAIs/bwFowH+E+5AnBp9hBp6/vOfn7Y/V9Zyyy3nkKhVneutt156D9qj3Vw9jbLeY5B3YqTGh/ChAB/XBu/YCOrcLzQ4/wTAQR2O+6f3PmvWrCiyo+NCHaUaZyLaNyaweYynKM7wm2ucAGpFHl5NHKSR/DFRJMS5zZwDzrys8D7iZB35lSFf1NdJe+RpRZzVwxk8T1PnZbXEEkukl0dzIg7liNDd/V+/AZoUBVAO8pTgE2Cw6CDPsthii6V/8QsBuxEOZluMDOlGiz+EEbXyQhOgwqhLsGJPfkJLkOvqDEeeCGinDuZqtNf/kK8IHztpq04hnfqjXJ0il4NUYJs/fRV49mW83NCArWI8aWczr6Z48TRQMy0lXw4x9n8Q7RvawzUz/9BenbQnyunmSBC9GKsF0YEjP8ExqvkRzLBFG+HOkT6OhMsvBNR1Nn2zgBORp5NjKAqjyPXXXz8qi4mj+nRq9jYndWGIOhFOPNbe8IvIC9a5Uat3Fmkb6wkeGeVyH4tI3+mx5yYNDcqkYG/RooY91C7GkzTNvJq8CJrLZMYLoOnYtp3sEkCL8LwyOWJqhObvtD3StSKaxgQsfiGMdV5W4UC+8847J95Y9vVsrSa/ed06L/4wKZhGhnTD/URIB6zzQlO2juU9irLeKVnKNjL5juN9GWltdtUpGeXUS2mYwyEdhPLjRcdURWTAPK0b6rmGp6X1bL3c6kx4NEWMJ/YdVz7EFo/7/qcVmnk18YLipmeIjXRs3FakHKSzEXSzfGQIDOqkPZG22dELZe8G8eflV0sTGY2aeVkZoezZE95V2ilt2KjKatR88b+dF6yasP+Rl28VQ4cLUl784hqz0MpGUPDCpM+KSysvNJ3QCIXvKEZa5UebXI/6HINMyMkBIQ9Bl5/dHpSnj2txvOCCC9KOdybRNL0VOsvd5kKCVofHnPQmxt1QXzye6hqgxxou2V7suqB2Xk3SmbRasvLwOdOjjFZH2pepEXZonq5Ze0wkWxH7uO5l5fmWXTAZbeZlZbJI6xGqbp5D2Z4F72KIz+ubyHkrLzTzMCaYEaZbMgqarHrPRpNeEWVj1CEHYaJG2e28rHqu4aPiVkcvuNG2zdOGJsmvxXkEK47/Oz1iTCtqbI+h1IjSiqz2dPqlNiaijWWZ19TxoDF9/n/ds+Tpuj2nEPwaaSKCShjzRYPGssf7v/lXzMG6LaNW4BU6kQfupjHD4tXkC6o171ZU1yFb5SnXJ48DlAnzshXVmjStMpXrhQNTlQM9X6WZqowo7Z4ZHCgCPzPec3nK/3KgCHwRhRnFgSLwM+p1l4ctAl9kYEZxoAj8jHrd5WFrBd5n6xx/UthVONANB3ylzeHE3eTtV9pageeZ4lNtocKB8XDgta99bUJYjidvv/LUCny/Ki3lFg4MigNjvrTS6OFFwt0sMBY+2XIjyz2N8kZzIwPhDThnfk/UPdj48KvM73Fq4ASQez7FfZ+IYbFb3ROUbLLbM2x12hli/fXXD5aNOvbrnbTjAYQlwBloNmwSDDvioxsQ6VENncR/xmBp4NnZXkGQg/6HUoTBDqeFuB9H+dxrJvCEFnIwMOORxxHASB3NyoUK1Bla3RtEe4atTgLVjD9426930o4H5n3eqSBzKORJewZNYzR83iB4a1Ey9OhChQPdcmD27Nlp9LFTxbBQseGH5U2UdkwKBx6+YLg5rFVNQP+81sMvtVW6cr1woBkHOKnY6Wy8fgzNypzotVqTZqKFl/yFA8PGgWLSDNsbKe3pKweKwPeVvaXwYeNAEfhheyOlPX3lQBH4vrK3FD5sHCgCP2xvpLSnrxz4fy/CoVHfFLm+AAAAAElFTkSuQmCC;" vertex="1" parent="1">
          <mxGeometry x="10" y="270" width="188" height="237" as="geometry" />
        </mxCell>
        <mxCell id="PZrZSrdKlhRtxC-y3ePN-7" style="edgeStyle=orthogonalEdgeStyle;rounded=0;orthogonalLoop=1;jettySize=auto;html=1;" edge="1" parent="1" source="PZrZSrdKlhRtxC-y3ePN-6" target="PZrZSrdKlhRtxC-y3ePN-1">
          <mxGeometry relative="1" as="geometry" />
        </mxCell>
        <mxCell id="PZrZSrdKlhRtxC-y3ePN-6" value="" style="shape=image;verticalLabelPosition=bottom;labelBackgroundColor=default;verticalAlign=top;aspect=fixed;imageAspect=0;image=data:image/png,iVBORw0KGgoAAAANSUhEUgAAAWwAAADuCAYAAAAdkD3eAAABU2lDQ1BJQ0MgUHJvZmlsZQAAGJVtkL9Kw1AUxr/UaEEdOqiTQoYiVarU2Bdoi4jgEKrin0XSNKaFNF6SiPgGPoEuzg5ObhVdHLSDCA6Kgr6AeyEOWq7nNmpa9VwO58fH4fDdD4hBZ8yWAdQc3y3O55W19Q0l/oo+yEiQnNINj+U0bZEY37O7gkdIYt5PiVtonpwNv91N3khj1/ylKv3d76r+sukZND+oxw3m+oCUJNZ2fSaYGkMumSLeF2yFfCS4FPJpe2e5WCC+Ik4YFb1M/ECcLnXoVgfX7B3jy4PwOGg6K0vCD/Uo5qDSy2KGcvl/L9veK2AbDHtwUYWFCnwoyJHCYMMkXoADA9NIE6vIiJsi39+5RdrmLZ3OALFkpDkecHFO1vKRljqkL4wAjQbTXf0nTSmQva1ZNeSBOtB7wHlzFYhPAK0nzt/rnLeOgZ5n4DL4BJb7YUElmhniAAAAVmVYSWZNTQAqAAAACAABh2kABAAAAAEAAAAaAAAAAAADkoYABwAAABIAAABEoAIABAAAAAEAAAFsoAMABAAAAAEAAADuAAAAAEFTQ0lJAAAAU2NyZWVuc2hvdDSKPbsAAAHWaVRYdFhNTDpjb20uYWRvYmUueG1wAAAAAAA8eDp4bXBtZXRhIHhtbG5zOng9ImFkb2JlOm5zOm1ldGEvIiB4OnhtcHRrPSJYTVAgQ29yZSA2LjAuMCI+CiAgIDxyZGY6UkRGIHhtbG5zOnJkZj0iaHR0cDovL3d3dy53My5vcmcvMTk5OS8wMi8yMi1yZGYtc3ludGF4LW5zIyI+CiAgICAgIDxyZGY6RGVzY3JpcHRpb24gcmRmOmFib3V0PSIiCiAgICAgICAgICAgIHhtbG5zOmV4aWY9Imh0dHA6Ly9ucy5hZG9iZS5jb20vZXhpZi8xLjAvIj4KICAgICAgICAgPGV4aWY6UGl4ZWxZRGltZW5zaW9uPjIzODwvZXhpZjpQaXhlbFlEaW1lbnNpb24+CiAgICAgICAgIDxleGlmOlBpeGVsWERpbWVuc2lvbj4zNjQ8L2V4aWY6UGl4ZWxYRGltZW5zaW9uPgogICAgICAgICA8ZXhpZjpVc2VyQ29tbWVudD5TY3JlZW5zaG90PC9leGlmOlVzZXJDb21tZW50PgogICAgICA8L3JkZjpEZXNjcmlwdGlvbj4KICAgPC9yZGY6UkRGPgo8L3g6eG1wbWV0YT4Knlf4hwAAQABJREFUeAHtnQfcFMX5xyexxIgxsbf4t/eCDTuIoqIoaiyooAgKKhgQG3ZFxS5gAewRFStKUVQQQRQVwYIighiJoKhBjT0xakz+73eS55jbdnt7t3d7d8/z+bzv7u3Ozsz+dueZZ5+Z+T2/WHvttf9jVBQBRUARUAQyj8AvM19DraAioAgoAoqARcCnsH//+9+bNdZYQ+FRBBIhsMQSS5jmzZubX/ziF4mu14sUAUUgHAGfwu7Zs6fp3r17+BV6RhGIQGCllVYy5557rvn1r38dkUpPKQKKQBIEfAo7SSZ6jSKgCCgCikD6CPyCQcc111zTnHDCCba0DTfc0Pz73/82f/nLX+zvW265xXTs2NH88pd+3T5p0iSzySabmLXWWstX0z//+c/mb3/7m9l555195/7+97+bJ5980hxxxBG+cxz405/+ZLp06ZKozGWXXTZT9akGBlFlvvXWW6k8k6222sqst9565le/+pXhHZo7d67517/+Zd59913z0EMPBT5nPagIKALFIbAkyZdeemnz29/+1l4pill+45PcYIMNApUnjX/dddc1//d//+cr9Z///KdtvFzrle+++84st9xyNl/vOX7zOZ20zN/85jeZqg8KrNIYRJWJMk+jPuDOO7PkkvaVMvym42eroggoAuVBwFrYblZXXHGFQdleeuml7mHdVwRiIbDqqquaG2+80Rx//PHmH//4R6xrNJEioAjEQ8Dv54h3naZSBBQBRUARqDACSzR9xvZzy/zrX/9qZs2aZT7//HP3sO4rArEQ+PHHH80333xjfdj/+Y+uyYoFmiZSBGIi4HOJxLxOkykCioAioAhUGAF1iVQYcC1OEVAEFIGkCKjCToqcXqcIKAKKQIURUIVdYcC1OEVAEVAEkiKgCjspcnqdIqAIKAIVRkAVdoUB1+IUAUVAEUiKgCrspMjpdYqAIqAIVBgBVdgVBlyLUwQUAUUgKQI+hb3DDjuYtm3bJs2vLq6DD/yggw4KvZfjjjvOQIpVKxSi8MF06tTJ/O53v8u7p6WWWsoMGTIkR/yVdzLiB3wzhx9+eI5/JiJpUaf03SsKLk3cgAj8l6nHufHWrVtb8qTx48c7R5PvDh061Ky44op5GcybN8+cf/75ecey9GPbbbc1Rx99tHnsscd81eLcfvvtZ6666irz/fff+84nOSD8G3C4wFJYbllmmWVM+/bt7QrWr776Kpf9RRddZFiNeNddd+WOxdkhPxQ2z3HGjBlxLomVptzvXqxCNZEiUEMI+BR2uetO5JHPPvvMDBo0KJc1S5ezLM8995x57733AqsI093gwYPNm2++GXg+ycF27dpZxYkibKK7NR9++GGSbIq6Zvnll7f0t1deeaVl1SvmYjqqfv36mffff7+YyzStIqAIlIhA6gqb+v3www85fm23vljeWHmrrbaaVRoowWuvvdYqL9LhesCihddkiy22sJeiLPfff3/LeY2CQ7nBxw1l64UXXmi+/fZbM3DgQPv5T2fBcTqLt99+217P53yvXr1MixYtLBUoVi1lynmsTdL89NNPplu3bvYa/nHsnHPOsfUQlwBK6+uvvzabbrqp/WKAbpb6wlIHp/eLL76Yuz5qZ/vtt7cdBFS1WO+33357Ljl59+nTJ+d+gOfl8ssvt+6YqPvcY489bP2hO/3ggw9y+bFDOX379jUrrLCCxeHZZ581d9xxR+4+SAN2n3zyiSFkHF9bw4YN47CBzVH4z1H277zzjj3OP+hVzzvvPPuFxvVY82ANljwb7gX3DL8fffRRM3r06Ny1uqMIKAKFEfD5sAtfUnwKfMLXX3997m/jjTe2mZx11llmlVVWMSNGjDDTpk0z2223nTn44INzBaAAVl99datgSDNq1Cir2DmOUuQauLgffvhhQ+CCffbZxyrWjz76yAwYMMBcffXVBjIilJNI165dzS677GIt5Msuu8y89NJLeb5d6jl16lTTrFkzucRucQFsvfXWNj3KBjfGGWecYc/BP40/GOv7tttuswrpqKOOyrs+7Aedzsorr2zvZcGCBQblLcK5Cy64wHYsd999t7nhhhvMzz//bE/TaUTdJ/SmKEwUMfmLcB0dDfXFD//888+bvffe2ypmfPIcl4ADcFm/8MIL9rxcT0fEddyz14dPvqLgwRYiMRQ0Ip0YaVDy4KOxQwVV3SoC8RBYMl6y0lIReWTRokW5TMT3i7KdPXu2GTlypD2Hdbrbbrv5LC+4uV0rkQg4uCywYIloM2bMGKtUsNiJZtO/f38b9QQrGuvc9aHvvvvu1kWDVY2IZW1/NP3DyhcLUo6xRcmTN4N0yJZbbmk22mgjuy//hg8fbqZMmWKIa3jYYYfJ4cjtXnvtZa1ZrFzkmGOOsZ0FZe25555WWd900005F8zLL79s00XdJ50cCpXOA6uf/c6dO9vr6BDoCIgIg3LlC4TnQ/SfyZMn2zRjx441uGmIOoTCBjMRcP/444/lZ25Lh4kCxp007H/WuIstHSidM3nxLhChho4bK15FEVAE4iFQEYWND5vPZ1f4ZMb6IpSYCOnwrbrC57OrrOUcx7GehcITy5PIOaKocAV88cUX9hjXYDlyDcrq9ddfl2xib4mQ8+mnn+bSo7j4xHfljTfesD+J6sL9xZGWLVtaq5nBRrFY+VLAXUDHwf0F+cuj7pOOChGFSacoItGB+ELgDwF3FDfi4ikYx7kXyfeVV16x+Xj/XXPNNdY/jwtJOmyehYoioAjER6AiCjuoOigG/qShkwZLGB+0KyjlIBHF4j2H6wJljQJE4fTo0cPgz8UVgJDfuk0+3GIFJeNa6gwOintC8iIkVrHC/VMnUf7kueuuu1qFjSJFWRIj0TsIGnWfoqi5T6xkYi2KSKeDFeztCPjCSSpiKfPl8eqrr+Zls/7669vnjO8di7958+Y2snqcjiAvI/2hCDQ4AhXxYYdhjLtCPo2xKrFiRdmEXVPoOFY7ypk5xwxUeoMAz5kzxxB0mHnWpMPVQR0KCddh/eOmQLnyh0ItRZh3TH0ZFGVwjr/p06dbSxRlhnuFjolOhw4Ct8ORRx5pi4y6T5Q0bg7cIFjR7pxylCmdAh0anQX5MNCJEi1FsJzpbOkcsfDBFj81XzYidHjUh8FkFUVAESgegdQt7DBLmKrim2X2gMSPxPq79957Y9+FN28sXAYEW7VqZfMmIwa+8OmK9Uu8QXzc+MH5Iw8G85CTTjrJKmT7o+nfgw8+aHd79uxpsEixHkmDMPOFvFzx1sc9F7SP8kd5zpw5M3caPzKdyE477WTwV1Muild87twPg4KF7nPcuHHmwAMPtHXE3y3ClwJz4+kEcFMg1JuBRHeONsfkT65l0JVZICJnn3223QUnXDgM8jK/XgZjuTcGiulA+EKgTESs/GLxshfrP0WggRHwRZw588wzreXVu3fvisGCpYcPFZ9zuQQrGgUUFgiWWSAMujEzg6l9cYUZF/iaKzFX2q0T7g1cJ94Bv6j7xCKnvkFjAOTN/cu0P+nQ3DKT7jO4yAyT+fPn5zpK8mJ2DxZ3WPi5arx7Se9Rr1MEqoFA6hZ2nJsKUyhxrg1L41Vs3nRYncyUKFbClE2x+RSbHuUXJFH3SWcVhe3ChQuDsiz5GK6iIHcRbhMVRUARSI6AT2F/+eWX1jpKnqVeqQgkQ0DfvWS46VWNg4DPJdI4t653qggoAopAbSFQ1VkitQWV1lYRUAQUgeoioAq7uvhr6YqAIqAIxEZAFXZsqDShIqAIKALVRUAVdnXx19IVAUVAEYiNgCrs2FBpQkVAEVAEqouAKuzq4q+lKwKKgCIQGwGfwmb1m/IUx8ZPE3oQgJsEXpJ6IHbStuB5uPqzKATSaAs+hQ1vRvfu3YuqmCZWBAQBuMDPPffcHFWsHK/FrbaFWnxq2alzGm3Bp7Czc7taE0VAEVAEFAEXAbvSEQKhE044wR6HexkiIBjWEFjcYLUTPml78H//Jk2aZDbZZJPACC0EJoDI30tvyqXweDz55JM2yombn+wThgr6zyRlQngUFDGmWvWpBgZRZcJHncYzgaIW3m0CK/AOwdMCxeu7776bCzkmzzfL23pqC1HvQSntr3Xr1onaZlr1yZoOgto5rbZguUSI1AKTGiJKUn7jhyFWoRx3GxuNHxY5NwiBnIcBj8bLtV6BmQ/u66BzpIUNL2mZsMRlqT7VwCCqTBpNEO6lPhNw552B/Q/hNx0/21qSemoLUe9BKe0vadtMqz5Z00G872m1BR+XCFGxUbbCUV1LjU3rWn0ECFAATzhBgMOobatfy3g10LYQDydNFYxAGm1BfdjBWOtRRUARUAQyh8ASTaZ7P7dWRDSZNWtWKMm8m1b3FQEvAgRZ+Oabb6wPu9Yjymhb8D5d/V0MAmm0BZ9LpJgKaVpFQBFQBBSByiGgLpHKYa0lKQKKgCJQEgKqsEuCTy9WBBQBRaByCKjCrhzWWpIioAgoAiUhoAq7JPj0YkVAEVAEKoeAKuzKYa0lKQKKgCJQEgKqsEuCTy9WBBQBRaByCKjCrhzWWpIioAgoAiUh4FPYO+ywg2nbtm1JmZbjYghUWN7M30EHHVSOLH15wJPSqVMnQ1nVlmbNmpl7773XbLHFFmWryrBhw8yee+5ZtvziZgSR2Iorrhg3eWbTZaUtVAqg/fff32y66aZ5xcEhdPjhh+e4hvJO6o+CCJS7LfyXqccpFiYuyJPGjx/vHA3fRcFceOGFvgSXXXaZefvtt33H4x4QAqjVV1/dEk899thjcS+NnW6ZZZYx7du3tys7v/rqq8jr6Dj23XffvDTz588355xzjjn//PMNbHXITz/9ZCDFGjRokN3PuyDiBw/2hx9+yMNsxx13NKeffrrvqt69e1vO8o033tgcd9xx9jxBA6jLnDlzcjwwb775pmVafPbZZ315pHlgn332MdOnTzdffPFFmsWknnexbSH1CiUo4L777jMYJq6ceeaZZuHChe4hu9+hQwf73N55553cOdoICnvevHlmxowZueO6Ew+BcrcFn8KOV43FqYTFD0rU9957L3fiww8/zO0n2fnkk0+sIjzllFMMlk61ZcSIEWby5Mnm5JNPNpC6QI717bff5qqFor788svNNttsYw4++GDTr18/W/9cgogdWMx22WUXQxmuSNSWm2++2bh4fv75524yaxWhrBcsWJBT1iS4++67zdChQ03Lli3NlClT8q7RH42BAMEkINI/++yzzdixY81LL71kPv7449g3//3339t3+f333499jSZMD4GSFbZU7aOPPspxaMuxY445xrRp08bQS3/99de2p2cfJTJ16lRz1VVXmaWWWsoqQGg54eBG0aH8Cskee+xhunbtavPGMr3tttvMiy++aKlZBw4caN0cKDxoQ7F2xdrnum7dulka0A8++CCvGD7jL7roIrPaaqtZalAs1GuvvdbAiYFy5g8mw59//tl3r1CJYpnwh3uDnhVXSyHLnQpsueWWNqTW888/n1cf+YGyFn5yOSZbqCX5woH34rzzzpPDdouFC/c4/NdZUtjrr7++Ofroow1fT7169cqrs/4oLwK847Q95LPPPst7jwiBdvHFF1sKXN5TocaVGsBWKNzyV155pX23OYeRhoHA1zX7vHu0W8rp37+/vYZ2znvL9bRB3tFPP/3UbnG7YPXTzh999FEzevRoKVK3BRDw+bALpA89/cc//tEqRpQjChOBExZ+YSw9lBdKB+vwD3/4Q+48D/SFF14w48aNMzTkvffe256L+seL1qNHD4MVfv3119stli/CC0TnMWDAAHP11VcbCFj69u2byw7XBi/nHXfcYVZeeeXccXbOOusss8oqq1hLd9q0aWa77baz1nJeohg/Xn/9dZsKIv84gmuDTsFrOcu11Iv75O+MM86Qw7aB0UDkHuk0vEIjkkbnPVfJ3zRQxiIIiIEioKMhAIZK9RA46aSTbPtkrIM2gfHkCl/NPC++AHFRiuAi2Xrrra21jsLli1PeS9o8tLq0H1yrDz/8sCGoCAYMwjnyRcFj3Bx11FEaQ1aAjbFd8sQTT7TWaYy0kUlQDOIicBUHx1DG+FpRzFiT/InQ+956663250477WRatGhhnnrqKTkduD300EPtcfy1kKkT1QQFgCX58ssv214eZUleKEEZAMOi4+XDGsfPzH7nzp1zZfCCzZ4924wcOdIe23bbbc1uu+1WtAXw5Zdf2utR/nGEKCdEZwkT7kG4pbFmRFCCWPs0Jjo7orx4hbqATTWFBi6dNPjSofPMEDrfI444IrB6pUQeKiW6iVikgZWqo4O8F2Is8XV6++23590dLs4g9wnuO77chgwZYtPTnjfaaKPctVxHfrTHMWPGWCNM2iCGFO1i9913N4sWLbJjPxgsGF8qhRFYkoZeDmGGg7gd3PxQKCK4LlBM7iAIn2kiPLR11llHfoZu6dGxSFGoIlyL4hKFzOcdLgEsfATrAQWOSD1RHiK4T6gXocREqNvyyy8vP2NvV1hhBZvWVa5RF9Moovz0d911V96nrOQFtgSKxfLGCid4spfSlLpAd1pNwcUEtlhxWFWuP7SUyCconDSiCzWCwua9pk3IuBOGVZTR4L4/PDPcGyLk4c4uwdXBV5+8i7yn0g6vueYas/baa1v3Cf5xBPeJSjwElsQXlabIQwsrQ5Qb5xkc8boFePgysCl50PARPsNca55jTNNDWXfp0sX6yHCd4LcmD1HUNHTcM8RdE6Ge/LkKAKtAvhokXZwtszuQML+zNw+UGAOVWB5uB+ZN5/1NA0O5EOGFQSWUt1g9khZ83Y5JjldyS52Y5YPfmq8jLG46xkceecTMnDnT4E4LE2bEhMkzzzwTdsoe53M9TKLKDLumno7TiaNIUZ4Iho7Xhx12vyhasZhJQx6uYRbW5jEOaV8MzvOFy8wmBkVlcD2sPD2+GIGy+bCxjOll5Q+/VRzB58UsBixMLLFXX3017zIGJ3mZSENaZOLEifYhM2BFzEAG+VDQ7GPJoZzxmTMo4gacRYGi5HCDYKV753fTWTA9j080fG5YEqLkKZt7oyxebPZxsYhQJtdSj9atW1uFFNdSQ6HyknOPSYTpVtST612/OY2Krw6m2FVbGIDCugL7Bx54wOJ/6qmnVrtadV8+7wNBapE11ljDvrfyhctYD+4NXHJ8ncUVXJFY6Mzxl/ZejKHBe0n7kympccvVdMYsWSoIYuG6vmDyHDZsmM/6FSvWLZNPJ6buIfizvfO/6YlRRliP9MTMS0ZBkY550bxwCIp41KhRdtS5VatW5qabbrLHcUugWKWe+NMPPPBAa5Xih3OFaxjNlniWfPbh6kEOO+ywvHnYDJowjQ7LFuHzkvnYfBEw6IibIq7gKkKpsnBB/OdcG2apBOV73XXXWR8k9ZHGd+yxx1pf43PPPRd0SVWOYYlhbfOXxN1UlUrXcKGXXHJJzgW53377Gf5kHjYdJwPyjCnwXFwrmUFFd9aRvOcPPvigbdv4rRm0RHh/+cpzxfvu0v4wmHCf8NWLiFvFm9bNR/fzEfBFnOFh8tkS9Sman0XyX8wvZgI/yg13iHeaXaGcsWr5zELRe/3FWA24TmSwzs0L658ZImHlcf/kWcmFHygvBl+ZQUEnVQ4ZPny4uf/++82TTz5Zjuxi50Gjls/e2BdlMGEl20K1bh9rm6/j+U2LwMSoiVsX2hBfcO4agTjX8rWKgeN1f8a5ttbSlLstlGxhlwNALF2vtRsnX14wGTTxpg8a3ZY0KPEwZU2aqHOSR7m3+BTx8ZZTmAevoghEIYBVHXesxZtPUoUb11XoLU9/B7hEmAaGL7gSwkIR+SyqRHlaRmUQ4BNZZgBUpsR0SqlkW0jnDjTXaiNQ7rbgc4lU+wa1fEVAEVAEFIFgBMo2SyQ4ez2qCCgCioAiUC4EVGGXC0nNRxFQBBSBlBFQhZ0ywJq9IqAIKALlQkAVdrmQ1HwUAUVAEUgZAZ/CzmKUDSblw7JXLmFRTzUisZSr/lnPp9xRNqp1v1lrC6w7YFm/rPgNwgUyLdJ4hWXgEJllRSB6Y1GarLostV7QTbDuwF0yX2qe5bi+3G3BNw+bZdUsHPGuOAyrPMu4ZWWgpGG1H6vsWN5NhRHme0LQxPLkYqbywcsBx4a7AtAb5YYFMvA9E12D1YbUSZa9ZikSi+BT71ueeyNGnEm7LUCShDKOiv5CAA1W5cLT4opw1cCilwWhfbLE3V1diWHGknWE45CEQYPMop4777zT0ibDV4+wxoAVyywMY9UsaVjsBvsoPPtZkXK3BZ+FXeyNAipLWCdMmGAvZcm2LGkVUhd4qbFqWc1IQAAshbjCkndeUCF84jq5npWBrKiDx4BQX6xudAWeg7BILMw1T8rd4Zah+4qAIJB2W5DoL0nIvFhVTDvMgsCyiSUMC6VXWF0M8+RDDz1kydkINuIVqHpR1kTQQVmLEAgBA61S60ik3EpufRZ2sYVjTbNSSmIaolw55govMvwfLGFFocNnEHe5NEo+LCYhljo8IzC/0SFgRYjwiVRrkVik7rqtTQTSbAth0V9AiuAdMFKy8tdLwoQCk7igWKFEmBFBaYZFWBJlilVP+4YCgi1fsChcqCtYlg4PCLQQcJa4RpWUEbTFNcOCEr64vQK3EHqCP76k4TRxBd1x5JFH2uAXuEBcgTMH8jUCj2SJP8etY6n78U3dUktquh4aUR4wQQfiCP44rPRCS2fxhyFQdSKw6dVKJBZbYf3XcAgU2xbCor/gLsSNybtPTFB+u4IxA1cPitzr342KsISixpLnOowfFDjtFipV2DOJKIOSJhgIZcK7Eldo14U42uEaoVxC8olQNgoZ7CjXK3yB4Epxgyl409T674oqbMACUKhP44gEM4AGMkiwHHiRYP+Ct1r8cwxkoOixAMICNOiy4yBE9VglESimLcCZQ4xRrzB4jhFEzEVcAt6oQ/Dm8HUbpCAZq0IpMz6E/xiF5w5MEo2GcvENP/3007YcKJCJ6oTCxPUgMRu9HYW3nu5v2n9QfUhD/oQlu+eeeyyb4+OPP567lPYMZvDY02kECRY6edSrVFxho0zjsuBBX4qExSTE8oaPBJ+5UIqSnocKHSsvIFaE+NI5J5KFSCxSF902JgLFtIUwhDbffHOrUOV8oa9RSUeboHxvhCXX/4t1i5uH9iSCokSpM8APHz0zaVCkcYMfkA+uk7CZLrhK6GCIA9ulyZp2Jxtg7RPwgOg1YRY957zMnVL3ethWVGHjj+JFwc8dR6BejXKhYFFgYXtfUjcSC0EIUN5eQWFHMfp50+tvRaCcCBTbFsLKZnzIDRaCuyGO0K74w8oWwWWCkVNImAGG8mTbp0+fUGs5LB/8027H4KZDmTOZAN56lLcrfBXDpIl/mjEzCfknaeg46ITCGDwlXS1vS1bY+Jrc6Cvse90QTHdiVJeQXjyEuFMGAZZgqkxVSiL01FmPxJLkvvSabCKQdlsIumsG5FFSTOUjusxmm20WlCzwWFSEpcAL/ncQ9yP3ioIkiAi82MUILhUsdSLgJBHcMdAxE+aNeogw8EonRACRepWSFTb+JGZ+yEIURpFlXjbgIfia4XpmVgcuCjkeB1Q+vRjscKOTCNG6bKPyIRILFrdEzCBtFiOxRN2DnqsNBNJqC1jjEOEz8IjwLvP7kEMOsRYnVjaR5xlo97YJfNOkxXWCn5n9YU0zqhAiLDFFlvbKegnap0RYsgma/nnbKvkz5Y4vV75uu3btarB8i5HXXnvNukVkrUQx15KWOjCQitLHCBQh5N+sWbMSxWGVPLK+9dGrZjHKBp9I9JpsyyHVisRSjrrXQh4oBY04E/9JYSXK2gLvVfiQvUrYm4bfWLm4G3FVFCtJIyyt2zSLAxdFnPp564Q1zHREFsC4PnJvuri/+arnnSNOaDEL8+LmnzRdudtCyfOwk95IMddJ7LhirolKq5FYotDRc5VGgNV8YbMeMFRYHVxIkkZ/Id+kEZbmN83rTir4ocs5V5pxrHJHbEp6b2le51PYOt0tTbgbI2/GKeIMXmUdjUq1BVwcri/WxUXDablo1N5+uduCzyVSe5BojRUBRUARaAwESh50bAyY9C4VAUVAEag+Aqqwq/8MtAaKgCKgCMRCQBV2LJg0kSKgCCgC1UdAFXb1n4HWQBFQBBSBWAj4FHYpUTaYlxm25DRWbVJIFBaBI2lRzJctFPUjad71cl25o2xUC5dS2kJUncsd/aVjx442IhNRmcLmc0fVR8+lh0C524JPYUPVeMABBxR1B0xWZzEKkR5uv/32zBClcxMSgaOoG4pILFE/vMvvIy5puFNE2Qgj7KolMIppC0RGYpEE778IfM4ccxnwOAdv+1FHHSXJSt7yLrIakmXiYfO5Sy5EM0iEQLnbgm8edrG1gr9gl112MQ888IANSsDyXH7XqzC/mKX4LAdWUQQEAbFs+cJkFR+LQuD4QOScpCX6SzkVK0vSCSrg0i9IWbqtLwRKVtht27a1fANjxoyxyLz77ruGPxHcJH379jWw47GEFbIaVnaJtGvXzkaQ4AVmiSp0io8++qhdtURgAtjAEGK1YUkQ8guCKThL3nrrLfuiwvkLz4LwYUdF4CAKDdfTmFj2S1mw/okQ2YMFEyzXZbkvPCSnnHKKZSQLi/oBCc7AgQMtzzfLg+EPHjRokCWeknx12xgI8OxZcRe0ii8s+gvE/Lxbl112Wa7twLOB4cO7jLDal5B20JjCaIeShs1SpbEQ8LlEir39yZMnWw6DoUOHWjIa13LAssAaZRUXpORwV++9995GKCChSCRm46JFi8yAAQOslS4+cEjOXc5cfqP0EcogT0ihYO5C8conJgQ3fMqGReAQ5U69iFzBdS5rGOVsv/32BiJ0An8STBYljIRF/eA+CbLAPRA3j2vppFQaDwHiDPIOYfF6JSz6C3SjGDOQF4mgnIX+F5InyNUwSIYMGWKNDZjqVBoPgZIVNvSl+K9Roig/lFqHDh0skig+iQmHksb6wGKFWQzhRYQNDKv5lVdesUE1hUnMJijwj3Kx2J955pkcxWOhCBwoVZQ5NJR0FAj0r65QR1jAyBdGM1keHBb1A6pHLB4sH6x3eB3cjsvNW/frGwGUL4o2iIkuKvrLG2+8kYuLSluBDU/inuKbxighSgtffpRBNCbalkpjIVCySwS4sCr4w2VBz09U41GjRuXI0QldL+HrYRNDcSME2CX6TBK2L67nJUfgzBYrOCgCh8sRDJEOn6AoYeG78L74xX5qopyx9Plc5X6IeoHwFUBDU2ksBDA6iILEeE5cwaWIC5B3da+99rLvzauvvmovb9asmd0ya0WEqCpQDrsxD+WcbusXgbIobIEHxiwoUAnOueWWW+ZoDnmBg+LRYTGEBeTFreCGHVp99dWlmNw2SNEzGOgG4RT3CxfRoWChCPUnPkVCDomyl4ylQ5HfhbZM86OuXZpCGqGgiTHJwJN3sKlQPnq+PhDgC46O23VxFLoz2g5fau3btzebbLJJ3vgHSpkv0dNOOy00G9oLwniKGCKhifVEzSJQskuEQUPiKRJeiEG6Tp062cFDFDQWAgOJKDIUJQN9hKlHUSIykk5sOHzXKFcGMRGuxULFrYI/0PUz2wQh/+JE4KCuWPxBn60h2UYe5r5Qzvgumcq18847R6bXk/WPALOmxDKOe7e887zrXOcOhEOxyrtF1CbetTXXXNPySLv5EkwXpU5wDtLSdlTqD4GSLWxeEj7h2rRpY9HBGuDzDuuXnp7BSCxO4fQlPQOQyMSJE60lzjxVmavKICaClYKrQyLUBEVZJi+vwO0rETjwlbvWBlYMfmjqgwjReVA+3nyZ58pnrohMoWKeLTNNWrVqZf3dnOdzlS+CoC8AuV639YWA9x2aMmWKNQjwRYsQ/UVcgxzj3aG9dGkyaBCUNF9mHGNAXIRZVbjx4HEXLnfeXcZwRCj/iSeesAYRs0vIi/xV6gsBH71qkogzWJcslMAdEBaxGOsZt0FQhAqsAfx9DALKAJ/AjDWB37tYX3BUBA5mn1BmKaTvUj93S10ZeGRwqZEFRSFup1rGIUlbSPN+GWthsJE25m0naZareSdHoNxtoWQLm1vBkmTkOkqiBvJQxu7cbTcfmdrkHouzH6WM03rZk9Y1zv1oGkUAy3vu3LkKRAMj4FPYlYqy0cCY1/2tlzvKRrUA07ZQLeTrp9xytwWfS6R+oNI7UQQUAUWgvhAoeZZIfcGhd6MIKAKKQHYRUIWd3WejNVMEFAFFIA8BVdh5cOgPRUARUASyi4Aq7Ow+G62ZIqAIKAJ5CPgUdlpRNvJKLeMPFux4yZvKmL1mlQCBckfZSFAFvUQRqEsEfNP6oCZlGfn48eML3jBLaKEgDRJ4EWi4aQsrv1jSGzaPO+3yNX8/AkTZgJYWPg0VRUARKB8CPoVdTNYoZVmujaKHBhISdpaDM8m/EgLRFKsLVRSBciPA6ly4cD755JNyZ635NQAC8L5AggfNhpe6IOntl6SwKRR+DgRaU4TfLn9H0ogzkEjBicAqSHg5WLZ+3XXX5aJswL8A9zUybtw4G/zA/mj6x9JzOhK+FGDiQ6FDMEVecIIQg5KvA36PGDHCPPbYY3KpbhWBHAI9e/a0hsell16aO6Y7ikBcBKCPhg2U4Mjloqvw+bDjViZOOjhG+vVLFnEGrl/4QFhGTlAEIskQvFQEcvfrr7/esuTBvucKZWId4dbB4od7gd4O5S1kUgRLxXIi4jQcICqKgCKgCGQdgZIt7KgblIgz8B+gQN2IM8Q8dCPOhDHbQSKEJYzLBZ5gEdjK+CM6jCvLLruspWKFunVYEw83QlQchGgwkD7de++9limQKDcEHiBs2T333GPT6L/GRoDOW8ZeIDTjvSQOKALLJB18EM/5pEmT7PsZFC2e0GAwTwbR7uJWxPiQKExe9DFW+JrMUpm0xSzVB72QJdyht4XMTqJOweyJnmKc7aGHHvI+4qJ+p6qwcUkgSSPO4FpBWSNY2ljchUTKRBl7RTi18SkhULYCJNa7iiIAAkQLkliiopTkN19pBNyQ4y5iBITG/Sfvn3uO8Rwab1CwDowYKFiDzpEHAQmyVmbW6pM13HluvDMSgAWufzp+iVfL+aSSqsIWvmks3WIjziS9IRkgwtnP7BFXhMGPiDS4SaCrBFQdtHRRauz9+fPnG2hVESKZo2xdH3bv3r1DASIGaJTAmx4mUUF1a6lMxWDxE8ZQhQP9ggsuqA0fNgozacSZxbdd3B6W+LfffmuJ4Fu0aGGtIYID4wrhk4TRWmJOYlWffPLJNvOXX365uEI0tSKgCCgCVUCg7Ba2O30Fl0bSiDOFsCAEk8RibNmypeEPhXzRRReZq6++2px//vk28jn50GkQFBiqQ/zXhFEiGjoybdq0nI/bHtB/isD/ELjvvvvsu6OAKAJJEICeF+9COac4++hV04qykTTiTBKg5BqsaPxGfOa6g5r4IhkU+Oijj/KmIMp1ui0NgXJH2SitNnq1IlA/CJTdwg6DJmnEmbD84hwntBh/XsHiJrajiiKgCCgCtYSAT2FrlI1aenzZrGu5o2xk8y61VopA5RHwuUQqXwUtURFQBBQBRSAOAqmudIxTAU2jCCgCioAiEA8BVdjxcNJUioAioAhUHQFV2FV/BFoBRUARUATiIaAKOx5OmkoRUAQUgaoj4FPY1Yg4A8fHQQcdVHUwpALVqE81ypT7LfdWI86UG1HNTxH4LwI+hQ0T1wEHHBAbH7ilhw8fnksPcxYLJ5o3b547Vmhn2223NUcffXShZBU7H1YfiHhYIRlE8FNq5cLKLDXfalxPxJkg9rRq1EXLVATqCQHfPOxib47l4bJEnGvd/bh5QYWapYUsYfWBKIrVk8LeFvf+4qQLKzPOtZqm8gjwDqy22moamq7y0NdNidA9s9oa7qO4UrLCLlQQMR+JQkPlUOYTJkwwd999d+6yu+66yxI0QaParVu33PFbb73VTJ48ORdJZosttjDnnHOODUAA094ee+xhunbtahn3WKgBr/WLL75or99qq61M3759zVNPPWX2339/y8j3/PPPm5tvvtmsv/76pk+fPjlKVbiK4R8RCasPrFsrrLCCTUY9WOr+zjvvGPi6sbwHDhxo4MHlHqHMhO9beLi5iHxfeOEFs+uuu9poN9wD9ZBzUHZ6MeAYZXHv7HMNwRkguFKpLgJt27a17xbvoIoikAQB+I7gRIIPPa74XCJxL4ybjoAChA+DuBtypv322y/PCidqzNSpU60Sc/NkSXnrJveMCD5uuKtRWvCS9OjRw0aM4XooVYV5j/TQpsLOh7JGSdJpSEBY/KtwE0OZec011+RCnEk5YfXh+ODBg20y7uWqq66ySpgDKFN6ygEDBljiqR9//NF2GJInW+pEoAQ6LzoOOgqRsDIPP/xwG9LspZdeMlBzQtd4xhlnyGW6VQQUgQZDIHULGzxnzJhhxo4dayNpY6nCVQ3hOwJPdpC/84knnrCxF1FS8Gqj9InEjRx66KF2O2fOHEvuTkewbhN5PBE9XKpUQoS5/nUuggxKrFmup26uhNUHRSu8JO+//36e9UzUkP79+5sNN9zQQOkK77Y3bBllfPjhh9YiZx8XiEhYmcS0JO8hQ4bYpOAGl7dK9RDgiwdjgDijdMISjYYvR8Y2gt5ljThjrIFST1F3oqLcYKSGvQd8HYshiosVA5bIXMR8xOArJCUrbJcFzy3MpVnFdYBIQANcB4UEqxtSd+I4wqtNI4EiFUGJkz8DdSJY2bgmXAkiU8c1ccopp1gFi8VOAN6HH37YvazofSx2XDI8ACx5opYg1Fki5vD7tddeYxNbiEQimHERfn5cSyrVQ4AOn+ctz1jGM3j3MBqCBqQ14oyxFKP1FHUn6lnzjoS9B3x9yzvDWwwm/EZ3xJF4qSJyIsyWKygpRFwQ7rli97GAd9xxRzu4g2NeGP8kQgzugbAOg7IgsvIKFjW+cgAnKjbBDMaMGWO5sr1pw357wcV1wTFi76GgcdfgY8eSd6VY3zN84q6lvvbaays/swtoFfbxOyIdOnSwLjeJTsOxZ599lk2oaMQZY117YQDVS9SdsPuT408//bTdhZsf3VNRH/a8efNsRHL8syhrfM1Yv4sWLZL6Jd4+/vjj1oXBoBuBBkQmTpxo/eC9evWy55s1a2aVJT1bITnssMOsElywYIGh7ij8KKXv5kengULmM4bPHpkRA782ypkvB+oaFGzVzSfuPh0W0eP33HNPa1ljXYtbJm4emk4RUATqB4GSLewpU6aYfffd11qtWK4oa1wXrivAqxDl90knnWSVkcDJ/G0EyxcLHd8uM0D4bBg9erQks35n/NOUi58Xwb0hLhNJKOXIb7bMESZCNfXkPPlIXQvVh+uxosiDaNYffPCBHVzEcmrVqlUuig0Do/g4veVTpleiyhzWFK0CvzVpELBgDECl+gjw3jMmoaIIJEUAN6q4i+Pm4aNXTRpxBksQJcWAnCjAuJVImg6rlml6TKNDScYViUTDQGI5Zc0117QBfRlAKKcQLR4faa0oCI04U86nr3kpAosRKNnClqzwZXv92XIurS0WbJIFN7gV0nAtfPzxx6ncqkR7TyVzzVQRUARqBgGfwtaIMzXz7DJbUY04k9lHoxWrcQR8LpEavx+tviKgCCgCdYtA/ryzur1NvTFFQBFQBGofAVXYtf8M9Q4UAUWgQRBQhd0gD1pvUxFQBGofAVXYtf8M9Q4UAUWgQRDwKexqRJzJKtaw/Sl3R/FPpxEizhAh6LjjjisenAxeATdP1Cph1lewFL9du3a+2keda9Omjdl444191+iB/yJw4IEHGqigixGfwoZJqpiIMyzFZqGE/N1yyy2mU6dOxdQhNC2LRdKK8BJaqHOCl5Rl4SrFIdAIEWdgZoSioJaFhV6QobF69vbbb7fUwNAsuMI9Qv+71157WVa5uOdId8wxx9hVwe41ur8Ygfbt21t+/MVHCu/55mEXviQ/hRAcEXCABR4oOSrCEu5SF5JAqJRWhJf8u9BfikDjIXDaaadZDhxIl+iACKgBkRl87yIYcELBIMdkG3WONJdccold+SvpdVs6AiUrbKkCNKBEWIH7Fw4MaFEh6t96660trzUETSxZHzFihKU05To4Qvr162epCOnZ4X7u3r275eCIivDCtQQsgBGP1Y4QOaHYuRaJijgDfzFuDsqjPvCACE8JgREuvvhi+3kII6DLykfHpNFfLLwl/4NOgBiefE5D4KVSHQR434nShKHFH+/8brvtZhU2X8lY19IGYJZjUV3v3r3tF3TYOe6kSxNrpXyZjhs3Lhc1inO0I545vPHkDfXstddea3UHhGrnnXee5bgnLdQR6IdKUV1QZtalbApbbnSnnXayuzNnzrRsdmeddZYlLeKTi7BKHTt2tPzWWN88WGhO+eTiZYDMSRjwOIYSxgqgx4dZT+hSOU7vThAECKJo/GLpU7g34gzXrrTSSrZe8HxA3ESEGJj7jjrqKMsECJ82JEvwHNPhkL/L2y3RXyD9gYkQWlboXd3wYrYA/ReIAB0krjb8oOAK82ExtJKBmerBxAjA/UNbw3oWIcAAbhKE8HpvvPGGVdBQTtAmoPstdI7zPFfa5emnn55HD8w5QqpB2AY3POnoIKSdYRCtt9561qj7+eef7dc6bVRI4bi+0aVsCpuHg9LE70xjpOfGkoVyld4ZStRXXnnFEv1DxXrPPffklDMPAU4QIseIREV4ofeG+Y54isg222xjaU3lWtkGRZwhqgMKf/fdd7eKF2ucgREUNp0HIcWwCqg/nYyIRn8RJIrf0tnRwSGzZ8+28S/lWWPlwZ4YJHSsdOpuZyzpJk2aZKKifiSNbiJxQKUcd0t9iuU0d6/P0r7wrLtEZVAKiEUNWyZ/EO7Tnt34pFHnuEe+tvmDQdMrtDt4fLCqETdfoilh6aNDEInOogrbwmH/lU1ho2Cxmgl9JSx4jKQjWNsIPTUPEYWJEOmFQUusaBQwFvMVV1xhz0X9I1wYDH0i8+fPD1TYQRFniONIIABeBrEYsMixOOhchEyKl9R94TT6i6Bd/Jbo4ljYfHJDJwmjowi4brDBBvIzb0vD5VyQwuZdoYMNi+yRNLoJiiyqPvWisOnQEFyVImCGgk5TaGuvv/66rwgYKbH4Oc9MNYQOxG3nvosa8EDZFDZ+YLe3BEt6S4SeE/pTHgY9uESMoafGn0WIHFwl+KS9cRm5Xnp99hGsM6wrkaBGyzlxoUg6fKekxTKnwTdv3tyce+659kWhM+EzDGWO8PK65Wr0F0Gx+C0xKQnFhuuKeJxY3Ix1PPLII7Yzz1qkEYIe17tgkGAkrbPOOrlbRWkyjpSm0CHQ0XoFXYDwBTZo0CDvaf39PwR+mSYSKFZeCj6HsaolsrkEypV5mlgtcszt8XmpGHBggMON8MLnML3xqaeean1gWNzFCFYUc0+982jxa+P6wI8nA5iSr0Z/ESSSbeHy5uumc+fOdhAK/Hl+KtVDgGfC4B/PAl8yhhMuwTSFdkT7IjIVX060N9ySTB7AjYJ7kzohGFRBc7/TrF/W8y7ZwpaoKrJ1b5hPGvzXxx57bC4aC6G+xBIniC6KEaWO4ErB1+1KUIQXrHX84Vjj/PF5t8IKK7iX2X1vncgflwcxFxFeEETKf+CBB2wEmYEDB1prG4tbhEEXjf4iaCTfginWNn+4oVSqhwAD+7ggJYoRA5BRcSfj1pR2JJMHWrZsafjDeGOAnrL69+9vv6j5qqbt3XDDDTbrq666ys7SYjBfhLEklcUI+OhVk0acWZylfw//JaO/WLDiN5ZUrLCix0WZFjt9hx6aB37BBRdYhc3AZxzBksBfLS4b9xrqymcifnGvwiddrUV/ce+tUvsMEonbqVJlVroclBCh7HDz1Low8ItLkL9KCV/SlMuUXKb2ucKsEax+OhDvOTddre+zdgV/Ptu4UrKFHacgrCoZzPOmx+0xd+5c7+GCv1lRySAnrhIU7P3331/wGkkQNXBEXWXQVNK72yAl757XfUWg1hBYuHBhxauMrzys3TPGJeNcFa9Yxgv0KWwG6qJ4BbJyP0zZw0XBdLzBgwebarx0WcEia/VohIgzTIdLe4Aua89V61NeBOiUoozHoNJ8LpGgRHpMEVAEFAFFoPoIpDpLpPq3pzVQBBQBRaB+EFCFXT/PUu9EEVAE6hwBVdh1/oD19hQBRaB+EFCFXT/PUu9EEVAE6hwBn8LOWsQZ5lqzlJm502HCfE7SeEVWUnqPV+s3TIYsJGKudzmEJb7Dhw/3MaKVI+9S8miEiDOl4KPXKgJJEfBN62vdurXl22DaXByB6e7SSy/NS8oCGFY3EnmExoswv5kpeCxPlhWGeReF/IB/BGUMReqMGTMCU7GcFRpGuClcIeLFq6++mscC6J6v9D5L4VmaCxYiLM9mea4rgt+dd95pFxsJhSv3Q1gh5pyzUpDFPZDjnHjiiYZVYlkRnvv06dMt21tW6qT1UATqAQGfwi72pmBeg3QcylMaKoTjMj9VlqdeffXVdoUgS1GhVYQTN2gVYVDZrIwkT5fhLShd0LEsRbxgGT4cJpdddpmvqihwAiuIBDGmwceCsh47dqxV1pIW0i06AubOswhJpTII8MUHC6HQxFamVC2lnhCAfprV38W025IVNtYgKwMlmCSWsHeJOcoW6xiyGZQvZE5xyOvhOVhrrbXsM7ryyistNac8MDfiDPy6rnTpEh7xIiwCDuCdf/75Nhs6Gr4GcLXwpQGPCAqXaBtQfrIcHj6TYjoEyHVYUEK+QRK1uhK8jjzySAPpFS4QV6Cz5X632247S23rntP99BAgGAdBmjE+VBSBJAigb+BdiaMLJX+fD1tOpLGFCxllF8Y37C0TwniWoEN1KqTmpJGIM/BsE3JM+LXlegCA2Ab/txC1cw5FTAQc6kBwApQnVj9cJuQPv4jEs8NihbmMYAsIdYC4CiV922232TLhXYkrwtcQlB6fNvWVP8KriUD3ikIGO8r1Cl8gWOhQ2KooAopAfSNQsoVdLDwoFwkJVOha+EeCAvlKxBmsbgSrebPNNstlh4+cPzcAASfh0A6LgAM/NoLLAUpHLF4UNhEyEOhf8csyKIvVj+/Y21HYhCH/uGchjfcmoQMh7JiIcAPzm44EzCDPotPASvcKLhQ+z1XSR4AwVrxDxKNkfEVcWRMmTLBjP/JF6NYE7u+kEXCqEXWnUJmMc2EMeSWtKECF6pNG5KFSyoTfKOw9YCk6+CHw7fP1vP322xuoDoiGVUgqrrCxJl2FVKiCQee9EWdQrq7CDrqGY4Ui4KA4ERQkbh0UofjhcWlAtE8nQONDkXo7BHtxyD94A8JmuuDPl87He7mEU2IcAItewqK56YhDiYtGJX0E+PKi4wRzRJ4p7wOzdoKCacA4xzVBX5Z0/FmLusO9REX6iTrXKBhE3SfvSNh7gE6Rd4b3h/eC326wFI6HSUUVNpYwChA/dymCT9x1AeBuiCPCtBcWAScqD2a9oDzxYyM33XSTZQqMusY9h/9+xx13dA/F2oeMC5pJfNX0zJC7wwUuQuOiEwxjQ5R0ui0PAjLO0aFDB+vDdt1icLdHSRTXdNai7sh7HnQ/QaH3JF3UOdI0AgaCRdj26aeftqeY4jtmzJjK+rD5PGTAjk9EhH1CcbnC1D9mOEBMzid93CmDbh7uPg0DJcVUvg033DCWdc31hSLguGV49xnJ5V5RkER3hxe7GMGlQm8qVn4x15IW/zWzb2jY1EOEsGp8GQTFyZM0ulUEFIH6QKBkCxvfKjM/RLBAcBUwZ1hcDAQWwM2AP5ppfXJcrgnaYo0zXVDk7LPPtruQ4zOVDSubaNv8eYMiREW8CIuAQzgiEeonf3KMwUjmTN911132HJYvCjiuvPbaa5bjlyl4SeZM4zZhUBJ86fgkD0ItzZo1q6ipQXHrrOnCEZgyZYqd9RSeQs8oAtEIYIQxmaAY8dGrphFxJqhCWIlBAxekxX8cZ562RFr2TusLKs89hnUeFgHHTRe0j+8KF0Wc+nmvxxpmOiKdGR1YqcKXDD5tOpJiFiOVWm6h6xsh4kwhDPS8IpAGAiVb2Ekrdccdd4RaqHzesyKykIhPulA673mUZVKf7/ym1YVJBT80f+USBlvrIURVufDQfBSBekfAp7ArFXEGF4fri3WBLjYKg3ut7lcfgUaIOFN9lLUGjYiAzyXSiCDoPSsCioAiUAsI+Ge/10KttY6KgCKgCDQgAqqwG/Ch6y0rAopAbSKgCrs2n5vWWhFQBBoQAVXYDfjQ9ZYVAUWgNhHwKeysRZxhXf6qq64aim6zZs3sKspOnTr5IrlEnWOhDPwglRSNOFNJtNMtixWrLIKqpJTSFljzwDoA2omXyoF7YQFWJaVR2kIUpqz+FlrqqHTuOd+0PvgqIC6Ju3w8rYgzTPmDEEleLpZln3vuuXkLRKBOHTJkiGW64jw8BbIgJeocAEBhCtveiy++6OKR6r5GnEkV3opmDiUCTGt33313rtystgUqCJ0whFVM24WiYeHChbl6w/XOfH6iGFVKgtrCjTfemDPOaMesZma9BmsfajX6UhSe7du3t5QSwhQalVbO+RS2nIi7BdQ0Is7wAqGsWcoOcRLUgyxxh95SBE4PHqyEIZPjbKPOcf7mm28OXbjD+XKLRpwpN6LZyy+rbYF2xNcmbSdo4ReLuZIuJEvyFKLaAkyeGGqkIWhHt27dzAUXXJBXTCNHXypZYacVcYZPJmhM4eBAWP0obHcSHQZKQtj/4AdBTjrpJPt1AN9G0Dk4Z3GFoPgRXt6LL77Y7ss/uLB5UeAJoTMYOXJkjmGM/Fu2bGnzhi61f//+eZaK5BG01YgzQajU17GstQXedyxTeLsRCU8H17MwC8KNg7uEuqMcXaGd9enTJ0cHCmeN0Pum1RagH8VA42+LLbawXPdunRo9+pLPh+2CU+79YiLOYBG4S895gChnXj4sGciPeIFYVcc+f5BARZ3jfiCTh0QJ/hE3Gg3n8Cd17tzZBhPAoodECr8hcsghh9i4lbhQcMPARxJFiWkvcv5h5XzzzTfOkcW75CXRZthqxJnF2NTrXiXaAtjxhUpUJgSXA+2EwNQivG9Tp061FrgcY0s7w7LF8MHtc8MNN+TcjWm2BakDLlF4e+ASF9HoS01BDwSMSm2xWuNEnOGBudFV5MFxLWT9b7/9tmnVqpUlYWJfhGvCzpEGq4P4kviPvBFjeBFh6ePT0UvuhIsFKwSli4+fDoSgCbzYUjepQ9BWI84EodLYx9JuC6BLxyCskrNnz84FyBbk33zzzcDoKER1QlnD+04aBIpgJM22QOQkwgIKyb90NpQLtTGYNXL0pYorbKzJOBFnUI7yKcfDkn0GTdKSlVZaydbNq6wpD4sfYRaNCB3H8ssvH0tha8QZQU23gkCW2wIhrjBeRFlLndmm2RYwuDCoFixYYN02rtGm0ZcqbGEXE3GGWR9ukIB11lnHvkDuA3RfonLsYz0HhXEib6xoXuDTTjstUVFY5OKDLyYDOiiNOFMMYrWRNuttAeWIC5LZMN4ByTTbAobNrbfeGvgQtS0YU7IPG9dFGhFn8KvhY2bwkWg222yzjR0kDHySZTrIaDlWT69evazvGr9z27Ztbe4MeuLWYO4kaYi0Dq91XNGIM3GRqt109dQWCNCAgdKjRw+D75jAsgzGI9oWqveOluwSSSviDBFetttuu5xFy4DioEGDSkbKnetJZpDtYzF06dLFTJw40Wy55ZZ2QY0sqpk8ebItk/mgvLgoaVHUBA0YPny4PV/on0acKYRQ7Z+vtbbATA981SK0BaRnz57WNThs2DA7CM/AJYILkHapbcHCUW4uxIEAAAcISURBVJV/PnrVrEWcwaqldye8WKUES4nGt2jRIuPl5saXjnuGl9d7rlD9NOJMIYRq5zzTO1Fs5QggwfsWJ/pSNdoCT4TZGky387ZBbQulva+4fvhaCXMBBeVesoUdlGmcY3EjzuDT4q+SwoAnq8GCBGt87ty5QacKHtOIMwUhasgEWW4LPBDWKwSJtoUgVNI95lPYOPZl7nGaRWvEmTTRrW7eDAx7AyNXt0blL53poQyMl0O0LZQDxdrLA0O02K90n0uk9m5ba6wIKAKKQGMgUPIskcaASe9SEVAEFIHqI6AKu/rPQGugCCgCikAsBFRhx4JJEykCioAiUH0EVGFX/xloDRQBRUARiIWAKuxYMGkiRSAfgbQizpQ7+kubNm3M8ccfb/9Y+KWSHQSSRJxRhZ2d56c1qSEEJOJM3CpD1cufS+l733335VbySj4S/UV+l7pFScOPA8NeseGoSi1br49GAMbQXXfdNTqR56xPYcOfQS+voggkQQCeFYJEQBykshgB8ODPDRLA6kbwcoXFVd6gGu75YvdZXk5AD3hBVGofAZ/CZrlt9+7da//O9A6qggAUtcTehLtYJR+B7777zoa+EnrS/LPGEP1l6NChpm/fvnmnWLrsLoEnEgtRliBFQ6A8QDHDBUKwAeHByctEf9QFAj6FXRd3pTehCGQQgZkzZ5p//etflmgsqHph0V+gOiU4tggRzskHPhu+iGHU++STT2zUIrYnn3yyJNVtnSFgl6ZDFSqBbCEuh8D/wgsvtLdK9IeOHTsGktNMmjTJbLLJJoERKwjFRUzGnXfe2QcZS3qffPJJc8QRR/jOcYCYc12a2POCCHEKlQlRFPfglWrVpxoYRJVJhOY0ngn+UYkEAvYst0apwMkCw5uKse2K93fvvfc2t912mw+SsOgvTzzxhDn11FNtRHEYIjfffHMzffp0e/2hhx5qt3PmzLG+avBet4msiWcsEWJ8BemBmkXAKuyll146F5JHlKSE6MHHxqCFHHfvlMbPy0HILK9ADENooqCAAHwaLrfccoHnyIfP6aRlwoOSpfpUA4OoMlHmaTwTcOedIawUwm86/krw0tgCa+Tf/fffbxU2RlBcgRue+KHE+iQeI+x+o0aNspevuuqq1j/NYKUIVra6pASN+tr6uESuuOIKyw996aWX1ted6t1UBAEUCJzjTCWDIKlepVh6VfzLL7zwghk8eLDp3bu3adGihe3c4Em/7rrrcjC1a9fOHHvssXk+a04SEBdaX0JnsZVxJuiQt99+e9OpUydfHNJcpk07zFAhPuLIkSPdw7pfRQSS0KuqD7uKD0yLbkwEGFzkS6SYmTSPP/64/VphwHHatGk54Ai6QT4SJYkBTdyJ3i8b/OAEraZDVes7B1/N7fjoVZkbSmRiFUUgCQLQ8zJjAZeYSjAC3377rcGdSFxHkULRX/BvQ1uLu2v06NFymQ1YO378eDvPepdddrHHGTsQl4kkxBXDlEK+fuC3Puecc+SUbmsIAZ9LpIbqrlVVBKqGQLEukbQryhjT+uuvbxgfYvaISvYRSOIS8VnY2b9NraEioAh4EWCA1xvd3JtGf9c+AurDrv1nqHdQBQTKGXGmCtXXIjOAgEacycBD0CooAoqAIpAWAmphp4Ws5qsIKAKKQJkRUIVdZkA1O0VAEVAE0kJAFXZayGq+ioAioAiUGQFV2GUGVLNTBBQBRSAtBFRhp4Ws5qsIKAKKQJkRUIVdZkA1O0VAEVAE0kJAFXZayGq+dY0AzIQbb7xxXd+j3ly6CGy66aY+zpdCJarCLoSQnlcEAhBo27atjawTcEoPKQKxECB0GxQHxYgq7GLQ0rSKgCKgCFQRASV/qiL4WnTtIQDLHQEEiKdIBPTZs2fbm5gwYYINnNEI0Y4IVxYU0KRQNKioSEhpRaCqRplRUa++/vrrXLg3IgdBe8sfVAcDBgwo2CCU/KkgRJpAEViMADzTUJwSpQmRyExwTGct+lJU5KFSIj4ljQaVVn2yhjvvSFjUqx9//DH3zvD+gIkbqYljUaIWdhQ6ek4RCEGgQ4cOZv/99zddu3YNSaGHFYFoBIh8TyQgvi7iivqw4yKl6RQBRUARqDICSzSZ4/2qXActXhGoOQS++OILM2/ePLNw4cKaq7tWOBsIfP7552bmzJlFxT5Vl0g2np3WQhFQBBSBggioS6QgRJpAEVAEFIFsIKAKOxvPQWuhCCgCikBBBFRhF4RIEygCioAikA0EVGFn4zloLRQBRUARKIiAKuyCEGkCRUARUASygYAq7Gw8B62FIqAIKAIFEVCFXRAiTaAIKAKKQDYQUIWdjeegtVAEFAFFoCACqrALQqQJFAFFQBHIBgKqsLPxHLQWioAioAgUREAVdkGINIEioAgoAtlA4P8BuEEW5V+O2lAAAAAASUVORK5CYII=;" vertex="1" parent="1">
          <mxGeometry x="520" y="297" width="321.18" height="210" as="geometry" />
        </mxCell>
        <mxCell id="PZrZSrdKlhRtxC-y3ePN-9" style="edgeStyle=orthogonalEdgeStyle;rounded=0;orthogonalLoop=1;jettySize=auto;html=1;entryX=1;entryY=1;entryDx=0;entryDy=0;" edge="1" parent="1" source="PZrZSrdKlhRtxC-y3ePN-8" target="PZrZSrdKlhRtxC-y3ePN-1">
          <mxGeometry relative="1" as="geometry" />
        </mxCell>
        <mxCell id="PZrZSrdKlhRtxC-y3ePN-8" value="" style="shape=image;verticalLabelPosition=bottom;labelBackgroundColor=default;verticalAlign=top;aspect=fixed;imageAspect=0;image=data:image/png,iVBORw0KGgoAAAANSUhEUgAAAY8AAAD5CAYAAADflrmPAAABU2lDQ1BJQ0MgUHJvZmlsZQAAGJVtkL9Kw1AUxr/UaEEdOqiTQoYiVarU2Bdoi4jgEKrin0XSNKaFNF6SiPgGPoEuzg5ObhVdHLSDCA6Kgr6AeyEOWq7nNmpa9VwO58fH4fDdD4hBZ8yWAdQc3y3O55W19Q0l/oo+yEiQnNINj+U0bZEY37O7gkdIYt5PiVtonpwNv91N3khj1/ylKv3d76r+sukZND+oxw3m+oCUJNZ2fSaYGkMumSLeF2yFfCS4FPJpe2e5WCC+Ik4YFb1M/ECcLnXoVgfX7B3jy4PwOGg6K0vCD/Uo5qDSy2KGcvl/L9veK2AbDHtwUYWFCnwoyJHCYMMkXoADA9NIE6vIiJsi39+5RdrmLZ3OALFkpDkecHFO1vKRljqkL4wAjQbTXf0nTSmQva1ZNeSBOtB7wHlzFYhPAK0nzt/rnLeOgZ5n4DL4BJb7YUElmhniAAAAVmVYSWZNTQAqAAAACAABh2kABAAAAAEAAAAaAAAAAAADkoYABwAAABIAAABEoAIABAAAAAEAAAGPoAMABAAAAAEAAAD5AAAAAEFTQ0lJAAAAU2NyZWVuc2hvdKG/qiAAAAHWaVRYdFhNTDpjb20uYWRvYmUueG1wAAAAAAA8eDp4bXBtZXRhIHhtbG5zOng9ImFkb2JlOm5zOm1ldGEvIiB4OnhtcHRrPSJYTVAgQ29yZSA2LjAuMCI+CiAgIDxyZGY6UkRGIHhtbG5zOnJkZj0iaHR0cDovL3d3dy53My5vcmcvMTk5OS8wMi8yMi1yZGYtc3ludGF4LW5zIyI+CiAgICAgIDxyZGY6RGVzY3JpcHRpb24gcmRmOmFib3V0PSIiCiAgICAgICAgICAgIHhtbG5zOmV4aWY9Imh0dHA6Ly9ucy5hZG9iZS5jb20vZXhpZi8xLjAvIj4KICAgICAgICAgPGV4aWY6UGl4ZWxZRGltZW5zaW9uPjI0OTwvZXhpZjpQaXhlbFlEaW1lbnNpb24+CiAgICAgICAgIDxleGlmOlBpeGVsWERpbWVuc2lvbj4zOTk8L2V4aWY6UGl4ZWxYRGltZW5zaW9uPgogICAgICAgICA8ZXhpZjpVc2VyQ29tbWVudD5TY3JlZW5zaG90PC9leGlmOlVzZXJDb21tZW50PgogICAgICA8L3JkZjpEZXNjcmlwdGlvbj4KICAgPC9yZGY6UkRGPgo8L3g6eG1wbWV0YT4KwWq62AAAQABJREFUeAHtnQm4VMWVxyuj42SSDCNBhmQcR81EiGg0ghtuwaAiGhcUQQURcAfFfcEVgogKKm4YxQUiqIgLGAEdEkHRIKBEEbckDKBBQ4xj1GSMJpmZ9zvJ6dS77679+nbf7nfO93X37bvUrfu/VXXqnKo6/89tscUW/+dMDAFDwBAwBAyBDAj8XYZz7VRDwBAwBAwBQ0AQMOVhBcEQMAQMAUMgMwKmPDJDZhcYAoaAIWAImPKwMmAIGAKGgCGQGYFMyuMb3/iG+6d/+qfMN7ELDAEQ+Od//mfXuXPnhgfj3/7t39xXv/rVhn9Oe8B8ENhoo43cjjvu6D73uc/lc4MKpZpJeVxyySVu7733rtCtLZm2hkDv3r3dqFGjGv6xhw8f7k466aSGf057wHwQ6NChg9STf/zHf8znBhVKNZPyqNA9LRlDwBAwBAyBOkfgc0nrPLA0evbsKY/ZtWtX995778nnf/7nf9zMmTPdUUcdFQrB3Xff7YYMGeL+7u9a6qennnrKdenSxW2++eYtrv35z3/u3n//fbf77ru3OPb73//evfLKK5HH5s2bV/X8FO2e8+fPd3369GmBHTvyeidJGJx22mnu7//+791XvvIV9+Uvf9m99tprkr8FCxa4559/PjSv9bbzX//1X90JJ5wg2f7617/u/vd//9f913/9l/z//ve/74499tiK14Uk3Mutf1/4whfKqpt55SeuPajFPfNqg775zW+6rbfe2v3DP/yDowy9+eab7k9/+pP72c9+Jm1t0erExkkZwnTCV63Cg/F/4403dl/60pfcf/zHf+ihZr9cx7Ew5QH4W221lfv3f//3Ztfw5w9/+IOAF5bu7373O1EsUcdqkZ+i3ZPGOQwfsM3rnSRhwDgZ5WaTTTYhG6XyVHSzXDKb8otn03qiZV7/48POoy4k4V7uPXlf5dTNvPJD2Qkr07QHtbgnyiyP/IC7tq0UO/7TCeG3iJJoefiZvvfee93999/v0PYmhkBWBPr37y9W0dChQ7NeWlfnX3XVVdIJ+t73vldX+bbMFgOBf/mXf3E33XSTGzZsmMPDU1Rp6VMqak4tX4aAIWAIGAKFQWCjJjNpdNrc/OY3v3ErV64stDZM+yx2XvUR+O///m+3evVq98tf/rL6N6/iHX/1q1+5VatWOeqLiSGQFYHPPvvMffTRRzLm8X//V9zQg5ncVllBsPMNAUPAEDAEGhMBc1s15nu1pzIEDAFDIFcETHnkCq8lbggYAoZAYyJgyqMx36s9lSFgCBgCuSJgyiNXeC1xQ8AQMAQaEwFTHo35Xu2pDAFDwBDIFQFTHrnCa4kbAoaAIdCYCJjyaMz3ak9lCBgChkCuCGRaJPjd735XYhT9+te/zjVTjZo4gQEPOuggt+WWWzoCQFZC4I34zne+IwuKKpFeXBq9evVy++67r9tpp51kARwLmbIIeT3yyCPdyy+/nOWyujt35513dgS5Y0FkNWW77bZz+++/v9TRd955p5q3znQvYn9RDtavX+8+/fTTTNdW82TC6XzwwQfu448/rtptCaC5yy67SB2jnlRykWCl619iYEQftUMOOcStWLFCItv6+8vZpqBfdtllLS4dO3ase/XVV1vsz3tHMD+//e1v3eLFi92MGTMqcusDDzxQogyTLpWmUvHBaMiPOeYY99hjj1Ukn3GJNEVgloBwBIVjFfXbb78dd3qLY0QKBYdp06a1ONZIO4hCTWDBJ598MtVjnXfeeQ6Fg/z5z392b731lmD0xhtvpLqek+Da2X777UWp0zi/8MILqa+t9omf//znXb9+/US5/vSnP8319ocddpjUj+OOO8798Y9/zHSvvn37iuKopiL+2te+5jbbbDOJQE0cwU8++SRTnuNOrnT9y6Q84jKW9ZhGHiVM+C9+8YvS5VkbpNKFrdzQ/Nx+++1SAel1oCwXLlzoKlF4aFBoFC644IJW5rT55U8//XQz/Jofrey/qVOnSoIUapPKIQBjHKG3L7roIkcnht7nqaee6s4666zUN4Hlc+7cuW769Ompr6nViTSIo0ePdmvWrMk9C0Vn4wsCcOWVV4rVceGFFwYPFe5/zZSHIkEvXHkPdB8ViIp0yy23uKVLl7qOHTu6a6+91sFV8eCDDzoaMXq+uH8IWQw/yF133aWXt+oXlxyWD24l7kPP5bbbbpM077nnHvfss8+6PfbYw33xi1+UPFDBCYN++eWXu06dOkl+MDcnTJggJufAgQOlt00Ie4TIxJjCI0eOlP/f/va3HVFm6Y1hwt9xxx3uueeek2P0Qkif50fIE/dRIT8oPXpUJ554ou5OzE+PHj3kGtxoGzZscBMnTpR4U4RIv/76692mm24qFJiEvL7hhhtqYgmWHqaNbOCeIOYXn2222cbttdde4n6iTEBfQKejffv2Ur7o0Nx5552CDI0N9QC+FHhcYGt88cUX3aRJk+T4KaecIuyflD+sXs7X2GK41khXOWA455lnnpHyHlcuqWvUWRQWjTO8LL41iWt2wIABkn8sqUceecQ9/PDDkh8iDiuPz/jx451aV0llL6kulFNMku5JmgcccIAbNGiQ1LNFixY5OpfIDjvs4M4880xpB6h/s2bNamb985zUcyxQLAk6ByNGjBDLnbrPvXnntGNjxoyRdyMJx3zFlQPC1o9uUsjcDwoAuI9gs6R9zEtqPmB++umnSwNFI0XDhdB4Q4RyxhlnSCz7K664whEs7KGHHpLjNLS4UOgBv/766+LnrXTM+912203uRSBIFe673377ScVBoei4xfnnny8NPAUIZdetWzdROlxHxbz66qsl0BmVlm2t2HBdQ5T07rvvyj5+6XGqQC5EoSC0N8ozqGRJZ8mSJVKA9Rp+4/LTrl07KcwffvihkEOhmFCQCIoIZX7ddde5a665RjCvtKUkN7KvSARoaHA/0TtHcfBOaBRQDpBK0bhTBik7CPsoUzREWKFs33fffXLs8MMPlzEqOiO33nqrNCrUNxXKsyodOkUoBYJXJpVLyKIghoMMDqIiXJHaw0chDR48WDollCPqqF838TSQZ8o1DahKUtlLqguaTpbfpHuSFuHR6bAS6JLxPjqKPCt1DMynTJki9RdrEUIwFTpg3bt3lzoErsuWLZPreG7aCBQGHUXqH27LJEkqBxB/oVwI5U4HE3egvpOktMs9/pfucLlXV+A6GjEdkPK1JI0XhWzy5MlCPMXL8o+jYPDz//CHP5TKQk/p8ccfb3WOzjnnHKmwFGzypVaAJoxbbdy4cfKXyoqg7WHHo4eFMA6x5557utmzZ0tlpEKi/EjPH8854ogj5HwUIOMIVEQKACyKMOxR6Sg09Gw4J+gfxsLRXpwk9NevuPzoeTwD6fZscqfB6ojQW6Fnim+UQTuiwlJZTPJHgEachpYKj9Kgs4DQANHI05miUccapBcLgycdLrVWOBf3ql++6DXzjpnYQJmg7G677baSHqRrKozN+O4utYqjyiXXURapbzSKNFgoPEjeUFg0qngO/Pqq98JFHeYGTip7SXVB08/ym3RP0gKDOXPmyIf3gwIBY94XXoQf//jHbvny5aIIUOo/+MEPSlngPZ177rny/0c/+pH8Uq/BjDEu6i7vUz0LpQtDNpLKga8owJi2JG+pufLgBfgFXh+YQv/oo4+KyUihVFNbj+s4CQWVioAZWQnlQe+ewo1iCPb0uTcuAV94aZiJaoVwDKpeevhJQq+G/KNsVLA+tEeGWwpTlwadgoiypBcUJ2nyQ68WfBGUN71dhF4RvSHcFyg8Zf6jouj5cqJ9VRwB3DtgT1mg8wAdKfWCRh+hrPBBKF80OkmCaxXRwXi2cZNQNn3loQ0bx5Gkcsk56m7SmZf0tJEOHTpI2QlTHHJCxFdS2SunLkTcqrQ76Z6c6M+Yg5gJlzp1A1GvBMqZ+hlUAsE2i2voVGL9cT6MhNR1tpMkqRzQLpC3s88+W9oU2kxcZ3lKzZVH1MNR8PGb0jugV4N/VQss1+C2UqFn5jf0TCmmwqBg/B6Vnh/3i7UQpsz0GhpbX2j8+ejL5Ri9dbWm/HOD2/igEXonYZWN3h1jGVgjw4cPd8z+oBdEzzRKWpMfZsCgODCBURa41LDosH6CAuYmlUOA90+HhQ9W4dFHHy2ztbRxnto0/pZ1ijMKgvJAgxIn+OZ9SSqX/rnBbRrSMIrW4HnB/0llr5y6ELxH8H/SPTlf3YNsU+ZRJsrTwtgUypj9OqbEeSphCp5ZXyh/te5uvvlmhxvQF7wUCIpFZ1sllQMUGm5+aGxxoVFv1YPhp13J7ZatQiVTT5EWg30oBv0okPh5qVA0mpjbo0aNkpekSeJbZRCNSkZvm8EsFcYcSG/XXXfVXbn+UpjIT+fOnWX8BV7lOAWkmcHkJe86toPCpOFWHzFz4VFE69atk0ILHmFKRtPT33LzgwWFoqAXSS+GwhcmFP599tlHeqhqJYWdZ/vKQ4DxCRojJlsw5RarhHJBB4V3xBjDjjvumJg40+p5l3SmuA6fPIO/SZJULuOuR/lxLy3TNL4M4idJUtkrty7ofbV90V/KbdI9uZaOK+0Msy85n+fDJYRSpjOHtaHjlLikkoROJZY898etqFa/fx0ucNJH0fD+OD+pHLAGi/aHzq3mQy1PP+1KbtfM8tBGkME1X+hhARiWBWs+6GXzywD1pZdeKh/OB1w1y3AZ0QMIit4juD/sv56rv2HnsI/7BoXeA2tWlLOaXgLuuCShN4W/mULEDCgEExZ3HcKCL3zb3JN8ca66j5hFg/9V5YEHHpBNlG25+WFGDEqB6xEwZUZWEBMGZLGI8HWvXbtW/NtygX2VhUCwTOE2BVd86NQHxv2wAnUchPMZD0wSZmRRj1AYqjQom0FrPPh+k8ol9w1eo/9RPDS4uGf4INqxw7V88cUXyz6+dDoqZTep7MXVhVKCIRuKLetgfKE9Sbon5/Nc2s7gyVBXFPWbxl3rCoPgaTqMTDJglhZuOPKG1Yf7zBf2M+2aTgLtAt4QMIorB7g7mV2lz4snhneRp2RiEmSaGr0Zna6WZ8bi0gZIZm289NJL0tiqDzLummoco2eIqZo1P/T26d1wbVAJ0rPBEvHdcmmfpdz80EPFdYGPt5Ky9957iyXJosZGFmbPgL26Jir1rPTisUhYL6SNdZq0catg4VO2gm7XuOvjymXcdRyjt8y4DVPBs9wzruy1pi7E5TfunlzHfWmU1V2laWGJ8IzMUFT3kh5L+sUVnfU9appR5YB2gmehrdBOpl7Db6XrX80sD/+hyt1WP2C511f6OgpDOUJDoBMAgtfjIuJTjpSbn7DZMOXc366pLALa682aKmMfzNbKKnHlMiktGq9yZvzElb3W1IW4/Mbdk+ui6h/uxKh6G3c/jmFZlitR5QCXWDnvudx8ZFIe9Eaz9CLKzVTSdUyNK6cnnpSuHc8XASwZJkA0uuCK0HGrRn9We776QaDS9S+T26p+YLKcGgKGgCFgCOSJQM1nW+X5cJa2IWAIGAKGQD4ImPLIB1dL1RAwBAyBhkbAlEdDv157OEPAEDAE8kHAlEc+uFqqhoAhYAg0NAKmPBr69drDGQKGgCGQDwKmPPLB1VI1BAwBQ6ChEcikPIgLY/PXG7o85PpwBG0j/k6jCyuA4Ys2MQTKQYCV68QuI+5dkSWT8iA+DEvcTQyBchAgQB4BLhtdiC9GnCETQ6AcBAhrTz0petDRTMqjHCDsGkPAEDAEDIHGQyBxhTmWRs+ePeXJoZ7U+DIsdSdCJFFfw4TAhUOawkiHcUHAOQ57XRgLHhFyIUkJCwdOaAtITqKOzZs3r+r5Kdo9lY+6mu8kCQMiwhIojwi9hJgn5DQC97WGjw7Lbz3tIyAdVKkITIzEhdIQOkTAhWOh0nUhCfdy6x+0COXUzbzyE9ce1OKeebVB0DoQaJEou5Qh4lQRZZsYYbS1RZPE2FaYTviqVXgw/hPdE96KKOIXruNYWIUBfKJKEnk0KARx4x5h6RJ1loIUdawW+SnaPWmcw/AB57zeSRIGjJPxTpWZUMtT0c3yYNmM+8+z6XNpmdf/+LDzqAtJuJd7T95XOXUzr/zEtQe1uGdebRC4a9tKWeM/nRB+iyiJloefaWLYw+OLtjcxBLIiAKFOnz593NChQ7NeWlfnw/9AJ0j5Xeoq85bZmiMADTBcOcOGDas4LUIlH87GPCqJpqVlCBgChkAbQWCjJjNpdNpnhQwF0vdKkwSlvb+dV98IQJIFB3QUH0F9P93fcg/p0qpVq1qQB/3tDNsyBKIRgMMcLnjGPJQZMPrs2h3J5LaqXTbtzoaAIWAIGAJFQsDcVkV6G5YXQ8AQMATqBAFTHnXyoiybhoAhYAgUCQFTHkV6G5YXQ8AQMATqBAFTHnXyoiybhoAhYAgUCQFTHkV6G5YXQ8AQMATqBAFTHnXyoiybhoAhYAgUCQFTHkV6G5YXQ8AQMATqBIFMyuO73/2uI3hXUWS33XZzhEwhdlAlhHhb06dPl+B9lUjP0miOABwXxx9/fPOdDfhv5513doSfr7VsuummEuKCMBeHHnpoLtmh7g0cONBxr1rLF7/4RWkPtttuu4plZerUqW7fffetWHppEyLIJnHqiiyJgRH9zB9yyCFuxYoVEtnW3x+1TaE94IADmh1eu3atu+iiixzcIKqI/vjHP0qaN9xwg2M7rdAQvf766+7Pf/5z6RJiwhAbBmH/mjVr3J133um471133eXWr1/vLr/8cjk+aNAgh0K877773GOPPSbnEHzx5JNPdldffbWcY1+VQ4BIoQceeKCbNm1a5RItYEpEoSaw4JNPPpkqdzR2l112WYtzx44d61599dUW+9Pu0ECYRDMmWCNlvNLy+c9/3tEusKL+t7/9bWzyebcHNLiffvppM8x23XVXd84557TI18iRI4VzBXIy7dBAwETbRJuicclefvlliYi8cOHCFmnkuWP//fd3y5Ytc0RlKKpkUh5ZH2LWrFlu0aJF7tRTT5UGnRfy8ccfl5JBUYwbN85961vfcocddpgbPXq0KJXSCTEbO+20k2hmKlhQAHz8+PGOcwYMGOBOPPFEd+mllzY7rW/fvqI4Hn/88WaVavbs2VKYiGTp57XZxfbHEKggAhqFFxqDX/ziF6WU33777dJ2ORvvvvuu1KcRI0Y4rKFaS57tAZF3e/To4biHL8rGd9tttzkfT0It+QJLKopj3bp1JcXBcTo6kydPFhK8xYsX+5e0+e1clQeNLx8ijGIFKL+Bok644TfeeEM+mJxoW8zfpB4M1++5557Sy6CCBIXYMBQUPvTqdthhh2an0PtFqcArgpvKl6efftoNGTLEdevWzbFtUl0EaABQ7L/+9a/dxIkTq3vzGt8NqzhYR7COe/Xq5ejhf/jhh+KiZZsGbcmSJWIhw5WCtQ1NAtfTCUtjwX/729+WCMekR4/9jjvucM8995yE7r/++uulLtL4Yo3jFVAriOvokHG/t956qxlquFqw7Dt16iThxOm5T5gwQWI05dkebL/99kLb+swzzzTLj/6hLQhiq8dwV2P5EZPs4osv1t3yS0cUHiE4hEx5NIPGZRrzaH5pZf/hDkNwbaQReKIJHhYnVCoKBspLZYstthDlgNKisgTlk08+EUW3zTbbBA/Z/5wQaNeunbgQ6OWdeeaZwvtRbTdBTo+WKdnTTz9dGmkaahpvBH4HuELAho4VDSC9ZhSsHoe46dlnn3VPPPGE+9rXvub2228/ORb3Rf2BpIvO16RJk+QXDwGCJYQiu+6669w111zj6IxdcMEFpeRwP9HBwx282Wablfazcf7557uOHTuKBbB06VLphOFVyCpZ2wPcTwQRDFoUel/yxXPyOffcc3W3KMArr7yy9Ix0aIOC0g4jxwqe19b+b1yUB/7ggw8kKxS8NEJFgpQlTOj1wN6mZDy+KYsfGCtIGbvocQWFykIaJvkjQE+PsS8wpyf94IMPlvy8WCF5sEYyJqGuIv8JW8NwGdYR8dNOs00jpa5SvxFjH4oB3zxKgl42HxUsg9tvv13+Molkl112cTBKxskRRxwhh/HvQxoFWx0dLfCG3ZEGlY4cadEg6+At4ye4iHheSN3YHjx4cOlWjPXAFPnII4/IPlzHeAlwB2eRrO0BTI6w7kUJz6DRwLEwVBjwpz2gXUDxEsk2KOQFbEyaI1AY5dG+fXvJmf9im2e1+T96Pqocmh9xYoL/9Kc/Ff8lPVhfQUCjixlNj+q8886TMZfg9fT00uYjeK39z4YAjRGukQ0bNkhj5A8Q0iCEsSLSWLaGQa5chr04RrtsTx1+NjMH1TXkn0HjpkJZppH0ZxhSplWwJLbcckv9G/mLm4ueOo27CtfSiKpywC3F+1AGSCx5lAmi+VRKYfbxHskXVNIq5A3LMqtkbQ/eeeed2HGde+65J9RtBbbDhw8XiwTr5KSTTmoRBp28JHk5sj5fI5xfGOXBrAgkyi8ZBBsfpl4TPIZi0Z5Y8Bi9CPy0jGfQA6UyLF++vHQalYcK4A9clg7aRsURYNZL9+7dhXsetw2uE1wWDzzwgHv44YflE3VTzo8S0o2SH/3oR1GHXNwxLiJP1ZYkTgdtaMlXhw4dWrhuGP8IWlo6rogLx7dySIOptyiOIU1jf1yLe4txDtJQpUFPnLqKBa9CPvn4FLZYLGpN6XlpfrVup20PcEPjHsNz4SvTpHuhiLH4mKV54YUXiiK59dZbm10Gvr6SbHawDf/JdcwDy4BZDAyGUxjZpqepQmHEZUEhpSGnx8KLTCOY1vSQWDtQjmB2MxBGA0SPSoVKQgVQn6vut9/8EHjxxRdlpgtTpBnwZPYdA7JtTbAYqCP6+cIXvpAKAurZ3nvvLT1v3K0vvPBCs+twB1JXOEet9R//+MdiKZxxxhnCkU0dpR4yy5DOE3UT1zATTnzXIY05DS6uKqyX4PoR3EPUacYgmACDhagKJ8/2gMadesszliN4Ksgn1/vjrig/OpRMmzVpjkCulseRRx7ZbJ3H6NGjxZWEhkdotFnvQe+GxprBrLRCg0PvCT9wOWsy6G1xP+5P70vToDIwZ72c3lLavNt54QiA+ZQpU+RTjqsjPNXi79Wevz92QK6nNi1Q02P6FNq71//8Ml7EdFwEl15wfQljEzSMuGdwLbHugcaS81iHxdgSglJ49NFHxbraZ5993M033yz7ceHS6dO8MP7C+ih663TAfOEaZi7pOglmzeGOQ/JsD3Dn0cD36dOnNN7CPcErrTC7j/JH+4T7CjnuuOPkGW3mZUsUMzEJ4gqikY9yCbVMPt89WAm4OZjO6PuFy70rA2asO2HGD4XepLII0KujATvmmGMqm3DBUmMsDddNnOusUllm/QK0vnSEcFkFp84m3QcLg3KP0gmO8zHmRAdNB5r9tLCKmGkVdT+enzT9MSz/+jy26XDQNl111VWpFzIn5YOp/CwinjdvXtKpFT2O25a2CMVfVMnV8sj7oekNVLJHgEne6A1b3u/E0q8NAlgAQSsgTU6wJqLG9xiEjhIUSpTi4Jq4Y1FptnY/g9qVrr90TE3CEcikPOiFpB2TCL+d7W3LCNDglNPA1RtmTMpg7KAawhiRWcnVQLq698ANx5qzIksmt1WRH8TyZggYAoaAIVA9BHKdbVW9x7A7GQKGgCFgCFQTAVMe1UTb7mUIGAKGQIMgYMqjQV6kPYYhYAgYAtVEwJRHNdG2exkChoAh0CAIZFIeRWESJEQ1kT35ECU3DyHqaL9+/fJIOnOalWZMJBw96wOqLcYkWG3E/3Y/FvRRXyolLGCsBcNepfJf9HTaPJPgKaec0qKAseKztXOxURgEt+PDwibiXFVaCJHBitiHHnooMWnCZ7OgyhdY21hcBHshoR94bkLDE+2UyLFZJIwxkYWMujJY02KlPg0EK3pZZKSRTFk9T+gLVv4ypx8CrMMPP1zeTTVDnxuToL6p5r+E8tAV2XqEd8nqZkJ80JAgLIQleOG1116baXoucaKI+aSRbkkryF7INHz4KmbMmCFRF4rKsEfe24K0eSZBXjKNJiFAVDTEgf4v55deD3L//ffLb62/aJyJ4TNmzBhRZPAcECVWhQVTVMrvfOc7jlDYYJBGKXF9HGMijYlPX0qYiqAQEgbFQR51MRhrLQhXcfTRR7tqKo9g3uz/XxCAKpnQ9PTkaTR4Z7oehnAiCFGgWdF97LHHSlTooUOHlsKF/CWV6G/CnqxevboZyRoryxFWZBOPqn///kInGywPxNkyhr1obNvykUyLBMsFKiwyJnwBEKzAYoblwDbhDGgMWfSEgsCqoOGjsYVrgV58khA2gYqooby5N5WRnhwNMSEjCHSGUiN9Gnx6XQihTgh5wv2CkTlhI6S3jxVBWnCEKCc0+eXDdSyECz4vFgeManwg+jn44INTK484xkTyHLyXH+SRSt+lSxd34403yr05X4XgeXBCEASvEqFdNF37zY4A5Yn3SEBBhIaefb6gYIhHRV2hPMOGmTZkBmFLgkpB06bc0pEgKCl1ziduInIu9ZF6Ygx7ipj9KgKZxjz0oiy/9JxoMPVD3B+ECJs0tLCNEQcHVw4NPz0vBKWCewrrAsIa9qdZtUuDSZhoGndcN1QA3E8IkUW5HwqDqLqY8poftnv27OlWrlwp1/JfhWcg1j8Kh8BpuA7oAQZdVXp+3C+9f54trcQxJtLwE9NIP37FR0HhesN1RgTioKgVYoyJQWSK/Z/Q45RD7Rwl5ZbyQ/kNdjKC1zGuhlD+EaJgG8OeQGFfEQjkrjy4L2ax/9G80IDBmYzMmTNHLABlLGMfPSJ69wQIo8JgFSQJjSHB2LAucCURTgWlgNCIojRQQmrpqJLAZcA9xo8fL2MFPqMYvXd69Cg4QllTqZA0dJ9yovdFfqjMaRUIYbGjiGjIL+4x/fhB6HhGju+1117e3f+2STA9xOde+NtR2yoyAliKlIs0guWOQCsbJkTYhSgJzg6iGmt9pGNCOaUeETgxTKoZhiXs/ravtghsnPftacBo/MME0xw/PecgVAplLeO/9o45jusH1xGDvVGCT1gb5p133llOI0YM7jAEFxD8HYSehsKWisE20rVr19J5/Kentu2227JZ4gzRXhmNOdep4pGTUn5hcenzpLkEl5pyMATPx02GsvNF3VYMfqIgmJzQu3fvFmG66ZEitQhg5+fXtrMjQMPudxTiUli3bp0cprOEiyoolHMCIBJg1LdOqIvGsBdEy/77CFTF8vBv6G+r0vD3+dv+NFx66n7h1vP8HrxWKIhhzj777NJHB5WZvcJYBr9nnXVWsx49PmWffEcbV+6D1YSoi4d7YtbrWIkcTPmFFYO7Lq3g407jrgumR08Ta44GgwHTID+GPotPGRpMw/4XDwE6UHSQGBdJI3QgqGdRbi5m5IVRtNI5wkpmii8WPIokKDDsxUXeDZ5v/xsLgaooD2VG09+0EDKAiMnMrCAqzKJFi5pdiiKAtAZGM6wIeuI0lvj6lWt5xx13dAcddJBch1lOz5xzIcHBUlFhQJEeHeMjTClVq4PjP/vZz6QC9u3bV6wNBtYRHUtg/QLPxgwWKhrbfoPP/ZguyXgMeY2zniRh76u1jInMsiJfwQFPqF/BwwbLPbBrtEmZpMwoyybbQVcRU2dZZwVxGdZ0kPApLutY2dSJcsQY9spBrW1ck7vbikaf2SG+sG5BJWh9oABUOAaxC0IPmVkfvjAYDF0pvaO1a9dK40xjecUVV0gl03PVjztz5kyZMUVPi7Tx2TKIjuC+wfo46qij5OOHQ6aysnYCi0XZ1Rh4Z0wGYTBdB8+3ahqg53l1nQfHsaCwhHC9MUUXtra00lrGRHqG8HIz4YDFlYzZoMyY5w8OJrVHgAkefh1hajs9f7gktH4wNoGi531OmDChtD9N7pkmzixDrE8dP9N6pr9x6RjDXhw6bfdYppDs1WQSZKbU3Xff7V566SWpSOqSSvuqGFCkl49SoNH2hQae/WEVR8dNglN1uR7LhIqOS8hXLn7aeWxXmjGRRglFwlqBaooxCVYT7eb3qnTdrRXDXvOnatx/xiRYgXcbNsiXJlnGI6LGJLBSokTHN8KO0/PTQfyw43ntqzRjIhWfj0nbQYBoD5UUY9irJJr1mVYmtxWNcbWYBJcvXx46QF6fMFuuQcCYBK0cGALpEDAmwXQ42VmGgCFgCBgCdYZAVWZb1Rkmll1DwBAwBAyBBARMeSQAZIcNAUPAEDAEWiJgyqMlJrbHEDAEDAFDIAEBUx4JANlhQ8AQMAQMgZYIZFIeRWESbPkYtqceEDAmweq+JaIkELrdpP4QqAcmwUzK45BDDnF77LFH6jfB3HIWu/ifohA4pX4IO7FiCCiTYMUSLGhCRHEmJH4aIWwN9YNQ/yqs/mcfgTxbIywEhXLYpP4QICIEwSyLLJnWeZTzIIRXqDSTYDn5sGsMgSIioIx+xEIjkgALQolkgOixIubb8mQI5K48gDgsGm5rmQSJy/Tss8+KJQS7H3GviJQbxyRIXgjJTtBEYloREp64PTD8Ee8JLnLCmhCPizDuEFhp/CquNTEE8kKA8kb4fJRHUKJYLAmgqB0zyiwkZUSDJmji1KlTJRmiPxOahLD+LPAdO3ashOrnIIFHL7jgAjd//nzXp08fiRT9zDPPuNtuu00UGeFriCDNgjV4cDRGnCRsX20egUxuq3LQolAriyC/ytzXWiZBCjVkTCgmCruGFo9jEqQSQo40d+5ciTJLdFvl86CXR8yq6667Tvii4RmhYpkYAtVAgLJIxwWqZF+oP1EslnR4iMhLwE8E64UOlU9SxnHiwqFM6FidfPLJpeSpQxxHcXAdNM+ciwKCHAplBEslvxpJunSxbbR5BHJXHiDsswj6saNayyQI1wVEU/TWbr31VnmZcUyC/tumQlDp1LL4/e9/LwyBhGChR0c+NeKuf51tGwJ5IEBZJmKuH3Ga+6RhsUTxEC2X+oQSULeX5hNr44knnhAKAWUW1GP8YqlgnRB9mTpxxBFHyGHon+EBgZIAJbP77rv7l9l2G0cgd7cVYx55MQkSrtwXjYhLjyqMSRAmwFWrVknloIKgQGDiI/giigLTHDOf3pcyGlJpcG+ZGAJ5I4B1AO8KkZtVmKGGRLFYash2gnYqMyfWigr7lHwMJUBkY9y8dJZUUBq+EI2adH0riLqCpWNiCCgCuSsPvVHYrxb8sGPsS2ISDAZp1LDtMAniIgsTxlpQCFCzDhw40B177LFimvfr108Ux5AhQ6QSYrYzgGmDlmEo2r48EEBBUIYPPfTQUvJqqWNRM65HxygLiyVlXTtA8NXjpvUVBzeC18YXjUYN8VQYbYF/rm23XQSq4rbCDeR/0sKdxCQYTIeCHsckyLx3el70xjDv6a1pbwpTH0WB35mpkmaiB9G1/9VAgKnsWAYqSSyWel7cL4RpjGNQpqGlTRIIw7BezjjjDBlHIT90qnx2zKQ07HjjI5C75UEh9FnSgNT36watD7+nw7E4JsHgtaQdxyTIvGkq0ogRIzhVZp/g60UefvhhobRVpkB6edCC+vmRE+3LEKggAsEyvHjxYqkf0BkjcSyWUCyrkI5+/H10kJgkghXN9i233KKHS7/BMg71LOMgUDX36NFDzsNiycKAWUrcNhoWgTbHJIgJz6Dhhg0bhMM7+Gahk8VsVz9x8Lj9Lx8BYxIsH7vWsFhiUW+11VYOErSgoojLEdfBpc404iAFdNx1dqz1CLBIlLHiV155pfWJ5ZRC7pZHa/NdaSZBXFZxbIDMeDExBIqGAFZDXLmNyy8KI2ytVdw1HOO6cu+ZlLYdr38EMikPYxKs/xdeyycwJsFaom/3ricEjEmwnt6W5dUQMAQMAUMgNQJVmW2VOjd2oiFgCBgChkBdIGDKoy5ek2XSEDAEDIFiIWDKo1jvw3JjCBgChkBdIGDKoy5ek2XSEDAEDIFiIZBJebSGSZAYPcTMMWm7CBiTYNt99/bk2RCoBybBTFN1YRJcsWJFpoUrrGwlDLRG+iQeFQyDJm0PAWUSnDZtWkM/fM+ePR1xpFilnUYIh3PZZZeVTmVKPCvNZ8yYUdpXi43LL7/cLV++XPg+anH/tnxPmASXLVsmsc6KikMm5ZH1IQjvQYDBN954Q3gyiCN1+OGHZ03GzjcEGhoBDb5JqBwCIfbv39/RUVu4cKGEaa/Vw7O6nEgMJoZAGAK5Ko/jjjtO4u2wzJ6V3R9//LGEPScjKJIk5r4otkCsGWJUEV2UlbMEfeMeBJH78pe/7OgxderUSVbIwhI4YcIEyUcYALbPECgKAkRTgF8GYrOpTeHZDzvsMCE6wyohsCjWO/WIOGyzZ88uZZv4b0TGxdqBloA4VMRvg+MDK5+wMBqJl6jSBEckPVgICX9B6HUWcN59993CFnj22We7bt26STRerChiY3FcPQaEOoEorX379lLHUHJ33nmn5AdqA2LZkRfySwTfk046qRQWhfvC+AkZHAJFglI2HHnkkdK5JIQQIVEgZoNTxKSYCGQa88j6CMSJwk1FgQ8Kva0k5r4otsBhw4ZJxaDAMo5CgdXouLCudezY0c2aNcstXbpUKgGV0MQQqBcEdtttN8mqcnhow06jjBV/9NFHO+X54EQiQXfv3t3BfgkbIO4OApJi5e+7776iECBLozGHhhmhztBIQ/YEjw11lHQR3GUEGGUfjTvbdMAQ6i354Nrvf//7DtpamAvpwCFDmqLvolxuuukm6cQRZFH5RajPl156qSgyXJc33nijBGvkOpTNUUcdJW0C9ZprYAU1KS4CuVoe0F5+8sknoU+vzH34weEUx1zHagiKsgWyH8ZAKg0Fn14JlYtCTIFVoRDC5/HII4/ILnpVe+65Z7Oemp5rv4ZAkRA455xzpHGmI4SVrpzhlHU6RFgAuJGgKujcubOQmWn+sTbg30CU3ImouCgALBDqBXUJWgIacZXp06fL+EqHDh0cPX8EC4gP8bSol8q2yTGUFNe/+eabojCwELg3DT8cOqooOJe4WHgDVFBkWEBErsYjgDz//PPyi48f+d73vidWDvcYNGiQKKK1TQEdTYqHQK7Kgx6TWgTBR0cBpGHuC7IFKkOgFmh6YioUXHpXymfO/vfee8+1a9dOT7FfQ6CwCOCCJTAnnSQ/kOG1114rxGhY8doZ8xUADxTG06G8IFpnOI/ouH59eOmll9jt3n///WYNv+wM+UIJIVj8OnuSOoYSQR588EHhw8H1RYh43GJKqwAlAvtUccgFf/1CeaHoaDMQLB6EzqIpD4GicF+5Kg8qAr5TFAWBvnxJy9wXZAuksMMAiO8UBYLloqJ8BlrA2Y81Qy/OxBAoOgKMY2inSPPKoDXlWcNzw+ExatSoFg29Nt56Hb9/+MMfpLGmIQ+Kur3iQrRTn7AUfNEo11ObxmTClABMiJBIMaYBSyfjk5BQYWGgZOjgUWeD0Xqp53gR+KBEcKchyg7q58G2i4FArmMe9957rxQWBvxgIaOnwuwrBAsB/2lW5j5MbwoXA+ZUJDW1FU7MbDXrMYUh1QlWSD3Xfg2BekGAThD1xydSS8o70+qpX6zPor4xBokrKK2oiwyXmc4Ie+GFF8SdhasYpUa6Bx54oNRF0u3Vq5e41FAG6pJSC4jpxygk2gAopnFrDxgwQLKj5zKtn+dkthluM98CS5tvO686CDTvVlT4npjIU6ZMcQxw84uoJZGWuY/CFhT8tIMHD5Ye2LvvviuH1bLBn4qywneK0FNCiZkYAkVFQHv/+uvnk8aTXrp2urTnH1Yv/OvYZuCZRhqFoUqD66k/KnHpwBxIJ406xbgGaeA2mzx5suQHdxpCGgyeI4wxMrtK0yX/0NoiWBFYLNRdHYCnjZg5c6ZYMbiomRnGh+s5l46iSTERqBqTIIWYAhH0zbaGuQ8TF+sCNxYfX+gVYcqb2eujUtttYxIsH3/cQJR3LOuswvgI7Jk01Np5y5pG2PnMsMKt9dZbb5Wm4nIeXgbqNYojqvHfqmlGFrPDguRrWCN6bZgyDctHI+4zJkHvreJuCpNg4Qk7J7iPdRwUMmZsMfbBzI+gUKBNDIFGQaA1jT5jH2F1pLXYBDuCmh5jjEn3ixoEZ8A8OB6i6dpvsRDI5LaqJpNgHEyEfWDaH/5WTOewgbu46+1YbRCgYUDhN7qwYI/et4khUC4CxiRYLnJ2nSFgCBgChkChEch1tlWhn9wyZwgYAoaAIVA2AqY8yobOLjQEDAFDoO0iYMqj7b57e3JDwBAwBMpGwJRH2dDZhYaAIWAItF0EMimP1jAJVhJiQptoFM9Kpmtp5YsAITGyrJDONzf5pU4sqd69e+d3Ay9liKRYhMtHo/F6h0ubRJZmoS4rzoPCCnDqNmulmMFoUnsE2jyT4K677uqIFBqUkSNHysrv4P60/wlJwtz1qHnmadPxzyNKqa5K1/0scIKTxKQyCBiTYEscabgJox4mTGumEYkT+DuIA8WiOwIPQkMQFHAn3Dorw5lu7wthTwjXrtOoifxAWBCT2iLQ5pkENTzzbbfdJuGg9XWUs0pWr83rd82aNe7iiy+W9SO8uNGjR7eJNQl54WnppkMABUG5Q3r27OkIoz527FgJA0IHKUmIwMvnlltuiTyVjhEKithSQeF+KIskJRW8zv4bApkWCZYLF6vLwwKcEXFz6NChwg/AohhCtCuHAYHYiM4J1wchEKhIxMPRIIeY6ARVQ0EtWLDAKS82PayDDz5YQjlQKVhAmIZJECuDPBJUEVm9enWz0ApUPo6zoj14T1xoV1xxhSwMo2fHfamohBhAcNUQ8weliZsBobLzrHEYEFEV1jUC0yGEmmd1PUKP0RgTBYq6/9K60bVrV3kW/mvodXZgVUQx9yU9vM8kiLs3yCRI3aI8a/w3zscKiWP1i6sLVi6T3kjjHM805lHuY8PuN2nSJPkoYQ0NLsHeCGzIMX5PPfXU0i1QKj169JDGn57YT37yk2b+WhpWAqpBNkNUT7VyUDpz5syRhpVfQsIfccQRpXTL3SAcCpU77J5UOOIHocDgRYCbAIpOFeISwedOIwDDIQHniNuThAG9QcLZ405jJb02MqRrjImKbmP/Up6xgolrFcbcF/f0cUyCWNowBMKbQceNbT4oLeLCxbH6xdUFK5dxb6SxjlVFedDjJrwzH4KzIdqgw1GMzxYlQAUh9j8Caxrx/9Xa8K0SjkNv+fjjj0uFQnFsv/327Hb33Xefmzt3rjTUm2yyiVgBKJpKSNQ9UQpYEfPnzy8R34TdDyUAwyGEOUuWLEnEgBAXNB5YRdx7alOUURUquDImQvlJpYcx0aSxEFDmPjoOdDZ85r6kJw1jEiRAIh0dFAZWPIFD6ciwzYfgpbhtEcorrIR0dujEUM5VouqClUtFqPF/q+K2uueee5r1moGVmP0UVNw5KlgfyjxIAYePIEqUQVBDVOssEqyZffbZR0xv6DdpfCn4lZCwe9LAo/Q0EBw+bMJXBwUFEAzWmIQBuI0YMUJcDaT52GOPieJBWTIrxhgTgyg33n8aY4SywgfxmftkR8SX8miEMQnGjaekYfULqwtWLiNeRIPuroryCMNOZ33gxgoLvUy4Zr+nE5ZGcB8NKopj0aJF7vbbbxfFMWPGjOBpFf1PBFEa9m222cYtXLhQlF+QfY0b8jxBScKA3h18CuAwfPhw17dvX3HJ0WtE8WrDQrr4mo0xMYhw/f/XzhFWZ1wAUMpgsJOEgqCchDEJxiFDBF86RHzo9KRl9eNeVi7jkG2sY1VxW4VBBkEMPRUGxem900saMmRIKRop7izi+h966KGiBBj/0MHssPTYhxJisJr0sGBocLlHGqGiMBjO2ATCdlp3FxbFHnvsIfPsw6YmR90/CQMGLVEK69atkwF8nk8VLa5AY0yMQrZx9icx9+mTUl9wSXXp0qVUh8plEmwNq5+VS30jjf+bq+VBLyRK6FUTWh2/LIoBofeEfxXBj8/MEHiQ+ZDWjTfeKMf40kZUd/Cfc5h5xQA6Lh96TXHmuV7L79Zbby0Dk7rvkksuKbGn6b6we3IMxjbYC+nh4ZNGgYVZGpqO/iZhgO+ZgUuei3uDF8+EGGOioth4v369SWLu06en3my77bZuzJgxUkZYn5SGSVCv93+xcJJY/aLqgpVLH8nG3q4ak2AUjIxJ0MOn0dXBdP9cLBIGCul9p1UEWBGsZvbHGHBphbmTuBcVQRtl/95Zt7kvFg+D+0yjZRJAGonDgGm6WFL+TCs/TVxX9cKYaEyC/pvLvk09oAxTroONd1xq5TIJtobVr57KZRx2tTpmTIIpkKcSxDGHMQCtg9EpkpNTUAS+4mAnPTJW2oYJYwXwLpcr/fv3F97l9evXi9uA3mJaxcE94zBgcJRPlASfM+o821//CJQbUYFOV9Y6BFqtYfWzcln/5S3pCTK5rRjgbQ0dZlJm8jw+ceLEki84eB8GoFsj+IgZn2HGFz0GXGcmLRHQEBgtjzTWHmMSbKz3WYunoU2iE1pkyeS2KvKDWN4MAUPAEDAEqodAzWZbVe8R7U6GgCFgCBgClUbAlEelEbX0DAFDwBBoAwiY8mgDL9ke0RAwBAyBSiNgyqPSiFp6hoAhYAi0AQQyKY+2wiTYrl07Cf3B+guTyiHQVpgEK4eYpWQIFBeBTFN1DznkEAlW+Morr6R6onpiEuSBWNjE4r4vfelL8nysFIdPI26dRSog7CRBoK0wCdrrNgTaAgKZlEdWQDSuVD0wCfJsLCQkRArxqVjTArEUCsTEEMiCACvBKTdEiTYxBLIiQDQMKCZWrlwpoYmyXl+t83NVHvoQ9cAkCKMfoUWuueYa984770jW7777bn0EiWwbxeZGNFMIe7BcePGsimfFuoaQ8NncUErK5lZK3DYaCgECcrKqGz4ME0MgKwKExB81apQbNmyYrPLPen21zq+KU78emAQ1dAnBCoPC2AfKgdhVYWxuRAPeqilsOsEccXuRhlpdcWxuwfvYf0PAEDAE6gWBqlgehGkmNAWiwQ/DmARpgGESJNyHzyTIdcpdzjZCAw2T4LJly6TRxsxjLAYmQSwIgvBlYRIk9LkfzfQvd/nLt7K5ER8oyOZ2ww03lBQFZxOny49rFcbmRvRTgtWlDfTo58W2i4kA4WmgDUY233xzsTqJtIzQ4SAydNgEjKeeekrioXFNUCD7gtZY2TX941i38+bNk6jL/n7dxmqmU1POPQmIWKT81AKDuHvSzuTxTqBYILq38rJceOGF4kanPYH+umhSFeVRD0yC0HGqtRB8SbijkCg2N2hlt9tuOwnJjgKicF111VVyTblsbnKxfdUNAnRU4KpHtMHW/7gyIVTS/f5DUVboNGkZ84/RuaAhUTIm/xiRlJnYEXaM8+hAlXtPojgXKT+1wCDuniiWMNxb+07AnTKj0b/5j+ub3yJKVZRH2IMnsehVm0kQ7Q5/BjPEsGZ8SWJzQ/FAasWLp4fJ+IlaUDQAKJSsbG7+/W27+AisXbvWnXfeeZJROg7BMY+RI0dGPgQ84XHy8MMPRx4+/fTTI4+15p6RiTYdqEV+inbPPPNDJxUX+KWXXlry2MS9j1odq8qYR9jDJbHoVZtJcPHixVLhGdzGNYXFwKA37qwkNrdevXq5zp07S8RhZWFTi6NcNrcwzGyfIWAIGAJFQSBXyyNqDIGHT2LRqzaTIHliUBw/NeHbEfI/e/ZsCY08efJkd9ppp7lrr722dAxfNrLTTjuJotHnhbgJ5YiUy+YmF9tXXSIwY8YMm+Jdl2+uGJkmpP/UJs76oo+JZgrJfvvtt8siQX4rJfiBi8YkiLXBZ82aNS0agSg2N/ySDJqiOMJYCctlc6sUzkVIp60wCRYBa8uDIZA3ArlaHmkyH8eix/W1YBJkDINPmESxucFGGMfWRi8i7njYvWyfIWAIGAJFRSCT8jAmwaK+xvrIV1thEqyPt2G5NARah0Amt1XrbmVXGwKGgCFgCDQKAjWbbdUoANpzGAKGgCHQFhEw5dEW37o9syFgCBgCrUTAlEcrAbTLDQFDwBBoiwiY8miLb92e2RAwBAyBViKQSXkUhUmwlc9ck8tZz9KvX79S/KNgJnbccUdHDLBvfOMbwUMN89+YBBvmVdqDGAIu01TdrEyCLCbU4HCffvqpI0rojTfe6FgT0daERYIoj9WrV8vqev/5WWBIXKQFCxa4N954wz/UUNvGJNhQr9Mepo0jkMnyKAcr2NQuuugiN3/+fGHHgp2vLconn3wi4U9ee+21Fo9PRF7Cy//gBz9occx2GAKGgCFQRAQyWR7lPAAWBxFH+RCegqi1U6ZMkaSIPjt06FDhtuC8O+64wz333HNu0KBBjmCD9NY//PBDYedjm/hSS5YscXfddZc0tE8//bSkM23aNDdp0iTp0cPSR4wpQoXAS8Cqbhjd0rD6EU8ftkAUXZ8+fSQ08jPPPOOg0SXmFS4lwmsTfoSomsS9UjnooIPcgAEDJIQ2FKSPPPJIKfooUVaVH2H8+PHNrIsjjzzSQRgF0RRRfa+77jpHUEiE5yTcCfclXDyWCc9qYggYAoZArRHI3fLQB8RlQbyo9evXyy5iRBFoEMuEhp/fU089VY7h6oIfgYZy0003lQYUQqm+ffvKcZSCH+Oe2PtwGyBcu80224gSevTRR6XhZTwBSWL1Q0HRiKM4nn32WWm8NUwJq6Mh2CF4Iq4lLCh8+AhKZ/DgwW7Dhg3S+N9///3N8sd1BFEkn/AsqMCZcNRRRwkmBFBEQWClqfCcXbt2FSIYQsYfeOCBkZwjeo39GgKGgCFQDQRytzwguqExpWFkrAPrAYljEuQ45z7xxBPu+OOPl4YcpkA+aQRrRfnHGafB2iGKb1pWvyeffNJNnz692a2wCDp27CgMhygJFAZh2FF6KCWsHRp+tXD8i2EXVF50fz+WBoJlhHJCeWF1gRmWGhLFmCgH7csQMAQMgRohkLvygHULFw69eVw3WBQIhCc0uIQzV6Eh1p45rh8VXFp/+tOfxGWk++J+SUeFgIRqpSjHxs4776yHhRa3Xbt2zcIfh5HzEIp9iy22EDca4xcIjT0CYT0WSpjikBMivrgOF5hS9K5atUrOxKJR5aED6EpIhSVmYggYAoZArRHIXXlgQcBtwdgBrhkY9c4991wXxySIq0a5McIAopFWRYA7LChRjTiKhHSTWP2Ip+8LIeNxMY0bN04oZnGDjRo1quRC+uijj0JpKf00wraxkHCT8UGJKLWlusrCrrF9hoAhYAgUAYGqjXnQODLAjPXRpUsXUSi4sqBvxTJAGQwZMqRkJcSBQ+Pao0cPGUNhrCGttJbVjzEbLCZcab4wcM9Auj4L4zm9e/f2TwndVtbBk08+WdLFxYbFxSC5iSFgCBgCRUYgd8vDf3iUB2MdJ5xwgsxqYmyBcQgUAYJrikHuoOWAteBbIlw3cOBAGT9Rd07wGv++em1aVr9gWjTmjFswwI/oPTVdLCvGY/bcc0/5cM6iRYv4cTvssIO7+OKLZZuvCy+8ULYfeOABUaYvvviizEJjJhrpTW1iEEPRqgTzEvyv59mvIWAIGALVRCBTSPZaMAlGgYGrZ7PNNpMB66hzovYzVrHlllvKeAeuo7TCTC7uy8yvMOHY1ltvLbOusqTLrCplIWxk5WBMgmGlxvYZAvWJQFUtjzCIaCzp1WcVeuf+wHiW68tl9UtSCOSJKbVZhQHzcjDIeh873xAwBAyBSiGQacyjnpkEKwWYpVM+AihJaIVNDAFDoP4RyOS2qv/HtScwBAwBQ8AQqAQCmSyPStzQ0jAEDAFDwBCofwRMedT/O7QnMAQMAUOg6giY8qg65HZDQ8AQMATqHwFTHvX/Du0JDAFDwBCoOgKZlEctmApHWKYAABaoSURBVARh4CN0O4sCWbld79K9e3d5nuBzEIKeQIuNLMYk2Mhv156trSGQaZ1HViZBwCTkCKHEVeC2WLlypf5N/IX7g2CKxJtiDcUvf/nLxGuiThg2bJisaPePE4DQD4PuH8tj++CDD5bovMpFovcgmu4LL7yQaZ0I0YIJ6X7++edrMoX+NSbBQr8ey5whkAmBTMojU8p/PRnSJIIiElzwxBNPzJQElgYxr2jcNcpspgQCJ8+aNUvChsAbQowqQqEXhRJ3zJgxpWCRgWxH/u3UqVNDWGORD2gHDAFDoLAI5K48aJz5aCh2H4koJkHOgUVPQ56PHTtWLoOjY+HChcJ3AeNf+/btJQ4W+4hblSSaF1aYBwMQwtZ3ySWXSNRcwsSzoI37pWE2JLwI8as0Ki6xsCCNYsU5BFAoBsKhELuLdD/77LNSVrHM9t13X/kPfwncJypR7IUoVMilcOkRXPLee++VSx566CE3Z84cCRh5+eWXO5QLK/hffvllN2HChGbxwfQe9msIGAKGQDkIZBrzKOcGUdfEMQlyDY0dlgJy0003uauvvlrcOjSYNMzEkaIBxarZb7/9Wt0Dp5EnTRQAdLg0/Mq3nsRsiGVETCvyS8DDrZrInKCXRaCnRXHMnTvX/eQnPxGmQznw16958+YJkyLPRdReX1SB8bw+eyH7wYNnJ5gi23w0GCNuLIiryM/SpUtdt27d3GGHHeYnbduGgCFgCLQKgZopjzAmQRrv3XffXR6IxnLNmjWy/dprr7lXX31VLBgGnLFI6N2jgH73u99Jjx7ffyUEBkEsGQihCLyogtWCZUBjDUUt4y/KKQLtLWHiIbKCDpcYWD179pRLd9llF/fee+8JMyFc6EokpekSoRe2QKySoMBeyPjQtttuK8EWOc6gOnkAD2UnZJuPxt6CewTMIOFC8XJPIv6aGAKGgCFQKQRyd1tFZTSJSTDqOhpGhOv5IDTOKJFKyEsvvSTJwICIS0glitkQBcN5KDRlKIT5UPNDtNw333xTk5G8KltiaWfERhx7YcQlkhe4RX7+85+XTgEf2BJNDAFDwBCoFAJVUx46zVYb1TgmwbiHUy6NqU28F/jyKy1RIdHp7YeJsv7R07/hhhtanEL4dt+CYZyGMZckSWIv5PqwPLGPjypZzsMdhuVkYggYAoZApRDI1W11/fXXu+22207YARmXQNavXy+/ECiVwyTIdFasAAaaaSDpZTMVGGrYJGHsgoFx3E0bb7yxbH/lK19Juiz2OMoGhfatb33L4aJCyAtjHQiWDPdgEJ6BceVTl4MpvqLYCzVtMOT5wUEFhfXNb35TXFz777+/uNJwa5kYAoaAIVApBHK1PGgomTGkwoAuLh0EP38Uk6CeH/aL/37y5MnC6odbB6GnzeB5kjCIDXOhCgPR69atK7H7sT+sNx+0RrR3r+kwWH3FFVcIN7vuY5YW8vjjj4vSUAZBfX49j9lV6h6DLIkP4ynMlopjL+R61rwwhRlFyod7MWZz8803C+5MRUZQbjojS3bYlyFgCBgCrUQgU0j2cpgEtef81ltvyTTVYH6ZZYSLBnfWr371q+Dh2P+4wrAgSJsGngF30gsTZk8FlUDYea3Zt+mmm8o4DPkJuqawkhh7CA6YJ90vib0w7nruCa7qWos7txrHjEmwGijbPQyB6iCQq+XBI9BwxTVeNOjlsugFV5uz1oMpt2GyYsUKp5ZK2PFK7GMcR8dygumhUMoRnUFVzrXl3rOce9k1hoAh0LYQyKQ8is4kiGsI6yNMWtMIh6Vn+7IjwPoUYxLMjptdYQgUEYFMbqsiPoDlyRAwBAwBQ6D6CIQPEFQ/H3ZHQ8AQMAQMgTpCwJRHHb0sy6ohYAgYAkVBwJRHUd6E5cMQMAQMgTpCwJRHHb0sy6ohYAgYAkVBIJPyqAWTYBxQrORuCwH/qvmcxx57rIM0i0/Umpm4dxJ3jPT69evXIrKwXsNz3nPPPbLyX/el+SWmWO/evdOcaucYAoZAhRDIpDxgEtxjjz1S3Zpw5oQnh+cCoeGYMWOG7EuVQNNJgwcPdmeeeWbk6YQZ17DpkSdV4AAhPngWPjzDxIkTS0EZK5B8YhLVek4ywoLNHXbYQVbiR62ZScxwxAkEj0R5cI+gEI3gvPPOk4jGRFTOIj179nQwNJoYAoZA9RDItM4jS7Y01lLXrl3lMoifdF/adGhkghwX/rWEOK90A+enr9saPuSaa66RIIf0zuEbGTp0aO6r1slDtZ6Te1155ZUSh0vDqbCvUsLqekLCaKh9P11ioBFeZebMmf5u2zYEDIGCIpCb8uB5CWDIh4CB9N4Jc96hQ4cSFMSaOvzww2VhH2E04K94/fXXXa9evSRWE6FHEI3LRIMGhwXujXPOOUeOEduJuFLIFlts4eBIh3mQ+FDI8ccf73r06OGgnsX6gbiJhoptwqHQmKVdQEijR0yut99+W64jICFkTnFMguTh9NNPFwxQdIRJwXIhIvCll14qDIvEsULIEwyKUPfSkEY9J+fSyBNji5Dv3J+w78Sy0hAsBGYcMGCAKFfeAdwepHvMMce43XbbzZ111lkk404++WSxBNLwuEcxG0pCTV9R9+Q472XzzTeXU8ePHy/kVvKn6csvB5QTLQccBw+4WwhoiRJfsGCBmzZtml5qv4aAIVAjBDK5rcrJ46pVq8SlANPekiVLSkkQdwkCJ6LsElaEhkEbsGXLlgkzHsc++uijElMesaEQuComTZoksaJ8y4RGncbz0EMPLd2HeEpKmoTLBJcMjH40pPCBnHvuuaVz027gVqHhVtrZOCZB7rfXXnsJkyAuPJSCEj8Rxh0iKeX3IOou2+QPiXpOjhHzimsJwPjoo49K44qyQYioi8tvw4YN0hATfFGj+RJ/i2tV+E+Y+DQSxWzItXH35DiUvgSvRIHq87I/rhxwHMWI9YpFQocAha2WIMdNDAFDoDYI5K48aCzpNdLwaDh2HpUeJkJvGdY+GkAalq2aKFzhniCEONYIUWiVKY9eO0JaWAAolqAQAp2GDCFwIsx+WAcIFgjhMW699VYH3zeNsyoAOSHDF715Gl4kjknQT/Ldd9+VRlDDo2u+aBARtc40Fljcc3I+FhON8oMPPigWza677spuseZQbii15cuXi8KC/6S1EsVsSLpYkHH3JH5ZGP9KXDnQ/PKuKUcoHxTH9ttvr4fs1xAwBGqEQO7KAzcUjaH2pvU5cV+hDGggESwU5Ktf/ar8lvs1Z84cUUJQtzLQzD3gAEFQJEomxX8atKzjMFyHcB3PFWQSZOYPCk+tJGhkeTZod5lJBGGUMiASeZfgjowHEZMLrvPFixf/5QYpvlFGKqSl1gXYkjd1Yek5rf0lsCS0tsxswvWHMAiOlHvPNOVAB9D13anSlhvblyFgCNQEgVzHPPSJhg8fLpu4ZVToNdNg8qGBVwtAe916XlYXBf5xrAtmhnXp0kWsFk2LAVvfzcUYCRZEVsEVRb5Wr15dihgcxSRI2oxP8Jw0ugMHDnQMuON2Q7C6GHhnthBp/vCHP5T9ab6ilAMWmeIZTOezzz6TMPa6P4wMi3MQ3EsaQp7JC7iYxo0b51555RUZjxk1alTJhRR3T71X2G/achB2re0zBAyB2iGQu+UR9WjPP/+8HGLAlp44jT0NOY2/Cj1OGvuvf/3rMpis+5N+sTRg7oMxcPbs2aXTsYLg8kaJ4UrjoxZC6aSYjc6dOzvWujBOgnUBmRUNeByTIBYQ4y4oyGeffVae0ff5ozxw9zD+wwB+JaLOPv3002IZnXHGGWKN4L7TdRBggyLr3r27YBRm6aEIydNxxx0nrjnOV+F98L6YiOBL3D3984LbacpB8Br7bwgYArVHoCqWR9hj4v9+8cUXpWGlcaWxmtrkl6eRVfnP//xPWVfC7Cl65RdccIEQP+E6UdcP57L+ArfNkCY2PQSFgSuIferyYD/p4y8/5ZRT+CsKgLSShLwhzPBCwTEAz1Rd3R/HJMgMoxNPPNGNGDFC0qCnDamWCulhwaAgoeb1Jek5/XPZ1vyQDs/JAkpdRAmLI4IbjVlv559/vpwfNm5EOnPnzpXBacaJwBOM45gN4+6JpabrfciDTgMmTdJOKgdBCyv4nzRNDAFDoLoIZArJXg6TYNLjMJuG6aZYHNVqFBinoPfP7CwExbTJJptEZjVIHRt1Ir54lFqQSZCeO+MZzH5iMkC1hPsyy437orR8AXOsLl9Z+8ejtpOYDePuGZUm+1tTDlhciEtt5MiRcbewY4aAIVBBBGpmeegzMGBeLpOgppH19ze/+U2zS/r27ev69+/fbJ//J+0q9igmQRroaj8j+ee+ut7Ffx62dfpycH/S/6ASCp4fd8/guf7/WpQD//62bQgYAtkQyKQ8is4kmO3R/3b2/PnzZUrr3/bYVj0h8MEHH5RmmtVTvi2vhkA9I5DJbVXPD2p5NwQMAUPAEKgcAjWbbVW5R7CUDAFDwBAwBKqNgCmPaiNu9zMEDAFDoAEQMOXRAC/RHsEQMAQMgWojYMqj2ojb/QwBQ8AQaAAENmqatz867XOwuprghRpjKO11zP1nHj6rp9Ou5SAsOyvBWSnO1NqwxWxEkWVxna7XSJsfQp8TBpxAjWnXcKRNuxbnEWeKAIO8m3Kn4OaZb9a/EJKFd0lIGMLH5yF9+vSR0CvBqdjl3uuEE05w69atK4VoKTcdu84QaEQEMk3VJYTIihUrJLZRGjBY+AVfBg0GC/EQQnoQIDBJuIb4THwI2xGmIAh82LFjRwlLnpSef1wZ7VjZTcRWX+DWIBIt03fzFsKdEFXYF9ZJEBYkrVxyySWympwGE6WoQSDTXu+fhxKCsyMorPDXSMDBY2n+syCT90gcLfL42GOPpbks8zms1SGcvx9VIHMi3gUoZNILxlvzTrFNQ6DNIpBJeWRFifhHhOcgfAeRZXfffffU8/EJJYLARREl5TLsxTHaEQCQFdnVEMilCNuBhUVDhaLNGtuK+FyEEpk+fXqrs0zDjhDm3V/UGKa4s9yM6L8oOUK0EHXYxBAwBOofgVyVB24lQmAojwPERb74DHI+k6B/Tth2HMMe55fDaHf22We7bt26SdDAnj17CoETq541DlYSix5MeSxWwz1H+BMIn2gsw9xt+kxYGYRlUf4RLCH2qcSx6BGpl5AnuARx1xD4kBhRROsleCEWVKdOncRNCP5+LC5NP+oXd54foJLzBg0aJAyPWG2sMickPduTJ08Wki86COSF8CwwQHI9ytB/nqj7EYeMyMKkhxvxjjvuKFmTcbgT8BEWSULRs4BVmSe5D4oQPpMo1kg6NuoS1fDyt9xyS+m+UXm1/YaAIfAXBHIdMMclhKuChpUGQl1X3JpGNopJMOnlxDHslctoN2PGDLGQaOywkmgMaXBVUCT0yGkQcYsQssSPSItfn0i1hDOn0cfd4T+vppPlN45FD2Ik8kgQQyLasn3fffdJ8gQ9xJ03a9Yst3TpUlGKuPjSCrS58I7wuf766+UyYloR/wsKWJ4V5YCrjNAuCMexMokc/MQTTwi17X777SfH4r5QAKeddprDOkHx8QtlsEoc7ih28oSVivJAeakksUaSX8rmVk3kY+AEGVna8Ti9h/0aAm0ZgVwtDxoa/N1wZtNAEPUWFj/88j6DHA0EvU56t1TmtWvXxr4TzkcxMQZDI+mLz2gX1hjgjgkbVGYSAB+i3NIoBn38sOhxLyhlcWuhpBiz8AmZsDaU1pZQ65UQZdFDGRFll2i58GlAIsUH4Xn8/KKYCasObzlCD5voun54ejkQ8YVloQEcfQzZh2Kg146SIC98VLAeNWIw7xzu+qSxI0iyEMLlMy5CLC7KAC5OwrXH4c55qqywaqdMmaJZacYayU7yCeNjUBhzIpCliSFgCGRDIFflQUh0JT2i8SI0+bBhw0R5xDHIJSmPuEcsl9EuLk2OwaLHID4NqxIkofB80cbc39fabR381Rlu9PrjBGsHlxLWmQquQ3hM0sq9997bTBnpdShWFdxLKEufidHnRkGp4lZLEtxcWE8oOBWuVc6TKNx5HiwNHZtBsSk3POmEsUYyPuQLVqYpDh8R2zYE0iOQq/Lws0HPkMqrFgeNMJWfD5WYXicSNrMl2Ej76Qa3y2W003RoyHzfOfuTWPT0WnretRbyzwfrQ4UxELUkdF85v6QbJ+3bty8dRokHp8zynnVQXk/E3YRgsflWDvvicOc9o8xQ6AjTlP33loY1UhkTJQH7MgQMgUwI5DrmwYAxg9f0IlmPgStCG4u0DHL0ZvfZZx8ZiNXeaNwTlstop2mqSwoXVbChi2LR02uz/qI4UahKBcs2DWZrhUZb3Wooa3rhvlsrKX0sBvKiH8Ze0gjjCBB7MaOKwfrgtOElS5ZII885nItAIoW1pKyHsD/i3lQ+ds6Jwp2Bfciq4CY56aSTOLUkrWWNLCVkG4aAIRCKQK6WB4394MGD5cPdsTbUL52GSZBrGATG3YW/H3cWM2jiGPZaw2jH/Rg45X4333yzuEEYh2FwGPcI4zaIupCSeuJycswXRE0MwKswnRXXC/dUCfbGg//1PP+XvDNLSdeQkF9cUUmiafPOfJnaNCCtx3S/Wjj6n1968sqYiBXGmh5fGKtBicFpj8KAmZExHc474IADRBFwPhjwHpJwZxo37JIM6mOF+G418sw4h86Ww81GuTExBAyByiCQKSR7OUyCuBNwLdCjD3OdtIZBLg4CevVRLHpx18Udo7dMukF3TNQ1jAf4rhT/PBpj3Dh5Cq4rGnF1BeaZH9bcMObDGBcuq6xjCVh5WF3kl0WhvsThzjNhKdGxCCo40giyRvrpJm1Dkztu3LjUi2KT0rPjhkAjIZCr5QFQ9Ph0UDMMOGZOxR0PuybNPhrmKBa9NNeHnYPllEXGjBkj7rqwa1CkQVdL2Hmt2RdswKuRHxY5Zl3oyDPS8EeVgzjcsTawUKIkraKPut72GwKGQDgCmZQH4xVxFTn8Fm1378SJE5v57n0kUKrVljzz88wzz5TcedV+rrzuxzvSmXV53cPSNQTqFYFMbqt6fUjLtyFgCBgChkBlEch1tlVls2qpGQKGgCFgCBQFAVMeRXkTlg9DwBAwBOoIAVMedfSyLKuGgCFgCBQFAVMeRXkTlg9DwBAwBOoIAVMedfSyLKuGgCFgCBQFAVMeRXkTlg9DwBAwBOoIgUzKg1hHfsyhOnpOy2oBEGClOGHsTQwBQ6D+EcikPIi9RFA7E0OgHARgOxw1alQ5l9o1hoAhUDAEMimPguXdsmMIGAKGgCFQIwQSV5hjacDpjXTt2lU4yQmTTkyqmTNnCpWsHAx8QdlKaO1gWHNOe+qpp1yXLl2EtjRwmZAYvf/++xK+PXiMmElEZiW0e1A4Nm/evKrnp2j3hLkPTvMwyeudJGFANGICShJ6nvDqsBwiCxYsELbAsLzaPkPAECg2AomxrQirrtwLPApRcvlPtFh4IpTEKfiYXMexMOWBAtiqiULUJyzS62Ef5B5h6RJxFcUSdawW+SnaPWmcw/AB37zeSRIGjJPxTuEbR7Q8kR8TQ8AQqE8EEi0P/7HghIBDgZ6miSGQFYH+/fuLVTR06NCsl9r5hoAhUDAEbMyjYC/EsmMIGAKGQD0gsFGTC2F02ozCjbBy5UoZ70h7jZ1nCCgCkFKtXr1aSKN0n/0aAoZAfSKQyW1Vn49ouTYEDAFDwBCoNALmtqo0opaeIWAIGAJtAIH/B0kg8IyQDX2FAAAAAElFTkSuQmCC;" vertex="1" parent="1">
          <mxGeometry x="570" y="585" width="399" height="249" as="geometry" />
        </mxCell>
        <mxCell id="PZrZSrdKlhRtxC-y3ePN-10" value="" style="shape=image;verticalLabelPosition=bottom;labelBackgroundColor=default;verticalAlign=top;aspect=fixed;imageAspect=0;image=data:image/png,iVBORw0KGgoAAAANSUhEUgAAAKAAAAB7CAYAAADzNovBAAABU2lDQ1BJQ0MgUHJvZmlsZQAAGJVtkL9Kw1AUxr/UaEEdOqiTQoYiVarU2Bdoi4jgEKrin0XSNKaFNF6SiPgGPoEuzg5ObhVdHLSDCA6Kgr6AeyEOWq7nNmpa9VwO58fH4fDdD4hBZ8yWAdQc3y3O55W19Q0l/oo+yEiQnNINj+U0bZEY37O7gkdIYt5PiVtonpwNv91N3khj1/ylKv3d76r+sukZND+oxw3m+oCUJNZ2fSaYGkMumSLeF2yFfCS4FPJpe2e5WCC+Ik4YFb1M/ECcLnXoVgfX7B3jy4PwOGg6K0vCD/Uo5qDSy2KGcvl/L9veK2AbDHtwUYWFCnwoyJHCYMMkXoADA9NIE6vIiJsi39+5RdrmLZ3OALFkpDkecHFO1vKRljqkL4wAjQbTXf0nTSmQva1ZNeSBOtB7wHlzFYhPAK0nzt/rnLeOgZ5n4DL4BJb7YUElmhniAAAAVmVYSWZNTQAqAAAACAABh2kABAAAAAEAAAAaAAAAAAADkoYABwAAABIAAABEoAIABAAAAAEAAACgoAMABAAAAAEAAAB7AAAAAEFTQ0lJAAAAU2NyZWVuc2hvdIQ12xQAAAHWaVRYdFhNTDpjb20uYWRvYmUueG1wAAAAAAA8eDp4bXBtZXRhIHhtbG5zOng9ImFkb2JlOm5zOm1ldGEvIiB4OnhtcHRrPSJYTVAgQ29yZSA2LjAuMCI+CiAgIDxyZGY6UkRGIHhtbG5zOnJkZj0iaHR0cDovL3d3dy53My5vcmcvMTk5OS8wMi8yMi1yZGYtc3ludGF4LW5zIyI+CiAgICAgIDxyZGY6RGVzY3JpcHRpb24gcmRmOmFib3V0PSIiCiAgICAgICAgICAgIHhtbG5zOmV4aWY9Imh0dHA6Ly9ucy5hZG9iZS5jb20vZXhpZi8xLjAvIj4KICAgICAgICAgPGV4aWY6UGl4ZWxZRGltZW5zaW9uPjEyMzwvZXhpZjpQaXhlbFlEaW1lbnNpb24+CiAgICAgICAgIDxleGlmOlBpeGVsWERpbWVuc2lvbj4xNjA8L2V4aWY6UGl4ZWxYRGltZW5zaW9uPgogICAgICAgICA8ZXhpZjpVc2VyQ29tbWVudD5TY3JlZW5zaG90PC9leGlmOlVzZXJDb21tZW50PgogICAgICA8L3JkZjpEZXNjcmlwdGlvbj4KICAgPC9yZGY6UkRGPgo8L3g6eG1wbWV0YT4KYBpBlgAAFxNJREFUeAHtnQm0VdMfx3cKmYcMKUNCKHOGJHmmSChRhkXKXJmH8owPicUSyTJLZApJFtFARAuZEkKJTJnnmfB/n5//7679zjvnnnPuO+fec9/dv7Xuveees8ff/p7f3vvs7/6dJuuss86/xonTQIk0sESJ8nXZOg2IBhwAHRBKqoFQAG6yySZmhRVWKGkhXeblq4GVVlrJtGvXLrACoQA899xzzc477xyYgLvgNJBPA3vttZeprq4ODBIKwMCY7oLTQAIaaOI3C8biVVVVSfLt27c3X331lXx+/fVXM27cONOnTx/frEePHm369+9vlliiPq6feuops/HGG5vWrVvXizt//nzzzTffmE6dOtW79ssvv5g33ngj8NqkSZOKXp6s5fn444+b7t2719MdJ9JqkzAdDBw40Cy55JKmZcuWZtVVVzVz586V8k2dOtW88MILubI2yx1ZB8sss4yh71ZZeuml5X+zZs3M8ssvbzbYYAO9VOeXeFzzAyAgatOmjVl33XXrxOHP77//bsjDL92ff/5ZwBl0rRTlyVqeNLCfftBtWm0SpgPmDbTpUkstRTFyeKI8tvhaQDvA2LFjzb333mtAvBOngbga6Nu3r1jnAQMG+Eat31f6BnMnnQbS0UDT2q62Jl/SX3/9tZkzZ45h/OfEaSCuBr799luzYMEC88knn/hGDe2CfWO5k04DCWnAdcEJKdIlU5gGHAAL05uLlZAGHAATUqRLpjANOAAWpjcXKyENOAAmpEiXTGEacAAsTG8uVkIacABMSJEumcI0EArAfffd12y++eaFpZ5CrFryhCxyp5C0SzIFDay11lrmyCOPDEzZl4xgh95vv/3Mq6++KowU+3yxj3faaSdz4oknmiZNmkjWsCpuu+22XDG23357YcWcddZZuXOlOqBcyy23nPn333+FaAFb5f77749cnH79+plVVlnFjBw5MnKcrAbccMMNzd57723uuOMO3yKGWkDfWEU+Ceig93z66aeGRe3p06ebPffc06y99tq5kqy55pp1/uculOjgo48+MpdffrksY/bu3dscdNBBkUvStm3bQHZL5ETKJGCoBcxCPTp27GiggsHK+e2334TjBl+R4QFsnRtvvFEoYACV/8iDDz5oJk6cKMd0AVtvvbVhXbtDhw5y7rrrrjMzZ840Bx54oOnVq5d061C/rrrqKvP2229LGIBw6qmnmtVXX13+w1u84IIL5DjsC4rZ66+/Lp+rr77a9OjRQ8oEHWnEiBFm5ZVXFmtOnlx/6623zO677y58SuqKaF2GDh1qFi1aJLw68udm++effyTtK6+8Uiwt1KeamhqhuzVt2tTAozz22GMlXFhZS3m9LADYqlUr0REAQP766y+zePFiAQYkCSxNly5dhETLMWIvfsNthBgJh+2BBx4QMNOAcBMh1y5cuNBMmzbNHHrooebss8/OjVmOPvpo4bRdfPHFpnnz5mbLLbeUtON+vffee1I+4sGVxJLTTf/9998CkiFDhkies2bNMp9//rlYefh01157rWQFIRhheMHNQB2w/p07dzY9e/Y0Dz/8sAAXvuU111xjvvvuO9OtW7fccEUiZ/SrLACItUCwFioAcNlll5W7H+uBtUI4DhKARNeoAsAQzgNkQHb44YcbGhJQAgIAA+Cxiq+99ppGjfX7ww8/CBhIH8s0bNgww9hou+22E6sMoRT56aefpPzUEyKnty7cMDCLH3roIQmPVWdsDAB1bMwFAD9v3jwJk/WvsgAgdzQCIGhMhG6KxowqgMgGH/FatGgh4FKq2ZtvvinJMXMDgLfffrsZPHiwAAbAP/LII7EmE1o2LLBOSOgqb775Zik/VCVlDENfp4xBAsDoWrUXIByWccUVV5QoTHIYXpx22mmSFwz04cOHByWXmfNlMQlh/IPo9j4aCwBq18Q1Gjif/Pnnn/UuA2bS4oMorR1gIFi8Y445RrplynDAAQdIlywXY3yxF0ZBzmSEsvev3Ttz0kknmdmzZ0tK3m0MtkUjAPXjY29pwHIyJkYoM+kdf/zxZsaMGWaLLbbw3UcjgTP0VRYA5DEQFogxGt3ucccdJ13OY489llMlDUmjMeXHUkQR3RxDemussYbhkRPjsvfff1+iM0GhkT/88EMhVTJu5BNFmGzwaIgxJWk/+uijEo2yATaGFVgsv41Y77zzjuRLN20Dk0kUz2S5EXkKwJhWu2kmMJznptJ68Sgo61IWXTB3/k033WQGDRokM2CUynNAe6LBMd0mloUPDX7XXXfl1T+z1FdeeUX2PbMTkHzGjBmT6wppZCYpnAd4kydPzl3Lm3DtRR6Y0x0yG2ZGPmHCBIkyfvx407VrVzNq1Cj5z6SDCZIN7ClTpsgE45JLLpGbikkKwwfinH/++TJmJfKXX36ZmykzHmTWS1kRbqInn3xSjrP8FcqIpuGxQPyWWrBw66+/vvn4448jAyFKmbGqzLRpNBsIxGXWydhTrWKU9KKEIb/vv/8+1zVHiaNh6IaZqOhQQc9TTq1HvvGkhi/GLzc2hoPey0/KwgJqwbm7kwYCaTM+Y+boJ7on2u9aQ87puLaQNLyTKU2DWfS7776rf8viN3QMyF2qM8+yqJErZKY0wM2d72lFaBecqdq4wjQ6DYRawEZXY1ehTGnAATBTzVF5hXEArLw2z1SNHQAz1RyVVxgHwMpr80zV2AEwU81ReYUJBaDzEV15oEiyxjCBlETil24oAJ2PaD+1uXNRNeB8REfVlAtXEg34roQ4H9H5fVaH+UeGjWPTqLRlG+InO1+ezkf0/zWclj9iHJgrWVQbk18YIWG+ionnB4aG+KzOWp7OR7SNCnfsNGBpwPmItpThDrOnAecjOntt0qhKBGnW+YhuVE3auCoT+hywcVXX1SZrGnAAzFqLVFh5HAArrMGzVl0HwKy1SIWVxwGwwho8a9V1AMxai1RYeRwAK6zBs1bdUABmzUf0DjvsIO4oovp/CVM4rthw4aEu0sLCu+vxNFB0H9FHHXWUOEe0i4nPFpz0wC1Uh+e4joAQgHfQOG4k8HaKrz6cCKngyBEHQAjnP/jgA3PrrbeKrxgcQeIQUj2b4v+Pm+qee+4Rd2uUDVIDDorUuaWm634broGi+4jGe+c555wjznRwzMMxbm9VAFtNTY3BsxUOdTiOKoTHUuG3zyss+eBBdNy4ceI/BrdqXsG9GuDDcRG+/lRw8Ij3U3yrOCmuBkK74LjFwT8J/lsAn7o6s/344fwH92P33XefuMWFLqUeUMPywhvoH3/8YT777LN6QfH/h9MigIWjSS99C7dtBx98sIGT5/Wa9cwzz4gXqm222aZeuu5EuhpIHIBxiovXLQQzHUXwi/zjjz/mDYqzScZ13AAquEqDJArw8U7qFZw8crNstNFG3kvuf0oawLMr7uSapZR+pGTV9a56oQ+LhKWEnOoneI7HWz6bYBCGAioQZQEYrt1wkYsV9QoWlDScpK8BhmXMBdB5SS0gL2NBcNIYRfDUpQDzhgdUuNTlhShYO3XkTTiGANXV1eKP+cwzz/RGlf/4ao5aDt8E3MnIGsAhJ74ev/jii9ICEBe2SFSff4zxgiYKgBMnmk888UQ9C4elxaceYz3uPLzT24KF5LFOkI9AO6w7brgGTj75ZMP7TZgPJG4BsVDsJcY/Mc64OQbxKuzPAARYqaqqKvH6HtX/IL6P6UJ5tlSIMP7DVx2v/FLH5KSzyy67iGtbHZMWkraLE08DuEbm0VziAMSxN49WWrduLWDhGF/JKjQ8zwNxqk2D846OqEKhsXT5Xn6XLy3uOF7kAojPOOOMXND9999fZs7M4J0UVwOJT0JGjx6dcyTurcqll17qPRX7P6/rOuGEE6TLZGKBYNKDRF9Go9d5+H3IIYfoX3nBDWNRbhQnxddA4gBMuwqM4/gkJYw/gxxoJ5WHSydYA6FdsPMRHaw8dyVcA85HdLiOXIgSaiDUApawbC7rCtCAA2AFNHKWq+gAmOXWqYCyOQBWQCNnuYqhAMwKI5oH15Bd+cBuSUNg2/A61SxI0sxvqGg33HBD0atWdEY076vddddd61SUd7w19FkboIPjxwfSAOvCSctWW21lWMnh7ZZhMmLECHkxoB0OLiJMa1jYLEVSb2hh+O/jhdJxxI/5fcopp5gdd9yxTjIQfLkpx44dKxxLyLUI7O711ltP3q7JGjck3F69eknbTJ8+vU4aaf4JY0Sn8iAaxbPcpuJ9A6Wej/PLa1QRVkKyIDQwfgIvuugiuRnYAgC7QwXyw9133212220307t3b1l4jwJs4ivzm9e1eoXVH17ZquL3Im5WdQAfZVSCBWvgvFuYVaBiAlDLGfSbCgDJzI/hMmzYMFkjbt68uTQa68Xsx0ChvPsWkGHdUB6ghb2MNQkTXrcKx0xZ0ORNI2AdaEyW6mC8cGOQPqDhATvCsh5kBPKzmdtc463jWB2sGWnBMVQqP+XlQzwetnrri+XjfcR82PfSo0ePSJaVfPMxv7nuzcsmVrDAzxvaR44cKXkTXuXll182m222WZ1lTL1Wqt/QMWAhBYPrhdL1oxw8mDI01osvviivnqdbAjy8GBoBmHS1WDk2HnE+iH5llwulQzYFIFD9YUTTlSIQD8gP0MGGgfyq5eEYRs6cOXMkrk2MpQ7sMQG0t9xyi2wDOOyww+p1u3Y5go6xQtQtquRjfkMbg1Chn549e+aSBeQMIxgG6FvTcxdrD9QaZon5nQoAqTSvl7c/qgiUMHPmTPk7ceJEsUT2lki6CawMxAUaH+sUJiiUTUlYObpF6F0AC6EhAB5AVourQGOsSh6XXXaZYexkv2sXK4Jl4SbhzeNYb2SPPfaQ3zhflAdARwUhzO+grQeUl65eP/ZLq6kj17t06eJbPH3DPC+8zoqk0gWjhCDmC10Z4xbCIIxpYCOr6F3KdboxukEG0EGy2mqr5Rp32223lWCwo+naEboz+H+LFy8WOj8g5Rhp3759Lhz/6do23XRTDnOcQ6wjAiCIp+CVkxG/sPxanyhRGB4EMb/p8rlhbNEu+NlnnzWAjAkfr0eYPHmyHcxgWZGgF17XCVykP6kAMF/ZFXhBYexHLFgM73iHeLYlUQswd+5c6fK96R5xxBEytlPK1qhRo6TbJxz7h+3uSBuIa1hvhOuMG8kTgq2OHeVixC+sKUOPqMIMX9niUeMQjv3P9Co8surXr595/vnn61hSrev8+fPjJJtq2NS6YJjQ9idqLWBLt23bVmZrdFtPP/10nahMFLp27Sob0bFmWAQmA4x9lGrPHt999tlH4kEyxUIQtlu3bgaLqcJskDEV40UeF6j14/q8efPEarGXGKvHZAXRsRXPt6gfDG+6fY7t8Sr5ASLGp2yaz2fFJWHrq6HMb2a/lIuJmS0dO3Y06EN5lPa1Uh2nYgEBDrNQW2wWs9cKAiIVrg0fPlz+cqdifWxhgM2mc7whLKz1akADo/ALL7ywDstZx5lsVGcmy2Z20mZ/CBMThK4IK9inTx/5sD1ThW6cZ2tYUKwmwmSGMSrCBKVVq1Zy3KZ20kN99TkgJ7HkMMEZRvD4ZcKECRI2ypfN/KZucWXRokWy55pJHNaQMSw3RIcOHXw39cdNP8nwvi+qsTNgow/UeX7TFmawMKpnz54t4y3tXqPmy+AdawOwaHhbAAnnbbDrdR1Heh/DcB0LyQyb7s0GqMZN65fJF1YXVyJJWCzSAYwDBgxIq8i+6fLSo0GDBgUuRKRiAX1LEuMkXWohwvgsaIyGtQwSHe/5XafxdWLkdz2tc0kzv/EG4fUIkVbZ46QbOgakQaPuWouTsV/Yl156yXfS4RfWnSsPDThGdHm0U8WWMtQCVqxmXMWLogEHwKKo2WUSpAEHwCDNuPNF0YADYFHU7DIJ0kAoALPCiA6qQDHO81BZ11v98uMBL0wZXYv2C1Op54rOiGb56fTTT6+nb9ZiC32+Vy8xnxPky4oGKxRJiRIZWNlBpk6dWo+fCPEWjh3PEln+gnPXUGEdF3chcPrKXYrOiNbGYv+BTZvP97A3CSXjXNImEzQ0TeoxcOBAWQGBMAsoWNqCYaK0JvJgDRh/10k+5GUt3KaoNbQuWY6f2koI4PMyWWCFsEDOEhPLWlitwYMH57xdsVw2ZMgQuftZMoMsANUdgRlNejQ44MAa4YwStjKeUbE+nGf9FmH9FWYIwj4VloSUzQK3zwaRBPJ8sXBPeMixlJUlwqqqKnFyTn6kAXObrrl79+5Cf2INF6Ioki9PCBfUk70ixCWfGTNmCAECt3X8R7QuQ4cONazvQqeHdEqerNDAtsbPnndtXSKXyVdqAKQrVFe4gBFP+VCaIAIAFgTwKDGAczU1/9HoaWCABvkTh5OABeY0/D0AgTNxnI7feeedQnNiwR4SJgDRxXsFmG7EYWkL5+VYMviBkBjyiRINlLoEj9HmA6o74PPOO0+cJUF+0LXksDzRgwL3ueeekxc6t2jRwsyaNUvIF6zXwqyBcIFouuiImwqOIuwf9prwGT9+fL6qZPpaagCky1UOnJfR4qcRLA4NAyuZrhRCKQ3OuA5qP4ILXmhNNBSNw9gLd2swVOi2EGWryJ/aLyhYgAdCKUxgbgZoV+TlJSxoHH7Vc78SWzlHebgREACuIMc62flGzZPu3Nt1kw55QtK10yRPmECwWrDmXMcKar25Xo6SGgChP3m74HwKUpo4bBZ96Qx3vg0AvNwjOplRkORLFyuL2DNUbgi8tOcDoDpQxxLpWjhdI7vLwiRqntOmTQtLqs51xqRwIbmxuaGwiNqD1AlYRn9SA6CfDrTBoZvTkIz5VBRUY2p3xjG2iStB4yDy5JrtpTVK2lg1pF27dgaSBF0mANTuMF8aUfNUkPulpZM5vQYtDPBB0IUaB/jY9lnu8t9grEi1sFnGdLOdO3fO5czjC7oUBuFYQxTOOA92cxSBQ0ijEYe4KnAZsZQ8z+Q8Yzu4cWFCPLpc9lfQ7fIqL9Jnxhsmheap6WLpmQXzCAOgIUzK0A8WmW4Yjp0XpBq/nH4Tt4BBlgilcI3GYQzDx37nBzPN66+/Xh59XHHFFaJDwjPYV/GSSe3/jMfg/PWvBTAfxoqMr5hF8yAZ0CnwsLbesZfmob/kjaWhoZkBI8y8ddyn4fx+o+Zpl99OZ8qUKXJzsjEdkDFjhkxL/txgDG8Y12qPYsctt+OSMKK5u1FgkFNwrCPdXRCDuRAlM+ngsQnjP90mae/G86apM3gAACOayQtljiPePOPEDQrLUIDVBXRTDoKhyRwjOoxqH8XKxFU+1sLe98tmo759+wYmo47MsYRxJlN2gt487WuFHnMTlAv4otQxtAsuJiM6SoGTCsNDYCYXTtLVgGNEp6tfl3oDNVDUWXADy+qiN0INOAA2wkYtpyo5AJZTazXCsjoANsJGLacqOQCWU2s1wrI6ADbCRi2nKoUC0Ov1qZwq58paeg1APIHQESShAGTPA8spTpwGCtEAjjKrq6sDo4YCMDCmu+A0kIAGfMkIWLyqqipJHho8HDg+LKvgbw+Wsp/AGoGJohQiOwwe79kTgp9mr0B7hxnTqVMn7yXhDcJ6Dro2adKkopcna3nq3pJ6yqs9kVabhOkA8izEiZYtWwq1DA+2CIwedfLJf9+1YPhmto9iWLf8h6GCN1B9HQIJ2EI8rvkBEBC1qSWgKvPZjseiPXn4pQsjGnAGXStFebKWJ+wiP/2g47TaJEwH8BZpU2UcKZ4ojy2+FtAOwM4sNgKBeCdOA3E1AOOInX9BjjHdGDCuRl34RDXQtNY01uRLkd1tbAPUHW75wrprTgNeDcD9XLBgQSCTPLQL9ibo/jsNJKkB1wUnqU2XVmwNOADGVpmLkKQGHACT1KZLK7YG/gfpmDnl8xCCcgAAAABJRU5ErkJggg==;" vertex="1" parent="1">
          <mxGeometry x="60" y="570" width="160" height="123" as="geometry" />
        </mxCell>
        <mxCell id="PZrZSrdKlhRtxC-y3ePN-11" style="edgeStyle=orthogonalEdgeStyle;rounded=0;orthogonalLoop=1;jettySize=auto;html=1;entryX=-0.006;entryY=0.826;entryDx=0;entryDy=0;entryPerimeter=0;" edge="1" parent="1" source="PZrZSrdKlhRtxC-y3ePN-10" target="PZrZSrdKlhRtxC-y3ePN-1">
          <mxGeometry relative="1" as="geometry" />
        </mxCell>
        <mxCell id="PZrZSrdKlhRtxC-y3ePN-13" style="edgeStyle=orthogonalEdgeStyle;rounded=0;orthogonalLoop=1;jettySize=auto;html=1;" edge="1" parent="1" source="PZrZSrdKlhRtxC-y3ePN-12" target="PZrZSrdKlhRtxC-y3ePN-2">
          <mxGeometry relative="1" as="geometry" />
        </mxCell>
        <mxCell id="PZrZSrdKlhRtxC-y3ePN-12" value="" style="shape=image;verticalLabelPosition=bottom;labelBackgroundColor=default;verticalAlign=top;aspect=fixed;imageAspect=0;image=data:image/png,iVBORw0KGgoAAAANSUhEUgAAAM0AAACOCAYAAACScIyrAAABU2lDQ1BJQ0MgUHJvZmlsZQAAGJVtkL9Kw1AUxr/UaEEdOqiTQoYiVarU2Bdoi4jgEKrin0XSNKaFNF6SiPgGPoEuzg5ObhVdHLSDCA6Kgr6AeyEOWq7nNmpa9VwO58fH4fDdD4hBZ8yWAdQc3y3O55W19Q0l/oo+yEiQnNINj+U0bZEY37O7gkdIYt5PiVtonpwNv91N3khj1/ylKv3d76r+sukZND+oxw3m+oCUJNZ2fSaYGkMumSLeF2yFfCS4FPJpe2e5WCC+Ik4YFb1M/ECcLnXoVgfX7B3jy4PwOGg6K0vCD/Uo5qDSy2KGcvl/L9veK2AbDHtwUYWFCnwoyJHCYMMkXoADA9NIE6vIiJsi39+5RdrmLZ3OALFkpDkecHFO1vKRljqkL4wAjQbTXf0nTSmQva1ZNeSBOtB7wHlzFYhPAK0nzt/rnLeOgZ5n4DL4BJb7YUElmhniAAAAVmVYSWZNTQAqAAAACAABh2kABAAAAAEAAAAaAAAAAAADkoYABwAAABIAAABEoAIABAAAAAEAAADNoAMABAAAAAEAAACOAAAAAEFTQ0lJAAAAU2NyZWVuc2hvdOT+S0MAAAHWaVRYdFhNTDpjb20uYWRvYmUueG1wAAAAAAA8eDp4bXBtZXRhIHhtbG5zOng9ImFkb2JlOm5zOm1ldGEvIiB4OnhtcHRrPSJYTVAgQ29yZSA2LjAuMCI+CiAgIDxyZGY6UkRGIHhtbG5zOnJkZj0iaHR0cDovL3d3dy53My5vcmcvMTk5OS8wMi8yMi1yZGYtc3ludGF4LW5zIyI+CiAgICAgIDxyZGY6RGVzY3JpcHRpb24gcmRmOmFib3V0PSIiCiAgICAgICAgICAgIHhtbG5zOmV4aWY9Imh0dHA6Ly9ucy5hZG9iZS5jb20vZXhpZi8xLjAvIj4KICAgICAgICAgPGV4aWY6UGl4ZWxZRGltZW5zaW9uPjE0MjwvZXhpZjpQaXhlbFlEaW1lbnNpb24+CiAgICAgICAgIDxleGlmOlBpeGVsWERpbWVuc2lvbj4yMDU8L2V4aWY6UGl4ZWxYRGltZW5zaW9uPgogICAgICAgICA8ZXhpZjpVc2VyQ29tbWVudD5TY3JlZW5zaG90PC9leGlmOlVzZXJDb21tZW50PgogICAgICA8L3JkZjpEZXNjcmlwdGlvbj4KICAgPC9yZGY6UkRGPgo8L3g6eG1wbWV0YT4KYc6GWgAAG/BJREFUeAHtnQewFEUTxwdBzDlgQsGEIOaEgpgBxSwqoiiiooKYFcEERgyYxRwRFVEMhRhQxFSKiqIiiqiYc0DM+Xu/+apfzdvbnb2wd+92r7vq7vY2TOiZnu6Z7Z5/k5YtW/5nlJQDyoG8OTBP3nfqjcoB5YDlgAqNdgTlQIEc8ArNSiutZJZffvkCk9TblQP/50DTpk3NeuutZ5o0aZIplniFpn///uawww7LVIW1MpXjwFJLLWUGDx5sFlhggcplWoGcvEJTgfw1C+VA6jjQJLh6tsIKK5hDDjnEVmT11Vc3//77r/nggw/s/2uvvdb06tXLzDNPrqxNmjTJtGnTxqy44oo5TJg1a5b57rvvTIcOHXKu/fLLL2bChAlm7733zrnGiZtvvtn06dOnqDwXXHDBqipPY/DAl+ebb75ZljZZZ511TOvWrc18881n6EMzZ840f//9t3n33XfNmDFjQts5TSebBQvbvHlzs9hii9nTIhzyHxt1tdVWC+3ANECrVq3MyiuvHEzS/P7775aBPBukn3/+2Sy88MI23eA1/qPai81zkUUWqary0IkqzQNfnghUOcoD3+kzzZr9v3vxn8GX3yxQjqZxK3XeeefZDn/WWWe5p/VYOZAXB5ZddllzxRVXmL59+5pff/01r2fScFOunZWGUmsZlQONyIGmdWp0aFT+X375pZk+fbr59ttvo27R88qBSA78+eefZu7cuXZO899/2XE88ZpnkdzQC8qBGuaAmmc13Pha9eI4oEJTHN/0qRrmgApNDTe+Vr04DqjQFMc3faqGOaBCU8ONr1UvjgMqNMXxTZ+qYQ6o0NRw42vVi+OAV2g23nhj07Vr1+JSboSnFl10UetrJj5zjVAEzTLAAZx/l1xyycDZdP/1Cs3WW29tunfvXvU1xEn0xhtvNNdff7258MILzahRo8wyyyxTcrk33XRTc9FFF5WcTjCBAw880BxzzDHB05n8v8MOO4R6mqe5sjlezmmszLBhw6zr+fHHH2/mzJljevbsaf7555+Sq9KiRQtD9GrStOqqq2Zu9E2aR9WcXuqFZquttrLhAxdccIH5/PPPLa+JwRHaa6+9zO67727mnXdeQxjCiBEjzNtvv20v33TTTTZWaK211rIhuRMnTjS33XabWWihhQyxQ5h5hOqiuaB7773XPPjgg2aDDTYwRx99tM0Xnyp89BBcBBbCLX7IkCHWVOR5zg8cONB07tzZxgaJy7ykO2jQIFt2zJgzzjjDIKy40r/++utW04nf1lFHHWU22WQTG2bx119/mYsvvtjeYzPVr4pxwGueVawUJWREkBP02muv5aSC2UZw22effWbNNzrwKaecUn8fQWrt2rWzgVEESHXr1s0KCW7sw4cPN88884yhw3LMZ/LkyfZZYlSmTJliBQWTEFPwxBNPrE936NChVkM99thj5uyzz7ZCRSzSSy+9ZNOhPDgySrrffPONffakk06yaY0dO9amv+GGG5rddtvNXlt33XVNp06dzMMPP2wFcvz48Va71meqBxXjQOo1DaOzjMRBrmFPQ8QDIQjzzz+/OeCAA0yrumC5Dz/80F5D2OiAdGhiP9q3b28IqHvrrbcMZhTEsUsvvviivZ+FEiJV0WAyh0IQ2Yzk6aefNrfeeqt9TJ4nGI9j7ifYT85L2gj5jBkzzLhx4+wpNFrHjh3NAw88ILfY3y+++CITEZANKpWiP6kXmu+//z5ytxM2dsCMkQAowhwgOrUIzTvvvGPPff311/Z38cUXt7++LzoyphIhvEQ/El3KMSSRqy+//LIviZxraEG0EaHhQmggVgShN954w4Zp7LnnnoYPgnP++ecbKbc8o7/l50DqzTPMKoiVriD9+OOPdi7DfAaS0F4ELR+K0mC9e/c2dGh+jz32WGtqSXp0ZgiN5SOExCXy4iNCxzW06G+//VZ/2znnnGPzvOOOO8xyyy1n92uov6gHFeNA6oXm2WeftSHZhx9+uJ1HMIln2yk6HGYU1K9fP0Po7S677GJX1WSjkDguT5s2zWox5jpoAaGffvrJCiMapkuXLmbppZeWSwZB5ToLFEzaWUxgNU8ElxvRbpSP+Zj7TolgPzalWHPNNQ2mJXsniAnXtm1bs+WWW1rN+dxzz9l6ZG1rpHomVvlB6oUG/jLxhlhNYkVs2223tZ2c1aepU6fazsZ8hVWp22+/3XY8+0DdF6tULrn/P/30U2vG9anbDWf06NF2PsS97KhCh77lllvMwQcfbH744Qc3CcNKHnTCCSeYO++80wqrKxyPP/64NetYJOC6aJcrr7zSChFzMF4KYnrJChtzpwEDBpi7777bruyxi891113XIF/9UxkOeCM3WRGiQVleTQMxevOZPXt2g/c0TM7ZmgoN4wpFqXViQeHjjz+OTJPFAXZgYf5USL7wnMWCoBmJtlpllVXMV199ZbVZqeWvxPMI+bnnnmsXVyqRXyXySP1CgMskOlmwo3GdhYD33nvPvTWRY1lMiEqMeY8sJ0fdE3YeQQwjFjXKUY+wvPRcNAe8QoPZkZW9qqJZoFfKyYE//vijwWJGOfOqVNpe86xShdB8lANp4kAmFgLSxHAta/o5oEKT/jbUGlSYAyo0FWa4Zpd+DqjQpL8NtQYV5oAKTYUZrtmlnwMqNOlvQ61BhTngFRrF3Kxwa2QsO/z1FHMzY42q1SkvBxRzs7z81dSVA6nhQI5HgGJulg8D1Id/WS7cUV+eirlZnJzm+J4p5mb5MEB9+Jflwh315amYm8UJTY6mcZNRzE2XG3pcKAcUc7NQjun9yoGMckAxNzPasNVQLcXcrIZW0DIoB6qAA96Xm1VQPi2CcqDqOKBCU3VNogWqdg6o0FR7C2n5qo4DKjRV1yRaoGrngApNtbeQlq/qOKBCU3VNogWqdg6o0FR7C2n5qo4DXqEpBXNT8S+rrq3LUiC22+3Ro4cFskoyA/bkZkvetddeO7FkgT7ZZpttItPLt7/nOGy6KYK5yRapgBPlS9wPmhcOiBAwfuysX8xOk26ebPYNniYYmFE7ULr353sM/uUSSyxhLr/88nwf8d5HI59++uk597Bvs2xmnnMxxSfA/EFo3n///VBgrWKrxl7WbDTo8oxN7qXTg7DA9rz33XefYRP8U0891W4cf9BBB9ksCX4DwAvUO/bGhtjbu1evXuapp56y/4Nf+fZ3r9AEE83nf7nwL4HcY29koPmSpKTxL2WjcyAM3S1kP/nkkySLXTVpAQXCBvTsn50U4Zm9+eabGxDhgoSwgBjHntYMeIceeqgVGvc+4CARmI8++qheYLgONOTIkSPthvgIWrGUqNDE4V8CgQeqMaqXfYlhykMPPWTLDvYKDCGehw3LZ86caSvMxuHs+I82gGAG54CrYGNtNNAll1xiAGMC84WNwy+99NL6Eapc+Je2MJ4vIAKDkB6gsG233XYWkQ1IDsKBGalpyBdeeMHWG6xOwdHheTokvIIYRUFHA5JDzJarrrrKPP/88+aII46w8B7whs7CAAPkCMRG7SeffLLlIdcZaUHDhqJwR+3Fuq+ddtrJ7LvvvhbnE6sBlDZGdwgveNAMIACmBCArrk3sA54vsH1oS+Abwwg0Bz7wjjrCEyHqiqYHBxVeusQ+36AtdOjQIUfQ3PvijhMVGh/+JUxghEDl3nDDDaZr165WVb7yyisWpJXOTUMDQ0HHB+0LFQu832WXXWavHXfccRbmAlNA4C0Y2emgND6NChPpIKKm6XS4qGNigk4GBiedFbhAGAtUBvtVI5iQmJEu/iV7JWyxxRYW/zII5RfFYJDSgAuEGAxAnqaOxCsx4vWpg+/AXKBse+yxhxUaBoTWrVvbwYS67LPPPgagXXbeh3geMCdMXwYctC9CAN8wLQgqI8399tuvHvcG/ojgAb7LKLz99tubRx991HY8wR296667DBifYPEAR0KZwcphNMccJj+gSlwsHrQpeTMQulg5cW1iK+P5Ap+H/BkcfER5Idofgh8MvjiK0gfgTZAYrETQg9fy/d+MjiiEFAK8WiwBc0Flw6hNmzYW2IjJ3ZNPPmk7MHnRgDQSRIUEmRkAJtDNEBpGXOnMmAGunUuZYRQCC4gSjKYcUCXwL21GIV8C7sQlt/EAfKLDItSAMzGqCmraGmusYcsvHZA0EAYRGskGG92d1yFc8B3NC62//vr1mmijjTayIzKaG+FnQALqkMEDjQxF4Y6Cik26ot3tzc4X5qcgajun7Wge1SbufVHHWBsCxxi8h8EX4cdaAXqEviAQigyGDDbwD7ObOgeJwRZtVAo1E1OARGBoKYT6o1JhBM4lBHYkBLoxjGGkEhLoPf4zSueDWID9i/AxypA/IzkEQ1mUgJLGv7SJxnwxOLjCLbfTqEJoXXhAYzOCwztMDlZxIK4H2wRTzRUY7gOh2r0PCBAx34QHaDQ+EAOQe7+YVdL5BHeUjTHgqSv0NoGYL1+biKnpSwJBFB4E70OIEXI6/xNPPNEAWgXe9u/f31omWApYHcFBHDOfvlcKNcOMSIrAvwT2Dg2B+eOSqFpGU8wiOgcdfc6cOfW35dM4POMSKzecw9yhQY488khr22MiiBAykmMGRlFQ0GE0H+lwPIf2QkuUSsFGlPTonBDozqIB5Jr7i+kRJPiOJhdyyy2CwHIrplshROdyB9V8n/W1ST5pIMRAwTOgioXhPheFAMcAhHbG1B40aJAVoKuvvtp91M7r4HEpNE8pDwef9eFf0rB0GOx3mMHEFRJczGBawf90WIQCmxuzSzo6ozQCwujI6MokT0hMpKTxLyV93y+rO8wf5EOZfcSAQQfHtMLMhJjTMRGPo0mTJll+MLcAeRrNI8RgwQjMoIIwwS94SNpxBKw79w8cONBqfcw75qJx5GuTuGe5Tqemr4AxWgyhidDyPC/zbNJh4MN0Cw7ohebRcNgu9OmQ+4fWTbxZvQD/EqLyTJ4xNTBZQEQGWxKaMmVKqAljL9Z9BUdlVn3QZMx7MFGY7LGS07lz5/o00WJMlkVrgX/JGj74lxAd6P7777fHfLHwwCSf9ygIImmSNmWkHrLGT4em/HEk+TKBdomRXq7Jeern1nH48OHmzDPPrC8r97EyFkfUGROUAYMPG2bIaiNLwqzOoYF5zwWRJ/MCoWC55D9zT7Q0gsgHmjx5sv1lJdRdnWJkh5h/xbWJvdHzRV+hY++44452tc5za+Ql+h8LTpRLVhHpe8yBGQxKIe/GGqVgbiLVfIL4l4xCrBCx4uHCfZdSCZ5l8oipB1RgGKHdksC/pPxBE1Hyo7PlY7PL/VG/aE3mHwivrMBF3eueR+MiEKeddpoVGlbsXEJTUHbSFcFwr0cdMz+kzXiZiPbOl+LaxJcOHiWYYSxrsyqYBAElDzAw22WFUb79PXFNI4XBRhc7Xc7xy0jvvvRzr5VyHLaK46aHbRxmH7v3hB3TwVzi5a2r8t1rmJAyqrnnCz1G+N25Xj7PozngAWYgpiGdI0i82yiGGAgwrwuluDbxpcd8iqXzJIn3ZEmQV2gUczOXxaj9qFU9zIrGIt5DYUqx+MELz2IFpLHKXw355tvfveZZNVREy6AcqDYOJLp6Vm2V0/IoB8rBARWacnBV08w0B1RoMt28WrlycECFphxc1TQzzQGv0OQbyVZuDrVt29a+xS53Ppp+8hwgmIz3dVkir9DgYdu9e/e86ou/GW+DeQsrhFsL5+Rtspwv9JcYFGI6lNLHATw4SnXFr7Zae4WmkMLyNhriHQa+XhBvzyG5Zv/ol3Ig5Rzwvtwspm64nPMmN8y/JypyE6dG/MMg/L94QYfLBy/s8NmCcP/ArYJALFw58BWTF3gES+Ez9sgjj1h/Je4l6u+aa66xAkygGV7VvHwkjCAffy6bqX4pB0I4kJimkbTHjx9vPY7dEFSuIQzEOOAbhQmHYLDJAf5JeJ7i3zRmzBibDNqKAC0C1IS4jlsOQoSrSL9+/eSSFQiu4+DHc0Rxci+Ch6MieRH9ya94V9c/rAfKgQI5kLjQsIEEPkcSbizlkcjNe+65x0ZuEtkHuYKBwOFzhG8anV/MO0kD7ULUI+EE+FcFCc2ENiI4CQEkZBpiRxLiQvCfQrjc8IFgGvpfORDHgcSFhgzRBrjn4xkrFBe5KS7yOHTiIEiwlcTMkAbnxIOZzk90ICGvLiEsLuEpTLpoPVYCMePQNhJO7N6rx8qBfDmQ+JyGjAlpxjzadddd68uRT+Rm/c0hB2gIPggPwVRE6REb4RIOdy6JpzCxNIW4wrtp6LFyIMiBsmgaMmF3E1cTlBq5SZrsccU8BfNKFgE4H0UEUaGtJPKQ8vSpi2CM8lKOSkfPKwdcDiSmacS8ksQJfWZeIztt+iI33dBb0pGPpMV/zLZOnTrZ1TCOcX8PUlCbEPbKPKdLly528znuR0O5kZvBNPS/ciCOA97QgHwj2eIyca+XErnJ+55WddvvsNtKUEDcPILHPMeWPiyHExqsVDkO8HKbraWSir6sXMmjc0pM00Rn0fBKKZGbCEpw18qGqYf/47lyRIuG56Zns84Br9DkG8mWdSZp/YrnAGZ5kntBFF+S5J70mmfJZaMpKQeyw4GyrZ5lh0VaE+VAQw6o0DTkh/5TDsRyQIUmlkV6g3KgIQdUaBryQ/8pB2I54BWaaoncjK2F3lC1HMhi5KZ3yZnITfy8eKueDxGp6eJN4vuFZ8Do0aPzebxs94AByl7HxNsoVZYDRG6yL3PYbquVLUlyuXk1TaHZSIQm7vm8BWYbWMCZiJlpTMIbwIWfaMyyaN7p54BX0xRbPXbYB+pg1qxZNkwArBGiKNFCRGniSoO3MrvLu3B8bHbNC1U6OCBH+IkNGDDAxtiA7At0AlGZaDDicXDalKhP3DQIASB8AFQBojNBeQNiDu9otCa+a1wnLQiXHCI+2WEfrwEXi5LQg6FDh9qyUF48qtmnWdx3yBfUaiJJoenTp9cjkQH5B4oY+eK6M2LECBvTY2/Ur9RzIFFNE+TGZpttZk8J+pl0aDojwD09e/Y0EmfDjeyWD9wdsTREX6LW8VKmAwKFjSAA0kMnFjAqOjedkyAzQpkRRtKFMAuBr+AcnZpjINUhtCLl4Fk2Dyc8moA4vKihPnXe0AgVAEGYdzh/SnwPodPszI8Ag58JnDruQRACDzQfqAiAwfIM8HtK2eFAWTQNEA90SoK92ElfYvIZcYG8YMQHtoGgMEBJCQwTQrsIlowEleGlTMcnqpNOSXQo2zrReYWAUWD+BOQdIz2ExuNDhyaex4Xzi8OiFAEhHfzW3F3zEWAEBgwbQRcTcCpseAhcGwYJyshu9QggjqZK6edAWYQGp0pCntlcw3WwBFSoZcuWdmMM8UdyOz7sDIuTkbgcF4cRb2UwTISmTZtmDwE0cju8XA/+yhwnCouSsGwWNjDxCE3A/MN8hNiSiHMiMG7aCC0CjsBAaDgIjapCY1mR+q+yCA3zFHdUh0syGRc3cWJoBg8enNPBXQBV4S7ARnRSF4larol5J3MNOe/+8iyawSU0EHRrXWh2WOdntYfgNeYsbADCtlQEv6FRWOBAMMGpCXpPs1MOJh8fhEcwK7O0euTysRaPyzqnCWMouy0yugc33gi7V869+uqrdr6z88472/kMq3GFAPSIKYhpKCt8cViUbFCI6YgQiOklGg8zEEFkpxs0J7vjyGaGci+75VBPVg8xD12NK/XS33RyoOHwW2IdZLSXXzc5Og2jMh0NkpGezhdHTKjpnAiKCAvPM48R8qVDpCah0sxBmDORRhwWJStxLqQ25Sd8GkJroKHA1ZSFBcxFdsBBa02dOtWu9LHaR7m4F62jlA0OeEMDyhG5ibmD6SIbbRTCRuY/bN1EBy0E+zEuD1bMMN+CWJTsJYBWQ2CiOj0TfFb7glB5aB95NmwQiStTVq5r5GYCLVlKZ2duM3PmzARK0TCJsMUH7mDlLy6/qMk9CwHB+U7DXPVfWjngNc80cjOtzVo95dbIzeppCy2JcqDROFDx1bNGq6lmrBxIiAMqNAkxUpOpHQ6o0NROW2tNE+KACk1CjNRkaocDXqGpZOQmfl59+/a1H/GODmsGwgzAt8EjOki8scdrYP/998+B6Qjeq/8rwwGN3PTwmQ6LO38YEYsC83xE/Ax+WrwsxCFyypQpObfj64Xb/8iRI21MjXsD7jmEDfB+hPyI1RF3ffc+Pa4sB7IYuel9T1MIe+moQ4YMsY8Q8IU7PyBMuKvwUjKO8IjmE7axuTyLLxiCie9XkMgPIYkTzuBz+l85UCgHEhMaMhanxHbt2tly8F9CADiBFomKlLQPeL7cyM0ePXrkRG7iBoPn8ahRo2wq3I/W8UVRIoCUkShMnp04caINKiMBNBfBZy1atLDRmviU4Wfm83HzFF8vZYgD3jlNkvWMi5T05eWL3Jw9e7aNyCRuhbfPRGfyQVjjoijxD0PAcbQkyKxbt271oQrgg+IVPXbsWGsqEjbNfEpJOVAxoZFISUZ2HCSJm8HjmNDgOAqL3MRxEwdOBIXYHTyPcYzkmA8awY2iJAoUb2fCo9F4QoQxg/VJyDPapn379vYSAjdjxgwzbtw4G/KMEHbs2FEe098a5kCi5pmPj3GRkr5nJY4lLHLTN1/KJ4qSvQogCVVgVQ7hYR8CNgYRIvDMjRSV8/pbexyomNBIpyS2JCxSUliP9kEbuOSL3HTvCx4XG0WJluIjgk66zHHwelZSDlTMPIuLlJSmAL4c0wsIdcHGLDZys5QoSuJ9ZOMPzDxgEIMh3FJm/a0tDpRV07grTcwJeL9C5CYbbEBcZy7hEvMOdpoZNmyYDfzq3bu33QopLnLTTUOO84miDAaIyX+iPNmnjV1lIDSlrMxJ+vpbmxyoeOQmbI6KlIxrgmIjN0uJosREY9FCN8aIa53w6xq5Gc6Xgs9GRUrGJVRs5GYpUZSEQCspB1wOeM0zjdx0WaXHxXBAIzeL4Zo+oxzIGAcqtnqWMb5pdWqYAyo0Ndz4WvXiOKBCUxzf9Kka5oAKTQ03vla9OA6o0BTHN32qhjmgQlPDja9VL44DXqHhzb1AWRSXvD5VyxzAUxxIFbzGs0Reoenfv7/dOT9LFda6VI4DhGaAQQQiXpbIKzRZqqjWRTmQFAdyHDaBh5DNKdj9Ba9fif3HIxlUMAFGcgsxadIk687PTjJBIpgLWD+QxILEhhwTJkyIjOAEqRnQ2GLyxFGzmsrTGDzw5QkkYjnahJCK1q1b27go+hDIC8RJEVJOaHnaKcf3rHnz5vUw39JRBfYbG5VtluS8W3kaoFVdGLEbuCXXcbQksEyg9OQ8v3gQE6sSdo3rqPZi8yQep5rK0xg88OWJQIXxvdQ2ge/0GYFs5D+Dr8RH0a5pphxN41YGYFY6vMSUuNf0WDkQxwHgE4GUZxNIPM2zQjqnyUpLaj0qxoGmdWp0aFRuwPSxNVIxUH9Raer52uEAsIpz5861cxo3ijftHPCaZ2mvnJZfOVAODqh5Vg6uapqZ5oAKTaabVytXDg6o0JSDq5pmpjmgQpPp5tXKlYMD/wOLbnfc/7lejgAAAABJRU5ErkJggg==;" vertex="1" parent="1">
          <mxGeometry x="730" y="94" width="181.9" height="126" as="geometry" />
        </mxCell>
      </root>
    </mxGraphModel>
  </diagram>
</mxfile>
